<svg width="76" height="74" viewBox="0 0 76 74" fill="none" xmlns="http://www.w3.org/2000/svg">
<circle cx="32.7847" cy="27.1395" r="26.25" fill="url(#paint0_linear_1222_1555)"/>
<path d="M49.152 7.8373C44.7359 4.0886 39.0355 1.82706 32.7897 1.82706C28.6199 1.82706 24.6877 2.83902 21.2217 4.62538C26.6934 4.96857 32.3586 7.24771 36.9682 11.1988C40.4078 14.2083 45.1406 11.7972 49.152 7.82849V7.8373Z" fill="url(#paint1_linear_1222_1555)"/>
<path opacity="0.6" d="M55.1333 15.2556C53.6203 12.4221 51.5881 9.90534 49.1514 7.83739C45.14 11.7973 40.416 14.2172 36.9676 11.2077C32.358 7.25661 26.6928 4.97747 21.2211 4.63428C19.2858 5.62865 17.4912 6.87822 15.8901 8.32138C23.4995 8.84937 30.7658 15.3524 37.689 19.8051C44.8321 24.8473 50.7437 21.257 55.1333 15.2556Z" fill="url(#paint2_linear_1222_1555)"/>
<path d="M12.9619 42.86C17.5979 48.703 24.7498 52.4517 32.7902 52.4517C33.1949 52.4517 33.5995 52.4429 34.0042 52.4253C27.7408 47.0222 20.5361 42.7632 12.9619 42.86Z" fill="#65377F"/>
<path d="M10.4709 33.4095C9.71436 33.0312 8.90504 32.7584 8.07812 32.5824C8.91383 36.4015 10.6205 39.895 12.9604 42.8605C20.5346 42.7637 27.7393 47.0228 34.0027 52.4258C40.011 52.1443 45.4652 49.7507 49.6613 45.9932C35.0144 52.2235 22.3907 39.7278 10.4621 33.4183L10.4709 33.4095Z" fill="url(#paint3_linear_1222_1555)"/>
<path d="M50.5767 36.9909C35.5339 42.0067 23.359 32.6878 11.8965 24.0904C10.6386 23.1488 9.23987 22.8936 7.83236 22.964C7.60364 24.3192 7.47168 25.7096 7.47168 27.1263C7.47168 28.9919 7.68282 30.8134 8.06109 32.5734C8.888 32.7494 9.69732 33.0222 10.4539 33.4006C22.3825 39.7188 34.9973 52.2145 49.653 45.9754C53.4533 42.5611 56.2243 38.0204 57.4207 32.8726C55.591 34.6941 53.339 36.1285 50.5679 36.9821L50.5767 36.9909Z" fill="url(#paint4_linear_1222_1555)"/>
<path opacity="0.9" d="M11.905 24.0994C23.3674 32.6967 35.5424 42.0157 50.5852 36.9998C53.3562 36.1463 55.6082 34.7119 57.438 32.8903C57.869 31.0424 58.0977 29.124 58.0977 27.1441C58.0977 26.4401 58.0625 25.7537 58.001 25.0674C54.5526 26.8537 50.5852 27.9273 46.996 29.124C34.0997 34.1399 27.6603 22.6738 17.6318 16.2236C15.5909 14.5252 13.2245 14.1204 10.8494 14.5516C9.37147 17.1124 8.34225 19.9635 7.84082 22.9818C9.24833 22.9114 10.647 23.1578 11.905 24.1082V24.0994Z" fill="url(#paint5_linear_1222_1555)"/>
<path opacity="0.7" d="M17.6321 16.2143C27.6606 22.6645 34.1088 34.1218 46.9963 29.1148C50.5854 27.918 54.5441 26.8444 58.0013 25.0581C57.711 21.5382 56.7169 18.2206 55.1335 15.2463C50.7438 21.2478 44.8322 24.8381 37.6891 19.7958C30.7659 15.3431 23.4996 8.84009 15.8903 8.3121C13.9022 10.0985 12.1955 12.2016 10.8496 14.5335C13.2336 14.1112 15.5912 14.5071 17.6321 16.2055V16.2143Z" fill="url(#paint6_linear_1222_1555)"/>
<path d="M39.8894 2.83884C40.5492 5.09158 40.9099 7.47632 40.9099 9.94026C40.9099 23.9231 29.5794 35.2572 15.6011 35.2572C13.1379 35.2572 10.754 34.8964 8.50195 34.2364C11.5721 44.7609 21.2839 52.4519 32.7903 52.4519C46.7686 52.4519 58.0991 41.1178 58.0991 27.135C58.0991 15.6161 50.4106 5.90996 39.8894 2.83884Z" fill="url(#paint7_linear_1222_1555)"/>
<path opacity="0.7" d="M26.9222 7.60847C27.6787 8.61165 26.887 10.4948 25.1452 11.8148C23.4034 13.1347 21.3713 13.3899 20.6148 12.378C19.8582 11.3748 20.65 9.49162 22.3918 8.17166C24.1336 6.85169 26.1657 6.5965 26.9222 7.60847Z" fill="white"/>
<g filter="url(#filter0_biiii_1222_1555)">
<path d="M1.84863 36.1104C1.84863 45.8571 5.7205 55.2046 12.6125 62.0966C19.5044 68.9886 28.8519 72.8604 38.5986 72.8604C48.3453 72.8604 57.6928 68.9886 64.5848 62.0966C71.4768 55.2046 75.3486 45.8571 75.3486 36.1104L1.84863 36.1104Z" fill="url(#paint8_linear_1222_1555)"/>
</g>
<defs>
<filter id="filter0_biiii_1222_1555" x="-16.7095" y="17.5523" width="110.616" height="73.8663" filterUnits="userSpaceOnUse" color-interpolation-filters="sRGB">
<feFlood flood-opacity="0" result="BackgroundImageFix"/>
<feGaussianBlur in="BackgroundImageFix" stdDeviation="9.27907"/>
<feComposite in2="SourceAlpha" operator="in" result="effect1_backgroundBlur_1222_1555"/>
<feBlend mode="normal" in="SourceGraphic" in2="effect1_backgroundBlur_1222_1555" result="shape"/>
<feColorMatrix in="SourceAlpha" type="matrix" values="0 0 0 0 0 0 0 0 0 0 0 0 0 0 0 0 0 0 127 0" result="hardAlpha"/>
<feOffset dx="8.83721" dy="8.83721"/>
<feGaussianBlur stdDeviation="10.1628"/>
<feComposite in2="hardAlpha" operator="arithmetic" k2="-1" k3="1"/>
<feColorMatrix type="matrix" values="0 0 0 0 0.0862745 0 0 0 0 0.658824 0 0 0 0 0.996078 0 0 0 0.18 0"/>
<feBlend mode="normal" in2="shape" result="effect2_innerShadow_1222_1555"/>
<feColorMatrix in="SourceAlpha" type="matrix" values="0 0 0 0 0 0 0 0 0 0 0 0 0 0 0 0 0 0 127 0" result="hardAlpha"/>
<feMorphology radius="1.76744" operator="erode" in="SourceAlpha" result="effect3_innerShadow_1222_1555"/>
<feOffset dy="1.76744"/>
<feGaussianBlur stdDeviation="2.65116"/>
<feComposite in2="hardAlpha" operator="arithmetic" k2="-1" k3="1"/>
<feColorMatrix type="matrix" values="0 0 0 0 1 0 0 0 0 1 0 0 0 0 1 0 0 0 0.05 0"/>
<feBlend mode="normal" in2="effect2_innerShadow_1222_1555" result="effect3_innerShadow_1222_1555"/>
<feColorMatrix in="SourceAlpha" type="matrix" values="0 0 0 0 0 0 0 0 0 0 0 0 0 0 0 0 0 0 127 0" result="hardAlpha"/>
<feOffset dy="0.883721"/>
<feComposite in2="hardAlpha" operator="arithmetic" k2="-1" k3="1"/>
<feColorMatrix type="matrix" values="0 0 0 0 1 0 0 0 0 1 0 0 0 0 1 0 0 0 0.05 0"/>
<feBlend mode="normal" in2="effect3_innerShadow_1222_1555" result="effect4_innerShadow_1222_1555"/>
<feColorMatrix in="SourceAlpha" type="matrix" values="0 0 0 0 0 0 0 0 0 0 0 0 0 0 0 0 0 0 127 0" result="hardAlpha"/>
<feOffset dy="-8.83721"/>
<feGaussianBlur stdDeviation="4.4186"/>
<feComposite in2="hardAlpha" operator="arithmetic" k2="-1" k3="1"/>
<feColorMatrix type="matrix" values="0 0 0 0 0.0862745 0 0 0 0 0.658824 0 0 0 0 0.996078 0 0 0 0.4 0"/>
<feBlend mode="overlay" in2="effect4_innerShadow_1222_1555" result="effect5_innerShadow_1222_1555"/>
</filter>
<linearGradient id="paint0_linear_1222_1555" x1="58.7584" y1="2.13385" x2="9.81478" y2="49.6591" gradientUnits="userSpaceOnUse">
<stop stop-color="#1ED6FF"/>
<stop offset="1" stop-color="#0F80FE"/>
</linearGradient>
<linearGradient id="paint1_linear_1222_1555" x1="49.005" y1="2.08121" x2="42.1658" y2="19.379" gradientUnits="userSpaceOnUse">
<stop stop-color="#1ED6FF"/>
<stop offset="1" stop-color="#0F80FE"/>
</linearGradient>
<linearGradient id="paint2_linear_1222_1555" x1="54.9268" y1="5.05063" x2="42.4694" y2="32.0744" gradientUnits="userSpaceOnUse">
<stop stop-color="#1ED6FF"/>
<stop offset="1" stop-color="#0F80FE"/>
</linearGradient>
<linearGradient id="paint3_linear_1222_1555" x1="49.4424" y1="33.0527" x2="34.7906" y2="62.8667" gradientUnits="userSpaceOnUse">
<stop stop-color="#1ED6FF"/>
<stop offset="1" stop-color="#0F80FE"/>
</linearGradient>
<linearGradient id="paint4_linear_1222_1555" x1="57.1578" y1="23.539" x2="38.5018" y2="60.1421" gradientUnits="userSpaceOnUse">
<stop stop-color="#1ED6FF"/>
<stop offset="1" stop-color="#0F80FE"/>
</linearGradient>
<linearGradient id="paint5_linear_1222_1555" x1="57.8332" y1="14.9612" x2="40.0824" y2="51.0271" gradientUnits="userSpaceOnUse">
<stop stop-color="#1ED6FF"/>
<stop offset="1" stop-color="#0F80FE"/>
</linearGradient>
<linearGradient id="paint6_linear_1222_1555" x1="57.7531" y1="8.83436" x2="41.6927" y2="42.2064" gradientUnits="userSpaceOnUse">
<stop stop-color="#1ED6FF"/>
<stop offset="1" stop-color="#0F80FE"/>
</linearGradient>
<linearGradient id="paint7_linear_1222_1555" x1="32.1394" y1="28.4725" x2="48.4197" y2="46.9468" gradientUnits="userSpaceOnUse">
<stop stop-opacity="0.1"/>
<stop offset="1" stop-color="#9E8A8A" stop-opacity="0"/>
</linearGradient>
<linearGradient id="paint8_linear_1222_1555" x1="38.5986" y1="0.115551" x2="51.9526" y2="70.9086" gradientUnits="userSpaceOnUse">
<stop stop-color="#1ABEFF" stop-opacity="0.01"/>
<stop offset="1" stop-color="#1ABEFF" stop-opacity="0.12"/>
</linearGradient>
</defs>
</svg>
