<svg width="85" height="66" viewBox="0 0 85 66" fill="none" xmlns="http://www.w3.org/2000/svg">
<circle cx="26.7847" cy="27.3895" r="26.25" fill="url(#paint0_linear_1222_1671)"/>
<path d="M43.151 8.08721C38.7349 4.33851 33.0345 2.07697 26.7887 2.07697C22.6189 2.07697 18.6867 3.08893 15.2207 4.87529C20.6924 5.21848 26.3576 7.49762 30.9672 11.4487C34.4068 14.4582 39.1396 12.0471 43.151 8.0784V8.08721Z" fill="url(#paint1_linear_1222_1671)"/>
<path opacity="0.6" d="M49.1333 15.5055C47.6203 12.6719 45.5881 10.1552 43.1514 8.08727C39.14 12.0472 34.416 14.4671 30.9676 11.4576C26.358 7.50649 20.6928 5.22735 15.2211 4.88416C13.2858 5.87853 11.4912 7.1281 9.89014 8.57126C17.4995 9.09925 24.7658 15.6023 31.689 20.0549C38.8321 25.0972 44.7437 21.5069 49.1333 15.5055Z" fill="url(#paint2_linear_1222_1671)"/>
<path d="M6.96143 43.1099C11.5974 48.9529 18.7493 52.7016 26.7897 52.7016C27.1944 52.7016 27.599 52.6928 28.0037 52.6752C21.7403 47.2722 14.5356 43.0131 6.96143 43.1099Z" fill="url(#paint3_linear_1222_1671)"/>
<path d="M4.4709 33.6595C3.71436 33.2811 2.90504 33.0083 2.07812 32.8323C2.91383 36.6514 4.62046 40.1449 6.96045 43.1104C14.5346 43.0136 21.7393 47.2727 28.0027 52.6758C34.011 52.3942 39.4652 50.0006 43.6613 46.2431C29.0144 52.4734 16.3907 39.9777 4.46209 33.6683L4.4709 33.6595Z" fill="url(#paint4_linear_1222_1671)"/>
<path d="M44.5767 37.2408C29.5339 42.2566 17.359 32.9377 5.89654 24.3403C4.63858 23.3987 3.23987 23.1435 1.83236 23.2139C1.60364 24.5691 1.47168 25.9595 1.47168 27.3762C1.47168 29.2418 1.68282 31.0633 2.06109 32.8233C2.888 32.9993 3.69732 33.2721 4.45386 33.6505C16.3825 39.9687 28.9973 52.4644 43.653 46.2253C47.4533 42.811 50.2243 38.2703 51.4207 33.1225C49.591 34.944 47.339 36.3784 44.5679 37.232L44.5767 37.2408Z" fill="url(#paint5_linear_1222_1671)"/>
<path opacity="0.9" d="M5.905 24.3493C17.3674 32.9467 29.5424 42.2656 44.5852 37.2497C47.3562 36.3962 49.6082 34.9618 51.438 33.1403C51.869 31.2923 52.0977 29.374 52.0977 27.394C52.0977 26.69 52.0625 26.0036 52.001 25.3173C48.5526 27.1036 44.5852 28.1772 40.996 29.374C28.0997 34.3898 21.6603 22.9237 11.6318 16.4735C9.59093 14.7751 7.22453 14.3703 4.84936 14.8015C3.37147 17.3623 2.34225 20.2134 1.84082 23.2317C3.24833 23.1613 4.64704 23.4077 5.905 24.3581V24.3493Z" fill="url(#paint6_linear_1222_1671)"/>
<path opacity="0.7" d="M11.6321 16.4642C21.6606 22.9144 28.1088 34.3717 40.9963 29.3647C44.5854 28.1679 48.5441 27.0943 52.0013 25.308C51.711 21.7881 50.7169 18.4706 49.1335 15.4962C44.7438 21.4977 38.8322 25.088 31.6891 20.0457C24.7659 15.593 17.4996 9.09 9.89027 8.56201C7.90216 10.3484 6.19554 12.4515 4.84961 14.7835C7.23358 14.3611 9.59118 14.7571 11.6321 16.4554V16.4642Z" fill="url(#paint7_linear_1222_1671)"/>
<path d="M33.8885 3.08881C34.5482 5.34155 34.9089 7.72629 34.9089 10.1902C34.9089 24.1731 23.5785 35.5072 9.60012 35.5072C7.13697 35.5072 4.75299 35.1464 2.50098 34.4864C5.57111 45.0109 15.2829 52.7019 26.7893 52.7019C40.7677 52.7019 52.0981 41.3678 52.0981 27.385C52.0981 15.8661 44.4096 6.15992 33.8885 3.08881Z" fill="url(#paint8_linear_1222_1671)"/>
<path opacity="0.7" d="M20.9212 7.85838C21.6778 8.86156 20.886 10.7447 19.1442 12.0647C17.4024 13.3847 15.3703 13.6398 14.6138 12.6279C13.8573 11.6247 14.649 9.74153 16.3908 8.42157C18.1326 7.1016 20.1647 6.84641 20.9212 7.85838Z" fill="white"/>
<g filter="url(#filter0_biiii_1222_1671)">
<path d="M18.3486 28.4855C18.3486 38.2322 14.7205 47.5798 21.6125 54.4717C28.5044 61.3637 37.8519 65.2355 47.5986 65.2355C57.3453 65.2355 66.6928 61.3637 73.5848 54.4717C80.4768 47.5798 84.3486 38.2322 84.3486 28.4855L47.5986 8.25L18.3486 28.4855Z" fill="url(#paint9_linear_1222_1671)"/>
</g>
<defs>
<filter id="filter0_biiii_1222_1671" x="-1.16409" y="-10.3081" width="104.071" height="94.1018" filterUnits="userSpaceOnUse" color-interpolation-filters="sRGB">
<feFlood flood-opacity="0" result="BackgroundImageFix"/>
<feGaussianBlur in="BackgroundImageFix" stdDeviation="9.27907"/>
<feComposite in2="SourceAlpha" operator="in" result="effect1_backgroundBlur_1222_1671"/>
<feBlend mode="normal" in="SourceGraphic" in2="effect1_backgroundBlur_1222_1671" result="shape"/>
<feColorMatrix in="SourceAlpha" type="matrix" values="0 0 0 0 0 0 0 0 0 0 0 0 0 0 0 0 0 0 127 0" result="hardAlpha"/>
<feOffset dx="8.83721" dy="8.83721"/>
<feGaussianBlur stdDeviation="10.1628"/>
<feComposite in2="hardAlpha" operator="arithmetic" k2="-1" k3="1"/>
<feColorMatrix type="matrix" values="0 0 0 0 0.0862745 0 0 0 0 0.658824 0 0 0 0 0.996078 0 0 0 0.18 0"/>
<feBlend mode="normal" in2="shape" result="effect2_innerShadow_1222_1671"/>
<feColorMatrix in="SourceAlpha" type="matrix" values="0 0 0 0 0 0 0 0 0 0 0 0 0 0 0 0 0 0 127 0" result="hardAlpha"/>
<feMorphology radius="1.76744" operator="erode" in="SourceAlpha" result="effect3_innerShadow_1222_1671"/>
<feOffset dy="1.76744"/>
<feGaussianBlur stdDeviation="2.65116"/>
<feComposite in2="hardAlpha" operator="arithmetic" k2="-1" k3="1"/>
<feColorMatrix type="matrix" values="0 0 0 0 1 0 0 0 0 1 0 0 0 0 1 0 0 0 0.05 0"/>
<feBlend mode="normal" in2="effect2_innerShadow_1222_1671" result="effect3_innerShadow_1222_1671"/>
<feColorMatrix in="SourceAlpha" type="matrix" values="0 0 0 0 0 0 0 0 0 0 0 0 0 0 0 0 0 0 127 0" result="hardAlpha"/>
<feOffset dy="0.883721"/>
<feComposite in2="hardAlpha" operator="arithmetic" k2="-1" k3="1"/>
<feColorMatrix type="matrix" values="0 0 0 0 1 0 0 0 0 1 0 0 0 0 1 0 0 0 0.05 0"/>
<feBlend mode="normal" in2="effect3_innerShadow_1222_1671" result="effect4_innerShadow_1222_1671"/>
<feColorMatrix in="SourceAlpha" type="matrix" values="0 0 0 0 0 0 0 0 0 0 0 0 0 0 0 0 0 0 127 0" result="hardAlpha"/>
<feOffset dy="-8.83721"/>
<feGaussianBlur stdDeviation="4.4186"/>
<feComposite in2="hardAlpha" operator="arithmetic" k2="-1" k3="1"/>
<feColorMatrix type="matrix" values="0 0 0 0 0.0862745 0 0 0 0 0.658824 0 0 0 0 0.996078 0 0 0 0.4 0"/>
<feBlend mode="overlay" in2="effect4_innerShadow_1222_1671" result="effect5_innerShadow_1222_1671"/>
</filter>
<linearGradient id="paint0_linear_1222_1671" x1="52.7584" y1="2.38382" x2="3.81478" y2="49.9091" gradientUnits="userSpaceOnUse">
<stop stop-color="#1ED6FF"/>
<stop offset="1" stop-color="#0F80FE"/>
</linearGradient>
<linearGradient id="paint1_linear_1222_1671" x1="43.004" y1="2.33112" x2="36.1648" y2="19.6289" gradientUnits="userSpaceOnUse">
<stop stop-color="#1ED6FF"/>
<stop offset="1" stop-color="#0F80FE"/>
</linearGradient>
<linearGradient id="paint2_linear_1222_1671" x1="48.9268" y1="5.3005" x2="36.4694" y2="32.3242" gradientUnits="userSpaceOnUse">
<stop stop-color="#1ED6FF"/>
<stop offset="1" stop-color="#0F80FE"/>
</linearGradient>
<linearGradient id="paint3_linear_1222_1671" x1="27.893" y1="43.3357" x2="21.0087" y2="57.9981" gradientUnits="userSpaceOnUse">
<stop stop-color="#1ED6FF"/>
<stop offset="1" stop-color="#0F80FE"/>
</linearGradient>
<linearGradient id="paint4_linear_1222_1671" x1="43.4424" y1="33.3026" x2="28.7906" y2="63.1166" gradientUnits="userSpaceOnUse">
<stop stop-color="#1ED6FF"/>
<stop offset="1" stop-color="#0F80FE"/>
</linearGradient>
<linearGradient id="paint5_linear_1222_1671" x1="51.1578" y1="23.7889" x2="32.5018" y2="60.392" gradientUnits="userSpaceOnUse">
<stop stop-color="#1ED6FF"/>
<stop offset="1" stop-color="#0F80FE"/>
</linearGradient>
<linearGradient id="paint6_linear_1222_1671" x1="51.8332" y1="15.2111" x2="34.0824" y2="51.277" gradientUnits="userSpaceOnUse">
<stop stop-color="#1ED6FF"/>
<stop offset="1" stop-color="#0F80FE"/>
</linearGradient>
<linearGradient id="paint7_linear_1222_1671" x1="51.7531" y1="9.08427" x2="35.6927" y2="42.4563" gradientUnits="userSpaceOnUse">
<stop stop-color="#1ED6FF"/>
<stop offset="1" stop-color="#0F80FE"/>
</linearGradient>
<linearGradient id="paint8_linear_1222_1671" x1="26.1385" y1="28.7224" x2="42.4187" y2="47.1968" gradientUnits="userSpaceOnUse">
<stop stop-opacity="0.1"/>
<stop offset="1" stop-color="#9E8A8A" stop-opacity="0"/>
</linearGradient>
<linearGradient id="paint9_linear_1222_1671" x1="47.5986" y1="-7.50935" x2="60.9526" y2="63.2837" gradientUnits="userSpaceOnUse">
<stop stop-color="#1ABEFF" stop-opacity="0.01"/>
<stop offset="1" stop-color="#1ABEFF" stop-opacity="0.12"/>
</linearGradient>
</defs>
</svg>


