<svg width="89" height="70" viewBox="0 0 89 70" fill="none" xmlns="http://www.w3.org/2000/svg">
<circle cx="61.6978" cy="34.8779" r="26.25" fill="url(#paint0_linear_1222_1650)"/>
<path d="M74.9827 13.5466C74.5371 13.5989 74.0915 13.7559 73.6721 14.0699C72.9644 14.7762 74.3799 16.9128 75.804 18.3343C77.2282 21.1772 75.0963 25.4329 70.8238 24.0115C67.2677 21.8836 67.9754 16.9128 65.8435 15.4913C59.439 12.6484 65.8435 23.3051 62.2873 24.7178C54.4587 26.8457 60.8632 16.9041 57.3071 12.6484H54.4587C53.0345 14.7762 52.3268 19.747 50.1861 16.9128C48.8668 16.1192 48.526 14.8373 48.2901 13.6077C47.2504 14.2617 46.263 15.003 45.3281 15.8053C46.595 16.407 47.5999 17.4796 48.0542 19.0407C48.0542 21.1685 45.2058 24.0115 47.3465 26.1393C50.9026 28.2672 51.6103 21.8749 54.4587 23.2964C58.7225 24.7178 54.4587 31.1101 55.8829 34.6594C56.5906 35.3658 58.7313 36.7873 60.1467 36.7873C63.7028 35.3658 61.5709 30.395 63.7028 29.6886C67.9667 27.5608 68.6831 37.5024 74.3711 34.6594C77.2195 33.238 75.7953 28.9823 77.2195 26.8457C78.6437 24.0027 82.1998 29.6886 83.624 27.5521C84.2356 27.0899 84.7424 26.4969 85.1356 25.8166C83.1609 20.7063 79.5699 16.3983 74.974 13.5292L74.9827 13.5466Z" fill="url(#paint1_linear_1222_1650)"/>
<path d="M51.4183 57.7351C50.3087 56.9067 49.2253 56.0869 48.0981 55.9387C49.1554 56.6189 50.265 57.2119 51.4183 57.7351Z" fill="url(#paint2_linear_1222_1650)"/>
<path d="M76.512 52.4153C72.9559 53.8367 70.1076 54.5431 66.5515 56.671C64.4195 58.7988 61.5712 53.1216 58.0151 55.9646C57.3947 57.2029 56.7744 58.4326 55.6909 59.2C57.6131 59.6709 59.6227 59.9238 61.6847 59.9238C70.16 59.9238 77.6392 55.7379 82.1913 49.3194C79.7012 48.7526 77.8052 51.7612 76.5033 52.4065L76.512 52.4153Z" fill="url(#paint3_linear_1222_1650)"/>
<path d="M77.9362 43.8951C77.2285 45.3165 77.9362 48.8659 76.512 48.8659C72.2482 48.8659 70.824 50.2873 67.2679 53.1216C64.4195 55.2494 63.7118 49.5722 61.5799 49.5722C58.0238 48.8659 57.3073 56.6709 53.7512 52.4152C52.327 50.9937 53.0435 48.1595 52.327 46.738C50.1951 45.3165 48.0632 46.738 46.639 47.4444C41.6587 50.2873 40.951 45.3165 40.2345 41.0521C39.9025 40.0492 38.4608 39.369 36.958 39.2905C38.2075 46.2671 42.349 52.2408 48.0981 55.9384C49.2253 56.0779 50.3087 56.9063 51.4183 57.7348C52.7814 58.3453 54.2143 58.8424 55.6909 59.1999C56.7743 58.4325 57.3947 57.2029 58.0151 55.9645C61.5712 53.1216 64.4195 58.8075 66.5514 56.6709C70.1076 54.543 72.9559 53.8279 76.512 52.4152C77.8139 51.7699 79.7099 48.7612 82.2001 49.3281C83.301 47.7758 84.2359 46.0927 84.9698 44.3136C82.436 43.5026 79.9983 41.8457 77.945 43.8951H77.9362Z" fill="url(#paint4_linear_1222_1650)"/>
<path d="M52.3271 46.7293C53.0349 48.1507 52.3271 50.985 53.7513 52.4064C57.3074 56.6621 58.0152 48.8571 61.58 49.5635C63.7119 49.5635 64.4284 55.2407 67.268 53.1128C70.8241 50.2699 72.2483 48.8571 76.5121 48.8571C77.9363 48.8571 77.2199 45.3078 77.9363 43.8863C79.9984 41.8282 82.4274 43.4939 84.9612 44.3049C86.1582 41.3835 86.8223 38.183 86.8223 34.8342C86.8223 34.8342 86.8223 34.8168 86.8223 34.8081C84.402 34.2587 81.8245 32.3837 80.776 33.9534C78.6441 35.3749 81.4837 44.6014 76.5121 42.4736C74.3802 41.7672 72.2483 39.6306 69.4 40.3457C67.268 41.7672 69.3999 45.3165 67.268 46.738C62.2877 48.1595 63.7119 38.9242 58.7316 41.7672C56.5997 43.1887 56.5997 48.1595 53.0436 46.738C45.9314 43.895 53.0436 36.09 50.1952 32.5407C48.0633 28.2763 44.5072 41.0608 40.9511 35.3836C38.1027 31.1279 44.5072 27.5699 42.3753 23.3142C41.9472 22.4683 41.2045 21.9363 40.3133 21.6834C37.9367 25.5118 36.5649 30.0117 36.5649 34.8429C36.5649 36.3691 36.7047 37.8516 36.9669 39.2992C38.4697 39.3777 39.9113 40.0579 40.2434 41.0608C40.9511 45.3252 41.6676 50.2873 46.6479 47.4531C48.072 46.7467 50.204 45.3252 52.3359 46.7467L52.3271 46.7293Z" fill="url(#paint5_linear_1222_1650)"/>
<path d="M40.9429 35.3748C44.499 41.0519 48.0552 28.2761 50.1871 32.5318C53.0354 36.0811 45.9232 43.8949 53.0354 46.7291C56.5915 48.1506 56.5915 43.1798 58.7235 41.7583C63.7038 38.9154 62.2796 48.1506 67.2599 46.7291C69.3918 45.3077 67.2599 41.7583 69.3918 40.3368C72.2402 39.6305 74.3721 41.7583 76.504 42.4647C81.4843 44.5926 78.6359 35.366 80.7678 33.9446C81.8163 32.3836 84.3851 34.2585 86.8141 34.7992C86.8141 31.6336 86.2112 28.6075 85.1365 25.8169C84.7433 26.4884 84.2366 27.0901 83.6249 27.5523C82.2008 29.6801 78.6446 24.003 77.2204 26.8459C75.7963 28.9738 77.2205 33.2382 74.3721 34.6597C68.6841 37.5026 67.9676 27.561 63.7038 29.6889C61.5719 30.3952 63.7038 35.366 60.1477 36.7875C58.7235 36.7875 56.5915 35.366 55.8838 34.6597C54.4596 31.1103 58.7322 24.7181 54.4596 23.2966C51.6112 21.8751 50.9035 28.2674 47.3474 26.1395C45.2155 24.0117 48.0552 21.1687 48.0552 19.0409C47.6095 17.4799 46.596 16.4072 45.3291 15.8055C43.3632 17.4886 41.6681 19.4682 40.2964 21.6745C41.1876 21.9274 41.9302 22.4507 42.3584 23.3053C44.4903 27.5697 38.0946 31.1191 40.9342 35.3748H40.9429Z" fill="url(#paint6_linear_1222_1650)"/>
<path d="M67.2679 14.0705C69.1028 15.4397 69.461 13.2769 69.4785 10.9921C67.0233 10.1898 64.4108 9.74506 61.6935 9.74506C60.6887 9.74506 59.7101 9.81482 58.7402 9.93691C59.0286 11.0968 59.1946 12.3613 59.448 13.3642C62.2963 11.2363 63.7118 11.9427 67.2767 14.0705H67.2679Z" fill="#1ED3FE"/>
<path d="M75.8045 18.3349C74.3803 16.9134 72.9561 14.7856 73.6726 14.0705C74.092 13.7565 74.5376 13.5995 74.9832 13.5472C73.2794 12.4833 71.4271 11.6287 69.4787 11.0008C69.4525 13.2856 69.103 15.4483 67.2681 14.0792C63.712 11.9513 62.2878 11.2362 59.4395 13.3728C59.1861 12.3699 59.0201 11.1054 58.7317 9.94556C54.931 10.3903 51.3836 11.6723 48.2993 13.617C48.5352 14.8466 48.876 16.1285 50.1953 16.9221C52.3272 19.7651 53.0437 14.7943 54.4679 12.6577H57.3163C60.8724 16.9221 54.4679 26.855 62.2966 24.7272C65.8527 23.3057 59.4482 12.6577 65.8527 15.5006C67.9846 16.9221 67.2769 21.8929 70.833 24.0208C75.0968 25.4423 77.2375 21.1778 75.8133 18.3436L75.8045 18.3349Z" fill="#1398FE"/>
<path d="M68.7452 10.8435C69.4005 13.076 69.7588 15.4393 69.7588 17.8811C69.7588 31.7383 58.505 42.9706 44.6214 42.9706C42.1749 42.9706 39.8071 42.6131 37.5703 41.959C40.375 51.5692 50.2133 60.0109 61.6942 60.0109C75.5778 60.0109 86.8316 48.7786 86.8316 34.9214C86.8316 23.5147 79.1951 13.887 68.7452 10.8435Z" fill="url(#paint7_linear_1222_1650)"/>
<path opacity="0.7" d="M51.7159 17.8377C52.4761 18.8319 51.681 20.6981 49.951 22.0062C48.221 23.3143 46.2026 23.5672 45.4512 22.5644C44.6998 21.5702 45.4862 19.704 47.2162 18.3959C48.9462 17.0878 50.9645 16.8349 51.7159 17.8377Z" fill="#1BC1FD"/>
<g filter="url(#filter0_biiii_1222_1650)">
<path d="M37.2236 0.2995L65.6248 32.375L73.9736 63.2995L31.8748 69.5L0.473633 63.2995L13.1248 21.125L37.2236 0.2995Z" fill="url(#paint8_linear_1222_1650)"/>
</g>
<defs>
<filter id="filter0_biiii_1222_1650" x="-18.0845" y="-18.2586" width="110.616" height="106.317" filterUnits="userSpaceOnUse" color-interpolation-filters="sRGB">
<feFlood flood-opacity="0" result="BackgroundImageFix"/>
<feGaussianBlur in="BackgroundImageFix" stdDeviation="9.27907"/>
<feComposite in2="SourceAlpha" operator="in" result="effect1_backgroundBlur_1222_1650"/>
<feBlend mode="normal" in="SourceGraphic" in2="effect1_backgroundBlur_1222_1650" result="shape"/>
<feColorMatrix in="SourceAlpha" type="matrix" values="0 0 0 0 0 0 0 0 0 0 0 0 0 0 0 0 0 0 127 0" result="hardAlpha"/>
<feOffset dx="8.83721" dy="8.83721"/>
<feGaussianBlur stdDeviation="10.1628"/>
<feComposite in2="hardAlpha" operator="arithmetic" k2="-1" k3="1"/>
<feColorMatrix type="matrix" values="0 0 0 0 0.113725 0 0 0 0 0.8 0 0 0 0 0.996078 0 0 0 0.18 0"/>
<feBlend mode="normal" in2="shape" result="effect2_innerShadow_1222_1650"/>
<feColorMatrix in="SourceAlpha" type="matrix" values="0 0 0 0 0 0 0 0 0 0 0 0 0 0 0 0 0 0 127 0" result="hardAlpha"/>
<feMorphology radius="1.76744" operator="erode" in="SourceAlpha" result="effect3_innerShadow_1222_1650"/>
<feOffset dy="1.76744"/>
<feGaussianBlur stdDeviation="2.65116"/>
<feComposite in2="hardAlpha" operator="arithmetic" k2="-1" k3="1"/>
<feColorMatrix type="matrix" values="0 0 0 0 1 0 0 0 0 1 0 0 0 0 1 0 0 0 0.05 0"/>
<feBlend mode="normal" in2="effect2_innerShadow_1222_1650" result="effect3_innerShadow_1222_1650"/>
<feColorMatrix in="SourceAlpha" type="matrix" values="0 0 0 0 0 0 0 0 0 0 0 0 0 0 0 0 0 0 127 0" result="hardAlpha"/>
<feOffset dy="0.883721"/>
<feComposite in2="hardAlpha" operator="arithmetic" k2="-1" k3="1"/>
<feColorMatrix type="matrix" values="0 0 0 0 1 0 0 0 0 1 0 0 0 0 1 0 0 0 0.05 0"/>
<feBlend mode="normal" in2="effect3_innerShadow_1222_1650" result="effect4_innerShadow_1222_1650"/>
<feColorMatrix in="SourceAlpha" type="matrix" values="0 0 0 0 0 0 0 0 0 0 0 0 0 0 0 0 0 0 127 0" result="hardAlpha"/>
<feOffset dy="-8.83721"/>
<feGaussianBlur stdDeviation="4.4186"/>
<feComposite in2="hardAlpha" operator="arithmetic" k2="-1" k3="1"/>
<feColorMatrix type="matrix" values="0 0 0 0 0.113725 0 0 0 0 0.8 0 0 0 0 0.996078 0 0 0 0.3 0"/>
<feBlend mode="overlay" in2="effect4_innerShadow_1222_1650" result="effect5_innerShadow_1222_1650"/>
</filter>
<linearGradient id="paint0_linear_1222_1650" x1="87.6714" y1="9.87222" x2="38.7279" y2="57.3975" gradientUnits="userSpaceOnUse">
<stop stop-color="#1ED6FF"/>
<stop offset="1" stop-color="#0F80FE"/>
</linearGradient>
<linearGradient id="paint1_linear_1222_1650" x1="84.9261" y1="13.2205" x2="64.6965" y2="45.6143" gradientUnits="userSpaceOnUse">
<stop stop-color="#1ED6FF"/>
<stop offset="1" stop-color="#0F80FE"/>
</linearGradient>
<linearGradient id="paint2_linear_1222_1650" x1="51.4009" y1="55.9812" x2="49.976" y2="58.5383" gradientUnits="userSpaceOnUse">
<stop stop-color="#1ED6FF"/>
<stop offset="1" stop-color="#0F80FE"/>
</linearGradient>
<linearGradient id="paint3_linear_1222_1650" x1="82.0518" y1="49.5017" x2="75.0041" y2="66.4905" gradientUnits="userSpaceOnUse">
<stop stop-color="#1ED6FF"/>
<stop offset="1" stop-color="#0F80FE"/>
</linearGradient>
<linearGradient id="paint4_linear_1222_1650" x1="84.7171" y1="39.7624" x2="71.3038" y2="71.1716" gradientUnits="userSpaceOnUse">
<stop stop-color="#1ED6FF"/>
<stop offset="1" stop-color="#0F80FE"/>
</linearGradient>
<linearGradient id="paint5_linear_1222_1650" x1="86.5577" y1="22.4419" x2="59.1864" y2="64.1841" gradientUnits="userSpaceOnUse">
<stop stop-color="#1ED6FF"/>
<stop offset="1" stop-color="#0F80FE"/>
</linearGradient>
<linearGradient id="paint6_linear_1222_1650" x1="86.5687" y1="16.5444" x2="59.4029" y2="55.9899" gradientUnits="userSpaceOnUse">
<stop stop-color="#1ED6FF"/>
<stop offset="1" stop-color="#0F80FE"/>
</linearGradient>
<linearGradient id="paint7_linear_1222_1650" x1="54.1888" y1="30.718" x2="78.1707" y2="54.7457" gradientUnits="userSpaceOnUse">
<stop stop-opacity="0.09"/>
<stop offset="1" stop-color="#404040" stop-opacity="0"/>
</linearGradient>
<linearGradient id="paint8_linear_1222_1650" x1="37.2236" y1="125.005" x2="0.430287" y2="11.2251" gradientUnits="userSpaceOnUse">
<stop stop-color="#1ABEFF" stop-opacity="0.01"/>
<stop offset="1" stop-color="#1ABEFF" stop-opacity="0.12"/>
</linearGradient>
</defs>
</svg>
