<svg width="300" height="496" viewBox="0 0 300 496" fill="none" xmlns="http://www.w3.org/2000/svg">
<g filter="url(#filter0_b_1222_1795)">
<rect y="0.25" width="300" height="495.75" rx="18.75" fill="url(#paint0_linear_1222_1795)" fill-opacity="0.15"/>
</g>
<g clip-path="url(#clip0_1222_1795)">
<g opacity="0.6" filter="url(#filter1_f_1222_1795)">
<path d="M193.558 32.6413C193.558 32.6413 116.648 -1.07452 54.2793 86.4891C-8.0899 174.053 31.3213 216.01 31.3213 216.01" stroke="url(#paint1_linear_1222_1795)" stroke-opacity="0.3" stroke-width="112.327" stroke-linejoin="round"/>
</g>
<circle cx="144.246" cy="144.246" r="144.246" transform="matrix(1 0 0 -1 50.3223 224.983)" fill="url(#paint2_radial_1222_1795)"/>
<path opacity="0.3" fill-rule="evenodd" clip-rule="evenodd" d="M253.919 -19.6662L155.41 -14.4726L193.925 -62.3747L253.919 -19.6662ZM68.4312 31.346L106.949 -43.2726L152.234 -13.678L68.4312 31.346ZM103.683 56.2974L67.4981 34.6159L75.7355 132.266L124.518 68.7823L103.683 56.2974ZM76.5244 133.756L125.521 69.9908L162.513 141.879L166.159 148.966L76.5244 133.756ZM168.85 149.14L268.604 143.881L216.168 60.0922L168.85 149.14ZM214.582 57.955L154.03 -12.1029L126.764 67.6757L214.582 57.955ZM215.951 57.1953L155.337 -12.9351L233.034 -17.0314L254.866 -18.1819L231.186 27.6873L215.951 57.1953ZM300.029 58.0474L293.071 45.5759L258.012 -17.2707L333.451 19.2731L333.478 19.3454L300.029 58.0474ZM291.27 45.4805L256.185 -17.3983L217.363 57.8016L298.586 58.5947L291.27 45.4805ZM300.129 61.0216L271.187 143.35L315.491 128.602L342.049 119.76L300.129 61.0216ZM217.503 59.3358L298.815 60.1324L269.747 142.818L217.503 59.3358ZM214.751 59.48L167.545 148.317L126.84 69.211L214.751 59.48ZM76.7 135.343L128.945 218.807L166.35 150.551L76.7 135.343ZM60.9773 187.814L75.413 136.175L126.964 218.529L70.1944 192.104L60.9773 187.814ZM217.256 213.636L169.034 150.665L268.347 145.428L217.256 213.636ZM131.96 220.903L216.296 215.734L207.039 257.282L131.96 220.903ZM167.642 151.379L130.328 219.466L215.771 214.229L167.642 151.379ZM68.1587 33.2279L125.228 67.4249L152.383 -12.02L86.1481 23.5629L68.1587 33.2279ZM271.239 -52.5L196.737 -62.2583L255.861 -20.1695L271.239 -52.5ZM153.575 -14.6379L191.821 -62.2063L108.607 -44.0248L153.575 -14.6379ZM270.933 145.049L341.699 121.49L294.82 209.714L270.933 145.049ZM252.417 212.635L293.613 210.864L269.715 146.159L218.839 214.077L252.417 212.635ZM217.884 215.652L272.334 213.31L291.384 212.491L208.687 256.928L217.884 215.652ZM272.574 -51.7362L331.743 16.7461L257.18 -19.3731L272.574 -51.7362ZM335.463 18.7813L335.463 18.7781L335.462 18.7763C335.461 18.7731 335.46 18.7703 335.459 18.7675L335.457 18.7623L328.206 1.06439C328.168 0.974571 328.115 0.895905 328.052 0.829781C328.046 0.823898 328.041 0.818123 328.035 0.812462L272.941 -53.6509C272.9 -53.6944 272.854 -53.7318 272.805 -53.7633C272.719 -53.8201 272.62 -53.8604 272.511 -53.8789L180.133 -69.5537C180.086 -69.5629 180.039 -69.5674 179.99 -69.5674C179.918 -69.5676 179.847 -69.5576 179.779 -69.5384C179.767 -69.5352 179.755 -69.5317 179.744 -69.5279L106.481 -45.1306L106.461 -45.1252C106.294 -45.0806 106.148 -44.983 106.046 -44.8498L45.0914 15.6127C44.9465 15.7238 44.8432 15.8845 44.806 16.0678L27.302 103.383C27.2918 103.435 27.2869 103.486 27.2871 103.536L27.2871 103.54C27.2869 103.631 27.3028 103.723 27.3362 103.812L59.3446 188.508C59.3966 188.645 59.4852 188.76 59.5967 188.845L114.651 243.252C114.779 243.383 114.95 243.459 115.13 243.472L207.336 259.127C207.413 259.152 207.494 259.165 207.574 259.165C207.679 259.165 207.784 259.142 207.884 259.098L281.146 234.697C281.28 234.653 281.399 234.57 281.49 234.462L342.485 173.971C342.624 173.862 342.727 173.705 342.765 173.52L360.255 86.204C360.287 86.0409 360.265 85.8792 360.2 85.7378L335.482 18.8361C335.476 18.8175 335.47 18.7993 335.463 18.7813ZM334.096 20.979L300.872 59.4226L342.281 117.451L336.175 45.0567L334.157 21.1415L334.096 20.979ZM343.803 117.278L358.672 86.0167L336.134 26.373L343.803 117.278ZM103.742 -40.413L66.3595 32.0068L46.7069 16.1644L103.742 -40.413ZM129.279 221.305L202.404 256.737L116.436 242.143L122.583 232.167L129.279 221.305ZM292.543 213.611L280.39 233.336L215.796 254.85L292.543 213.611ZM82.1661 199.367L63.7326 190.786L115.039 241.49L127.883 220.648L82.1661 199.367ZM66.0601 35.7833L29.0641 103.283L74.2447 132.799L66.0601 35.7833ZM187.231 -66.7964L232.52 -59.1125L193.992 -64.1591L191.626 -65.0814L187.231 -66.7964ZM331.51 14.1369L326.842 1.78399L285.688 -38.8985L324.884 6.46762L331.51 14.1369ZM65.6294 33.3868L46.0565 17.6085L29.7834 98.7837L65.6294 33.3868ZM342.434 123.373L297.136 208.624L341.257 172.989L342.434 123.373ZM284.928 228.899L295.282 212.092L330.785 183.418L284.928 228.899ZM179.966 -67.9876L120.531 -48.196L191.15 -63.6275L179.966 -67.9876ZM342.987 164.616L344.041 120.341L357.541 91.96L342.987 164.616ZM29.5956 105.461L59.9509 185.787L74.2509 134.636L29.5956 105.461Z" fill="url(#paint3_linear_1222_1795)" fill-opacity="0.96"/>
</g>
<path d="M48.63 330.709H45.21L34.92 315.139V330.709H31.5V309.829H34.92L45.21 325.369V309.829H48.63V330.709ZM65.3911 309.859V312.649H56.5411V318.799H63.4411V321.589H56.5411V330.709H53.1211V309.859H65.3911ZM82.0305 309.859V312.649H76.4805V330.709H73.0605V312.649H67.4805V309.859H82.0305ZM34.92 347.859V368.709H31.5V347.859H34.92ZM47.7502 351.909C49.0502 351.909 50.2102 352.179 51.2302 352.719C52.2702 353.259 53.0802 354.059 53.6602 355.119C54.2402 356.179 54.5302 357.459 54.5302 358.959V368.709H51.1402V359.469C51.1402 357.989 50.7702 356.859 50.0302 356.079C49.2902 355.279 48.2802 354.879 47.0002 354.879C45.7202 354.879 44.7002 355.279 43.9402 356.079C43.2002 356.859 42.8302 357.989 42.8302 359.469V368.709H39.4102V352.179H42.8302V354.069C43.3902 353.389 44.1002 352.859 44.9602 352.479C45.8402 352.099 46.7702 351.909 47.7502 351.909ZM62.8826 354.969V364.119C62.8826 364.739 63.0226 365.189 63.3026 365.469C63.6026 365.729 64.1026 365.859 64.8026 365.859H66.9026V368.709H64.2026C62.6626 368.709 61.4826 368.349 60.6626 367.629C59.8426 366.909 59.4326 365.739 59.4326 364.119V354.969H57.4826V352.179H59.4326V348.069H62.8826V352.179H66.9026V354.969H62.8826ZM85.2047 360.039C85.2047 360.659 85.1647 361.219 85.0847 361.719H72.4547C72.5547 363.039 73.0447 364.099 73.9247 364.899C74.8047 365.699 75.8847 366.099 77.1647 366.099C79.0047 366.099 80.3047 365.329 81.0647 363.789H84.7547C84.2547 365.309 83.3447 366.559 82.0247 367.539C80.7247 368.499 79.1047 368.979 77.1647 368.979C75.5847 368.979 74.1647 368.629 72.9047 367.929C71.6647 367.209 70.6847 366.209 69.9647 364.929C69.2647 363.629 68.9147 362.129 68.9147 360.429C68.9147 358.729 69.2547 357.239 69.9347 355.959C70.6347 354.659 71.6047 353.659 72.8447 352.959C74.1047 352.259 75.5447 351.909 77.1647 351.909C78.7247 351.909 80.1147 352.249 81.3347 352.929C82.5547 353.609 83.5047 354.569 84.1847 355.809C84.8647 357.029 85.2047 358.439 85.2047 360.039ZM81.6347 358.959C81.6147 357.699 81.1647 356.689 80.2847 355.929C79.4047 355.169 78.3147 354.789 77.0147 354.789C75.8347 354.789 74.8247 355.169 73.9847 355.929C73.1447 356.669 72.6447 357.679 72.4847 358.959H81.6347ZM95.2303 351.909C96.5103 351.909 97.6403 352.169 98.6203 352.689C99.6203 353.189 100.4 353.819 100.96 354.579V352.179H104.41V368.979C104.41 370.499 104.09 371.849 103.45 373.029C102.81 374.229 101.88 375.169 100.66 375.849C99.4603 376.529 98.0203 376.869 96.3403 376.869C94.1003 376.869 92.2403 376.339 90.7603 375.279C89.2803 374.239 88.4403 372.819 88.2403 371.019H91.6303C91.8903 371.879 92.4403 372.569 93.2803 373.089C94.1403 373.629 95.1603 373.899 96.3403 373.899C97.7203 373.899 98.8303 373.479 99.6703 372.639C100.53 371.799 100.96 370.579 100.96 368.979V366.219C100.38 366.999 99.5903 367.659 98.5903 368.199C97.6103 368.719 96.4903 368.979 95.2303 368.979C93.7903 368.979 92.4703 368.619 91.2703 367.899C90.0903 367.159 89.1503 366.139 88.4503 364.839C87.7703 363.519 87.4303 362.029 87.4303 360.369C87.4303 358.709 87.7703 357.239 88.4503 355.959C89.1503 354.679 90.0903 353.689 91.2703 352.989C92.4703 352.269 93.7903 351.909 95.2303 351.909ZM100.96 360.429C100.96 359.289 100.72 358.299 100.24 357.459C99.7803 356.619 99.1703 355.979 98.4103 355.539C97.6503 355.099 96.8303 354.879 95.9503 354.879C95.0703 354.879 94.2503 355.099 93.4903 355.539C92.7303 355.959 92.1103 356.589 91.6303 357.429C91.1703 358.249 90.9403 359.229 90.9403 360.369C90.9403 361.509 91.1703 362.509 91.6303 363.369C92.1103 364.229 92.7303 364.889 93.4903 365.349C94.2703 365.789 95.0903 366.009 95.9503 366.009C96.8303 366.009 97.6503 365.789 98.4103 365.349C99.1703 364.909 99.7803 364.269 100.24 363.429C100.72 362.569 100.96 361.569 100.96 360.429ZM112.322 354.579C112.822 353.739 113.482 353.089 114.302 352.629C115.142 352.149 116.132 351.909 117.272 351.909V355.449H116.402C115.062 355.449 114.042 355.789 113.342 356.469C112.662 357.149 112.322 358.329 112.322 360.009V368.709H108.902V352.179H112.322V354.579ZM119.276 360.369C119.276 358.709 119.616 357.239 120.296 355.959C120.996 354.679 121.936 353.689 123.116 352.989C124.316 352.269 125.636 351.909 127.076 351.909C128.376 351.909 129.506 352.169 130.466 352.689C131.446 353.189 132.226 353.819 132.806 354.579V352.179H136.256V368.709H132.806V366.249C132.226 367.029 131.436 367.679 130.436 368.199C129.436 368.719 128.296 368.979 127.016 368.979C125.596 368.979 124.296 368.619 123.116 367.899C121.936 367.159 120.996 366.139 120.296 364.839C119.616 363.519 119.276 362.029 119.276 360.369ZM132.806 360.429C132.806 359.289 132.566 358.299 132.086 357.459C131.626 356.619 131.016 355.979 130.256 355.539C129.496 355.099 128.676 354.879 127.796 354.879C126.916 354.879 126.096 355.099 125.336 355.539C124.576 355.959 123.956 356.589 123.476 357.429C123.016 358.249 122.786 359.229 122.786 360.369C122.786 361.509 123.016 362.509 123.476 363.369C123.956 364.229 124.576 364.889 125.336 365.349C126.116 365.789 126.936 366.009 127.796 366.009C128.676 366.009 129.496 365.789 130.256 365.349C131.016 364.909 131.626 364.269 132.086 363.429C132.566 362.569 132.806 361.569 132.806 360.429ZM144.738 354.969V364.119C144.738 364.739 144.878 365.189 145.158 365.469C145.458 365.729 145.958 365.859 146.658 365.859H148.758V368.709H146.058C144.518 368.709 143.338 368.349 142.518 367.629C141.698 366.909 141.288 365.739 141.288 364.119V354.969H139.338V352.179H141.288V348.069H144.738V352.179H148.758V354.969H144.738ZM153.65 349.989C153.03 349.989 152.51 349.779 152.09 349.359C151.67 348.939 151.46 348.419 151.46 347.799C151.46 347.179 151.67 346.659 152.09 346.239C152.51 345.819 153.03 345.609 153.65 345.609C154.25 345.609 154.76 345.819 155.18 346.239C155.6 346.659 155.81 347.179 155.81 347.799C155.81 348.419 155.6 348.939 155.18 349.359C154.76 349.779 154.25 349.989 153.65 349.989ZM155.33 352.179V368.709H151.91V352.179H155.33ZM166.99 368.979C165.43 368.979 164.02 368.629 162.76 367.929C161.5 367.209 160.51 366.209 159.79 364.929C159.07 363.629 158.71 362.129 158.71 360.429C158.71 358.749 159.08 357.259 159.82 355.959C160.56 354.659 161.57 353.659 162.85 352.959C164.13 352.259 165.56 351.909 167.14 351.909C168.72 351.909 170.15 352.259 171.43 352.959C172.71 353.659 173.72 354.659 174.46 355.959C175.2 357.259 175.57 358.749 175.57 360.429C175.57 362.109 175.19 363.599 174.43 364.899C173.67 366.199 172.63 367.209 171.31 367.929C170.01 368.629 168.57 368.979 166.99 368.979ZM166.99 366.009C167.87 366.009 168.69 365.799 169.45 365.379C170.23 364.959 170.86 364.329 171.34 363.489C171.82 362.649 172.06 361.629 172.06 360.429C172.06 359.229 171.83 358.219 171.37 357.399C170.91 356.559 170.3 355.929 169.54 355.509C168.78 355.089 167.96 354.879 167.08 354.879C166.2 354.879 165.38 355.089 164.62 355.509C163.88 355.929 163.29 356.559 162.85 357.399C162.41 358.219 162.19 359.229 162.19 360.429C162.19 362.209 162.64 363.589 163.54 364.569C164.46 365.529 165.61 366.009 166.99 366.009ZM187.291 351.909C188.591 351.909 189.751 352.179 190.771 352.719C191.811 353.259 192.621 354.059 193.201 355.119C193.781 356.179 194.071 357.459 194.071 358.959V368.709H190.681V359.469C190.681 357.989 190.311 356.859 189.571 356.079C188.831 355.279 187.821 354.879 186.541 354.879C185.261 354.879 184.241 355.279 183.481 356.079C182.741 356.859 182.371 357.989 182.371 359.469V368.709H178.951V352.179H182.371V354.069C182.931 353.389 183.641 352.859 184.501 352.479C185.381 352.099 186.311 351.909 187.291 351.909Z" fill="white"/>
<path d="M32.826 412.293C32.274 412.293 31.778 412.197 31.338 412.005C30.906 411.805 30.566 411.533 30.318 411.189C30.07 410.837 29.942 410.433 29.934 409.977H31.098C31.138 410.369 31.298 410.701 31.578 410.973C31.866 411.237 32.282 411.369 32.826 411.369C33.346 411.369 33.754 411.241 34.05 410.985C34.354 410.721 34.506 410.385 34.506 409.977C34.506 409.657 34.418 409.397 34.242 409.197C34.066 408.997 33.846 408.845 33.582 408.741C33.318 408.637 32.962 408.525 32.514 408.405C31.962 408.261 31.518 408.117 31.182 407.973C30.854 407.829 30.57 407.605 30.33 407.301C30.098 406.989 29.982 406.573 29.982 406.053C29.982 405.597 30.098 405.193 30.33 404.841C30.562 404.489 30.886 404.217 31.302 404.025C31.726 403.833 32.21 403.737 32.754 403.737C33.538 403.737 34.178 403.933 34.674 404.325C35.178 404.717 35.462 405.237 35.526 405.885H34.326C34.286 405.565 34.118 405.285 33.822 405.045C33.526 404.797 33.134 404.673 32.646 404.673C32.19 404.673 31.818 404.793 31.53 405.033C31.242 405.265 31.098 405.593 31.098 406.017C31.098 406.321 31.182 406.569 31.35 406.761C31.526 406.953 31.738 407.101 31.986 407.205C32.242 407.301 32.598 407.413 33.054 407.541C33.606 407.693 34.05 407.845 34.386 407.997C34.722 408.141 35.01 408.369 35.25 408.681C35.49 408.985 35.61 409.401 35.61 409.929C35.61 410.337 35.502 410.721 35.286 411.081C35.07 411.441 34.75 411.733 34.326 411.957C33.902 412.181 33.402 412.293 32.826 412.293ZM43.217 408.669C43.217 408.877 43.205 409.097 43.181 409.329H37.925C37.965 409.977 38.185 410.485 38.585 410.853C38.993 411.213 39.485 411.393 40.061 411.393C40.533 411.393 40.925 411.285 41.237 411.069C41.557 410.845 41.781 410.549 41.909 410.181H43.085C42.909 410.813 42.557 411.329 42.029 411.729C41.501 412.121 40.845 412.317 40.061 412.317C39.437 412.317 38.877 412.177 38.381 411.897C37.893 411.617 37.509 411.221 37.229 410.709C36.949 410.189 36.809 409.589 36.809 408.909C36.809 408.229 36.945 407.633 37.217 407.121C37.489 406.609 37.869 406.217 38.357 405.945C38.853 405.665 39.421 405.525 40.061 405.525C40.685 405.525 41.237 405.661 41.717 405.933C42.197 406.205 42.565 406.581 42.821 407.061C43.085 407.533 43.217 408.069 43.217 408.669ZM42.089 408.441C42.089 408.025 41.997 407.669 41.813 407.373C41.629 407.069 41.377 406.841 41.057 406.689C40.745 406.529 40.397 406.449 40.013 406.449C39.461 406.449 38.989 406.625 38.597 406.977C38.213 407.329 37.993 407.817 37.937 408.441H42.089ZM44.2504 408.897C44.2504 408.225 44.3864 407.637 44.6584 407.133C44.9304 406.621 45.3024 406.225 45.7744 405.945C46.2544 405.665 46.7864 405.525 47.3704 405.525C47.9464 405.525 48.4464 405.649 48.8704 405.897C49.2944 406.145 49.6104 406.457 49.8184 406.833V405.633H50.9224V412.209H49.8184V410.985C49.6024 411.369 49.2784 411.689 48.8464 411.945C48.4224 412.193 47.9264 412.317 47.3584 412.317C46.7744 412.317 46.2464 412.173 45.7744 411.885C45.3024 411.597 44.9304 411.193 44.6584 410.673C44.3864 410.153 44.2504 409.561 44.2504 408.897ZM49.8184 408.909C49.8184 408.413 49.7184 407.981 49.5184 407.613C49.3184 407.245 49.0464 406.965 48.7024 406.773C48.3664 406.573 47.9944 406.473 47.5864 406.473C47.1784 406.473 46.8064 406.569 46.4704 406.761C46.1344 406.953 45.8664 407.233 45.6664 407.601C45.4664 407.969 45.3664 408.401 45.3664 408.897C45.3664 409.401 45.4664 409.841 45.6664 410.217C45.8664 410.585 46.1344 410.869 46.4704 411.069C46.8064 411.261 47.1784 411.357 47.5864 411.357C47.9944 411.357 48.3664 411.261 48.7024 411.069C49.0464 410.869 49.3184 410.585 49.5184 410.217C49.7184 409.841 49.8184 409.405 49.8184 408.909ZM60.6758 405.513C61.1878 405.513 61.6438 405.621 62.0438 405.837C62.4438 406.045 62.7598 406.361 62.9918 406.785C63.2238 407.209 63.3398 407.725 63.3398 408.333V412.209H62.2598V408.489C62.2598 407.833 62.0958 407.333 61.7678 406.989C61.4478 406.637 61.0118 406.461 60.4598 406.461C59.8918 406.461 59.4398 406.645 59.1038 407.013C58.7678 407.373 58.5998 407.897 58.5998 408.585V412.209H57.5198V408.489C57.5198 407.833 57.3558 407.333 57.0278 406.989C56.7078 406.637 56.2718 406.461 55.7198 406.461C55.1518 406.461 54.6998 406.645 54.3638 407.013C54.0278 407.373 53.8598 407.897 53.8598 408.585V412.209H52.7678V405.633H53.8598V406.581C54.0758 406.237 54.3638 405.973 54.7238 405.789C55.0918 405.605 55.4958 405.513 55.9358 405.513C56.4878 405.513 56.9758 405.637 57.3998 405.885C57.8238 406.133 58.1398 406.497 58.3478 406.977C58.5318 406.513 58.8358 406.153 59.2598 405.897C59.6838 405.641 60.1558 405.513 60.6758 405.513ZM66.223 403.329V412.209H65.131V403.329H66.223ZM74.0842 408.669C74.0842 408.877 74.0722 409.097 74.0482 409.329H68.7922C68.8322 409.977 69.0522 410.485 69.4522 410.853C69.8602 411.213 70.3522 411.393 70.9282 411.393C71.4002 411.393 71.7922 411.285 72.1042 411.069C72.4242 410.845 72.6482 410.549 72.7762 410.181H73.9522C73.7762 410.813 73.4242 411.329 72.8962 411.729C72.3682 412.121 71.7122 412.317 70.9282 412.317C70.3042 412.317 69.7442 412.177 69.2482 411.897C68.7602 411.617 68.3762 411.221 68.0962 410.709C67.8162 410.189 67.6762 409.589 67.6762 408.909C67.6762 408.229 67.8122 407.633 68.0842 407.121C68.3562 406.609 68.7362 406.217 69.2242 405.945C69.7202 405.665 70.2882 405.525 70.9282 405.525C71.5522 405.525 72.1042 405.661 72.5842 405.933C73.0642 406.205 73.4322 406.581 73.6882 407.061C73.9522 407.533 74.0842 408.069 74.0842 408.669ZM72.9562 408.441C72.9562 408.025 72.8642 407.669 72.6802 407.373C72.4962 407.069 72.2442 406.841 71.9242 406.689C71.6122 406.529 71.2642 406.449 70.8802 406.449C70.3282 406.449 69.8562 406.625 69.4642 406.977C69.0802 407.329 68.8602 407.817 68.8042 408.441H72.9562ZM77.8536 412.317C77.3496 412.317 76.8976 412.233 76.4976 412.065C76.0976 411.889 75.7816 411.649 75.5496 411.345C75.3176 411.033 75.1896 410.677 75.1656 410.277H76.2936C76.3256 410.605 76.4776 410.873 76.7496 411.081C77.0296 411.289 77.3936 411.393 77.8416 411.393C78.2576 411.393 78.5856 411.301 78.8256 411.117C79.0656 410.933 79.1856 410.701 79.1856 410.421C79.1856 410.133 79.0576 409.921 78.8016 409.785C78.5456 409.641 78.1496 409.501 77.6136 409.365C77.1256 409.237 76.7256 409.109 76.4136 408.981C76.1096 408.845 75.8456 408.649 75.6216 408.393C75.4056 408.129 75.2976 407.785 75.2976 407.361C75.2976 407.025 75.3976 406.717 75.5976 406.437C75.7976 406.157 76.0816 405.937 76.4496 405.777C76.8176 405.609 77.2376 405.525 77.7096 405.525C78.4376 405.525 79.0256 405.709 79.4736 406.077C79.9216 406.445 80.1616 406.949 80.1936 407.589H79.1016C79.0776 407.245 78.9376 406.969 78.6816 406.761C78.4336 406.553 78.0976 406.449 77.6736 406.449C77.2816 406.449 76.9696 406.533 76.7376 406.701C76.5056 406.869 76.3896 407.089 76.3896 407.361C76.3896 407.577 76.4576 407.757 76.5936 407.901C76.7376 408.037 76.9136 408.149 77.1216 408.237C77.3376 408.317 77.6336 408.409 78.0096 408.513C78.4816 408.641 78.8656 408.769 79.1616 408.897C79.4576 409.017 79.7096 409.201 79.9176 409.449C80.1336 409.697 80.2456 410.021 80.2536 410.421C80.2536 410.781 80.1536 411.105 79.9536 411.393C79.7536 411.681 79.4696 411.909 79.1016 412.077C78.7416 412.237 78.3256 412.317 77.8536 412.317ZM84.1231 412.317C83.6191 412.317 83.1671 412.233 82.7671 412.065C82.3671 411.889 82.0511 411.649 81.8191 411.345C81.5871 411.033 81.4591 410.677 81.4351 410.277H82.5631C82.5951 410.605 82.7471 410.873 83.0191 411.081C83.2991 411.289 83.6631 411.393 84.1111 411.393C84.5271 411.393 84.8551 411.301 85.0951 411.117C85.3351 410.933 85.4551 410.701 85.4551 410.421C85.4551 410.133 85.3271 409.921 85.0711 409.785C84.8151 409.641 84.4191 409.501 83.8831 409.365C83.3951 409.237 82.9951 409.109 82.6831 408.981C82.3791 408.845 82.1151 408.649 81.8911 408.393C81.6751 408.129 81.5671 407.785 81.5671 407.361C81.5671 407.025 81.6671 406.717 81.8671 406.437C82.0671 406.157 82.3511 405.937 82.7191 405.777C83.0871 405.609 83.5071 405.525 83.9791 405.525C84.7071 405.525 85.2951 405.709 85.7431 406.077C86.1911 406.445 86.4311 406.949 86.4631 407.589H85.3711C85.3471 407.245 85.2071 406.969 84.9511 406.761C84.7031 406.553 84.3671 406.449 83.9431 406.449C83.5511 406.449 83.2391 406.533 83.0071 406.701C82.7751 406.869 82.6591 407.089 82.6591 407.361C82.6591 407.577 82.7271 407.757 82.8631 407.901C83.0071 408.037 83.1831 408.149 83.3911 408.237C83.6071 408.317 83.9031 408.409 84.2791 408.513C84.7511 408.641 85.1351 408.769 85.4311 408.897C85.7271 409.017 85.9791 409.201 86.1871 409.449C86.4031 409.697 86.5151 410.021 86.5231 410.421C86.5231 410.781 86.4231 411.105 86.2231 411.393C86.0231 411.681 85.7391 411.909 85.3711 412.077C85.0111 412.237 84.5951 412.317 84.1231 412.317ZM89.1566 403.329V412.209H88.0646V403.329H89.1566ZM96.6818 405.633L92.7218 415.305H91.5938L92.8898 412.137L90.2378 405.633H91.4498L93.5138 410.961L95.5538 405.633H96.6818ZM106.979 408.669C106.979 408.877 106.967 409.097 106.943 409.329H101.687C101.727 409.977 101.947 410.485 102.347 410.853C102.755 411.213 103.247 411.393 103.823 411.393C104.295 411.393 104.687 411.285 104.999 411.069C105.319 410.845 105.543 410.549 105.671 410.181H106.847C106.671 410.813 106.319 411.329 105.791 411.729C105.263 412.121 104.607 412.317 103.823 412.317C103.199 412.317 102.639 412.177 102.143 411.897C101.655 411.617 101.271 411.221 100.991 410.709C100.711 410.189 100.571 409.589 100.571 408.909C100.571 408.229 100.707 407.633 100.979 407.121C101.251 406.609 101.631 406.217 102.119 405.945C102.615 405.665 103.183 405.525 103.823 405.525C104.447 405.525 104.999 405.661 105.479 405.933C105.959 406.205 106.327 406.581 106.583 407.061C106.847 407.533 106.979 408.069 106.979 408.669ZM105.851 408.441C105.851 408.025 105.759 407.669 105.575 407.373C105.391 407.069 105.139 406.841 104.819 406.689C104.507 406.529 104.159 406.449 103.775 406.449C103.223 406.449 102.751 406.625 102.359 406.977C101.975 407.329 101.755 407.817 101.699 408.441H105.851ZM111.624 405.513C112.424 405.513 113.072 405.757 113.568 406.245C114.064 406.725 114.312 407.421 114.312 408.333V412.209H113.232V408.489C113.232 407.833 113.068 407.333 112.74 406.989C112.412 406.637 111.964 406.461 111.396 406.461C110.82 406.461 110.36 406.641 110.016 407.001C109.68 407.361 109.512 407.885 109.512 408.573V412.209H108.42V405.633H109.512V406.569C109.728 406.233 110.02 405.973 110.388 405.789C110.764 405.605 111.176 405.513 111.624 405.513ZM117.428 406.533V410.409C117.428 410.729 117.496 410.957 117.632 411.093C117.768 411.221 118.004 411.285 118.34 411.285H119.144V412.209H118.16C117.552 412.209 117.096 412.069 116.792 411.789C116.488 411.509 116.336 411.049 116.336 410.409V406.533H115.484V405.633H116.336V403.977H117.428V405.633H119.144V406.533H117.428ZM126.467 408.669C126.467 408.877 126.455 409.097 126.431 409.329H121.175C121.215 409.977 121.435 410.485 121.835 410.853C122.243 411.213 122.735 411.393 123.311 411.393C123.783 411.393 124.175 411.285 124.487 411.069C124.807 410.845 125.031 410.549 125.159 410.181H126.335C126.159 410.813 125.807 411.329 125.279 411.729C124.751 412.121 124.095 412.317 123.311 412.317C122.687 412.317 122.127 412.177 121.631 411.897C121.143 411.617 120.759 411.221 120.479 410.709C120.199 410.189 120.059 409.589 120.059 408.909C120.059 408.229 120.195 407.633 120.467 407.121C120.739 406.609 121.119 406.217 121.607 405.945C122.103 405.665 122.671 405.525 123.311 405.525C123.935 405.525 124.487 405.661 124.967 405.933C125.447 406.205 125.815 406.581 126.071 407.061C126.335 407.533 126.467 408.069 126.467 408.669ZM125.339 408.441C125.339 408.025 125.247 407.669 125.063 407.373C124.879 407.069 124.627 406.841 124.307 406.689C123.995 406.529 123.647 406.449 123.263 406.449C122.711 406.449 122.239 406.625 121.847 406.977C121.463 407.329 121.243 407.817 121.187 408.441H125.339ZM129 406.701C129.192 406.325 129.464 406.033 129.816 405.825C130.176 405.617 130.612 405.513 131.124 405.513V406.641H130.836C129.612 406.641 129 407.305 129 408.633V412.209H127.908V405.633H129V406.701ZM136.916 406.533V410.409C136.916 410.729 136.984 410.957 137.12 411.093C137.256 411.221 137.492 411.285 137.828 411.285H138.632V412.209H137.648C137.04 412.209 136.584 412.069 136.28 411.789C135.976 411.509 135.824 411.049 135.824 410.409V406.533H134.972V405.633H135.824V403.977H136.916V405.633H138.632V406.533H136.916ZM143.219 405.513C143.715 405.513 144.163 405.621 144.563 405.837C144.963 406.045 145.275 406.361 145.499 406.785C145.731 407.209 145.847 407.725 145.847 408.333V412.209H144.767V408.489C144.767 407.833 144.603 407.333 144.275 406.989C143.947 406.637 143.499 406.461 142.931 406.461C142.355 406.461 141.895 406.641 141.551 407.001C141.215 407.361 141.047 407.885 141.047 408.573V412.209H139.955V403.329H141.047V406.569C141.263 406.233 141.559 405.973 141.935 405.789C142.319 405.605 142.747 405.513 143.219 405.513ZM153.631 408.669C153.631 408.877 153.619 409.097 153.595 409.329H148.339C148.379 409.977 148.599 410.485 148.999 410.853C149.407 411.213 149.899 411.393 150.475 411.393C150.947 411.393 151.339 411.285 151.651 411.069C151.971 410.845 152.195 410.549 152.323 410.181H153.499C153.323 410.813 152.971 411.329 152.443 411.729C151.915 412.121 151.259 412.317 150.475 412.317C149.851 412.317 149.291 412.177 148.795 411.897C148.307 411.617 147.923 411.221 147.643 410.709C147.363 410.189 147.223 409.589 147.223 408.909C147.223 408.229 147.359 407.633 147.631 407.121C147.903 406.609 148.283 406.217 148.771 405.945C149.267 405.665 149.835 405.525 150.475 405.525C151.099 405.525 151.651 405.661 152.131 405.933C152.611 406.205 152.979 406.581 153.235 407.061C153.499 407.533 153.631 408.069 153.631 408.669ZM152.503 408.441C152.503 408.025 152.411 407.669 152.227 407.373C152.043 407.069 151.791 406.841 151.471 406.689C151.159 406.529 150.811 406.449 150.427 406.449C149.875 406.449 149.403 406.625 149.011 406.977C148.627 407.329 148.407 407.817 148.351 408.441H152.503ZM166.756 403.905V412.209H165.664V406.017L162.904 412.209H162.136L159.364 406.005V412.209H158.272V403.905H159.448L162.52 410.769L165.592 403.905H166.756ZM174.608 408.669C174.608 408.877 174.596 409.097 174.572 409.329H169.316C169.356 409.977 169.576 410.485 169.976 410.853C170.384 411.213 170.876 411.393 171.452 411.393C171.924 411.393 172.316 411.285 172.628 411.069C172.948 410.845 173.172 410.549 173.3 410.181H174.476C174.3 410.813 173.948 411.329 173.42 411.729C172.892 412.121 172.236 412.317 171.452 412.317C170.828 412.317 170.268 412.177 169.772 411.897C169.284 411.617 168.9 411.221 168.62 410.709C168.34 410.189 168.2 409.589 168.2 408.909C168.2 408.229 168.336 407.633 168.608 407.121C168.88 406.609 169.26 406.217 169.748 405.945C170.244 405.665 170.812 405.525 171.452 405.525C172.076 405.525 172.628 405.661 173.108 405.933C173.588 406.205 173.956 406.581 174.212 407.061C174.476 407.533 174.608 408.069 174.608 408.669ZM173.48 408.441C173.48 408.025 173.388 407.669 173.204 407.373C173.02 407.069 172.768 406.841 172.448 406.689C172.136 406.529 171.788 406.449 171.404 406.449C170.852 406.449 170.38 406.625 169.988 406.977C169.604 407.329 169.384 407.817 169.328 408.441H173.48ZM177.381 406.533V410.409C177.381 410.729 177.449 410.957 177.585 411.093C177.721 411.221 177.957 411.285 178.293 411.285H179.097V412.209H178.113C177.505 412.209 177.049 412.069 176.745 411.789C176.441 411.509 176.289 411.049 176.289 410.409V406.533H175.437V405.633H176.289V403.977H177.381V405.633H179.097V406.533H177.381ZM180.012 408.897C180.012 408.225 180.148 407.637 180.42 407.133C180.692 406.621 181.064 406.225 181.536 405.945C182.016 405.665 182.548 405.525 183.132 405.525C183.708 405.525 184.208 405.649 184.632 405.897C185.056 406.145 185.372 406.457 185.58 406.833V405.633H186.684V412.209H185.58V410.985C185.364 411.369 185.04 411.689 184.608 411.945C184.184 412.193 183.688 412.317 183.12 412.317C182.536 412.317 182.008 412.173 181.536 411.885C181.064 411.597 180.692 411.193 180.42 410.673C180.148 410.153 180.012 409.561 180.012 408.897ZM185.58 408.909C185.58 408.413 185.48 407.981 185.28 407.613C185.08 407.245 184.808 406.965 184.464 406.773C184.128 406.573 183.756 406.473 183.348 406.473C182.94 406.473 182.568 406.569 182.232 406.761C181.896 406.953 181.628 407.233 181.428 407.601C181.228 407.969 181.128 408.401 181.128 408.897C181.128 409.401 181.228 409.841 181.428 410.217C181.628 410.585 181.896 410.869 182.232 411.069C182.568 411.261 182.94 411.357 183.348 411.357C183.756 411.357 184.128 411.261 184.464 411.069C184.808 410.869 185.08 410.585 185.28 410.217C185.48 409.841 185.58 409.405 185.58 408.909ZM190.977 411.201L193.017 405.633H194.181L191.601 412.209H190.329L187.749 405.633H188.925L190.977 411.201ZM201.256 408.669C201.256 408.877 201.244 409.097 201.22 409.329H195.964C196.004 409.977 196.224 410.485 196.624 410.853C197.032 411.213 197.524 411.393 198.1 411.393C198.572 411.393 198.964 411.285 199.276 411.069C199.596 410.845 199.82 410.549 199.948 410.181H201.124C200.948 410.813 200.596 411.329 200.068 411.729C199.54 412.121 198.884 412.317 198.1 412.317C197.476 412.317 196.916 412.177 196.42 411.897C195.932 411.617 195.548 411.221 195.268 410.709C194.988 410.189 194.848 409.589 194.848 408.909C194.848 408.229 194.984 407.633 195.256 407.121C195.528 406.609 195.908 406.217 196.396 405.945C196.892 405.665 197.46 405.525 198.1 405.525C198.724 405.525 199.276 405.661 199.756 405.933C200.236 406.205 200.604 406.581 200.86 407.061C201.124 407.533 201.256 408.069 201.256 408.669ZM200.128 408.441C200.128 408.025 200.036 407.669 199.852 407.373C199.668 407.069 199.416 406.841 199.096 406.689C198.784 406.529 198.436 406.449 198.052 406.449C197.5 406.449 197.028 406.625 196.636 406.977C196.252 407.329 196.032 407.817 195.976 408.441H200.128ZM203.789 406.701C203.981 406.325 204.253 406.033 204.605 405.825C204.965 405.617 205.401 405.513 205.913 405.513V406.641H205.625C204.401 406.641 203.789 407.305 203.789 408.633V412.209H202.697V405.633H203.789V406.701ZM209.502 412.317C208.998 412.317 208.546 412.233 208.146 412.065C207.746 411.889 207.43 411.649 207.198 411.345C206.966 411.033 206.838 410.677 206.814 410.277H207.942C207.974 410.605 208.126 410.873 208.398 411.081C208.678 411.289 209.042 411.393 209.49 411.393C209.906 411.393 210.234 411.301 210.474 411.117C210.714 410.933 210.834 410.701 210.834 410.421C210.834 410.133 210.706 409.921 210.45 409.785C210.194 409.641 209.798 409.501 209.262 409.365C208.774 409.237 208.374 409.109 208.062 408.981C207.758 408.845 207.494 408.649 207.27 408.393C207.054 408.129 206.946 407.785 206.946 407.361C206.946 407.025 207.046 406.717 207.246 406.437C207.446 406.157 207.73 405.937 208.098 405.777C208.466 405.609 208.886 405.525 209.358 405.525C210.086 405.525 210.674 405.709 211.122 406.077C211.57 406.445 211.81 406.949 211.842 407.589H210.75C210.726 407.245 210.586 406.969 210.33 406.761C210.082 406.553 209.746 406.449 209.322 406.449C208.93 406.449 208.618 406.533 208.386 406.701C208.154 406.869 208.038 407.089 208.038 407.361C208.038 407.577 208.106 407.757 208.242 407.901C208.386 408.037 208.562 408.149 208.77 408.237C208.986 408.317 209.282 408.409 209.658 408.513C210.13 408.641 210.514 408.769 210.81 408.897C211.106 409.017 211.358 409.201 211.566 409.449C211.782 409.697 211.894 410.021 211.902 410.421C211.902 410.781 211.802 411.105 211.602 411.393C211.402 411.681 211.118 411.909 210.75 412.077C210.39 412.237 209.974 412.317 209.502 412.317ZM219.444 408.669C219.444 408.877 219.432 409.097 219.408 409.329H214.152C214.192 409.977 214.412 410.485 214.812 410.853C215.22 411.213 215.712 411.393 216.288 411.393C216.76 411.393 217.152 411.285 217.464 411.069C217.784 410.845 218.008 410.549 218.136 410.181H219.312C219.136 410.813 218.784 411.329 218.256 411.729C217.728 412.121 217.072 412.317 216.288 412.317C215.664 412.317 215.104 412.177 214.608 411.897C214.12 411.617 213.736 411.221 213.456 410.709C213.176 410.189 213.036 409.589 213.036 408.909C213.036 408.229 213.172 407.633 213.444 407.121C213.716 406.609 214.096 406.217 214.584 405.945C215.08 405.665 215.648 405.525 216.288 405.525C216.912 405.525 217.464 405.661 217.944 405.933C218.424 406.205 218.792 406.581 219.048 407.061C219.312 407.533 219.444 408.069 219.444 408.669ZM218.316 408.441C218.316 408.025 218.224 407.669 218.04 407.373C217.856 407.069 217.604 406.841 217.284 406.689C216.972 406.529 216.624 406.449 216.24 406.449C215.688 406.449 215.216 406.625 214.824 406.977C214.44 407.329 214.22 407.817 214.164 408.441H218.316ZM226.76 406.533H225.38V412.209H224.288V406.533H223.436V405.633H224.288V405.165C224.288 404.429 224.476 403.893 224.852 403.557C225.236 403.213 225.848 403.041 226.688 403.041V403.953C226.208 403.953 225.868 404.049 225.668 404.241C225.476 404.425 225.38 404.733 225.38 405.165V405.633H226.76V406.533ZM229.125 406.701C229.317 406.325 229.589 406.033 229.941 405.825C230.301 405.617 230.737 405.513 231.249 405.513V406.641H230.961C229.737 406.641 229.125 407.305 229.125 408.633V412.209H228.033V405.633H229.125V406.701ZM235.378 412.317C234.762 412.317 234.202 412.177 233.698 411.897C233.202 411.617 232.81 411.221 232.522 410.709C232.242 410.189 232.102 409.589 232.102 408.909C232.102 408.237 232.246 407.645 232.534 407.133C232.83 406.613 233.23 406.217 233.734 405.945C234.238 405.665 234.802 405.525 235.426 405.525C236.05 405.525 236.614 405.665 237.118 405.945C237.622 406.217 238.018 406.609 238.306 407.121C238.602 407.633 238.75 408.229 238.75 408.909C238.75 409.589 238.598 410.189 238.294 410.709C237.998 411.221 237.594 411.617 237.082 411.897C236.57 412.177 236.002 412.317 235.378 412.317ZM235.378 411.357C235.77 411.357 236.138 411.265 236.482 411.081C236.826 410.897 237.102 410.621 237.31 410.253C237.526 409.885 237.634 409.437 237.634 408.909C237.634 408.381 237.53 407.933 237.322 407.565C237.114 407.197 236.842 406.925 236.506 406.749C236.17 406.565 235.806 406.473 235.414 406.473C235.014 406.473 234.646 406.565 234.31 406.749C233.982 406.925 233.718 407.197 233.518 407.565C233.318 407.933 233.218 408.381 233.218 408.909C233.218 409.445 233.314 409.897 233.506 410.265C233.706 410.633 233.97 410.909 234.298 411.093C234.626 411.269 234.986 411.357 235.378 411.357ZM248.094 405.513C248.606 405.513 249.062 405.621 249.462 405.837C249.862 406.045 250.178 406.361 250.41 406.785C250.642 407.209 250.758 407.725 250.758 408.333V412.209H249.678V408.489C249.678 407.833 249.514 407.333 249.186 406.989C248.866 406.637 248.43 406.461 247.878 406.461C247.31 406.461 246.858 406.645 246.522 407.013C246.186 407.373 246.018 407.897 246.018 408.585V412.209H244.938V408.489C244.938 407.833 244.774 407.333 244.446 406.989C244.126 406.637 243.69 406.461 243.138 406.461C242.57 406.461 242.118 406.645 241.782 407.013C241.446 407.373 241.278 407.897 241.278 408.585V412.209H240.186V405.633H241.278V406.581C241.494 406.237 241.782 405.973 242.142 405.789C242.51 405.605 242.914 405.513 243.354 405.513C243.906 405.513 244.394 405.637 244.818 405.885C245.242 406.133 245.558 406.497 245.766 406.977C245.95 406.513 246.254 406.153 246.678 405.897C247.102 405.641 247.574 405.513 248.094 405.513ZM29.766 426.897C29.766 426.225 29.902 425.637 30.174 425.133C30.446 424.621 30.818 424.225 31.29 423.945C31.77 423.665 32.302 423.525 32.886 423.525C33.462 423.525 33.962 423.649 34.386 423.897C34.81 424.145 35.126 424.457 35.334 424.833V423.633H36.438V430.209H35.334V428.985C35.118 429.369 34.794 429.689 34.362 429.945C33.938 430.193 33.442 430.317 32.874 430.317C32.29 430.317 31.762 430.173 31.29 429.885C30.818 429.597 30.446 429.193 30.174 428.673C29.902 428.153 29.766 427.561 29.766 426.897ZM35.334 426.909C35.334 426.413 35.234 425.981 35.034 425.613C34.834 425.245 34.562 424.965 34.218 424.773C33.882 424.573 33.51 424.473 33.102 424.473C32.694 424.473 32.322 424.569 31.986 424.761C31.65 424.953 31.382 425.233 31.182 425.601C30.982 425.969 30.882 426.401 30.882 426.897C30.882 427.401 30.982 427.841 31.182 428.217C31.382 428.585 31.65 428.869 31.986 429.069C32.322 429.261 32.694 429.357 33.102 429.357C33.51 429.357 33.882 429.261 34.218 429.069C34.562 428.869 34.834 428.585 35.034 428.217C35.234 427.841 35.334 427.405 35.334 426.909ZM41.4874 423.513C42.2874 423.513 42.9354 423.757 43.4314 424.245C43.9274 424.725 44.1754 425.421 44.1754 426.333V430.209H43.0954V426.489C43.0954 425.833 42.9314 425.333 42.6034 424.989C42.2754 424.637 41.8274 424.461 41.2594 424.461C40.6834 424.461 40.2234 424.641 39.8794 425.001C39.5434 425.361 39.3754 425.885 39.3754 426.573V430.209H38.2834V423.633H39.3754V424.569C39.5914 424.233 39.8834 423.973 40.2514 423.789C40.6274 423.605 41.0394 423.513 41.4874 423.513ZM51.6232 423.633L47.6632 433.305H46.5352L47.8312 430.137L45.1792 423.633H46.3912L48.4552 428.961L50.4952 423.633H51.6232ZM55.5121 426.897C55.5121 426.225 55.6481 425.637 55.9201 425.133C56.1921 424.621 56.5641 424.225 57.0361 423.945C57.5161 423.665 58.0521 423.525 58.6441 423.525C59.1561 423.525 59.6321 423.645 60.0721 423.885C60.5121 424.117 60.8481 424.425 61.0801 424.809V421.329H62.1841V430.209H61.0801V428.973C60.8641 429.365 60.5441 429.689 60.1201 429.945C59.6961 430.193 59.2001 430.317 58.6321 430.317C58.0481 430.317 57.5161 430.173 57.0361 429.885C56.5641 429.597 56.1921 429.193 55.9201 428.673C55.6481 428.153 55.5121 427.561 55.5121 426.897ZM61.0801 426.909C61.0801 426.413 60.9801 425.981 60.7801 425.613C60.5801 425.245 60.3081 424.965 59.9641 424.773C59.6281 424.573 59.2561 424.473 58.8481 424.473C58.4401 424.473 58.0681 424.569 57.7321 424.761C57.3961 424.953 57.1281 425.233 56.9281 425.601C56.7281 425.969 56.6281 426.401 56.6281 426.897C56.6281 427.401 56.7281 427.841 56.9281 428.217C57.1281 428.585 57.3961 428.869 57.7321 429.069C58.0681 429.261 58.4401 429.357 58.8481 429.357C59.2561 429.357 59.6281 429.261 59.9641 429.069C60.3081 428.869 60.5801 428.585 60.7801 428.217C60.9801 427.841 61.0801 427.405 61.0801 426.909ZM70.0295 426.669C70.0295 426.877 70.0175 427.097 69.9935 427.329H64.7375C64.7775 427.977 64.9975 428.485 65.3975 428.853C65.8055 429.213 66.2975 429.393 66.8735 429.393C67.3455 429.393 67.7375 429.285 68.0495 429.069C68.3695 428.845 68.5935 428.549 68.7215 428.181H69.8975C69.7215 428.813 69.3695 429.329 68.8415 429.729C68.3135 430.121 67.6575 430.317 66.8735 430.317C66.2495 430.317 65.6895 430.177 65.1935 429.897C64.7055 429.617 64.3215 429.221 64.0415 428.709C63.7615 428.189 63.6215 427.589 63.6215 426.909C63.6215 426.229 63.7575 425.633 64.0295 425.121C64.3015 424.609 64.6815 424.217 65.1695 423.945C65.6655 423.665 66.2335 423.525 66.8735 423.525C67.4975 423.525 68.0495 423.661 68.5295 423.933C69.0095 424.205 69.3775 424.581 69.6335 425.061C69.8975 425.533 70.0295 426.069 70.0295 426.669ZM68.9015 426.441C68.9015 426.025 68.8095 425.669 68.6255 425.373C68.4415 425.069 68.1895 424.841 67.8695 424.689C67.5575 424.529 67.2095 424.449 66.8255 424.449C66.2735 424.449 65.8015 424.625 65.4095 424.977C65.0255 425.329 64.8055 425.817 64.7495 426.441H68.9015ZM73.9189 429.201L75.9589 423.633H77.1229L74.5429 430.209H73.2709L70.6909 423.633H71.8669L73.9189 429.201ZM78.7614 422.565C78.5534 422.565 78.3774 422.493 78.2334 422.349C78.0894 422.205 78.0174 422.029 78.0174 421.821C78.0174 421.613 78.0894 421.437 78.2334 421.293C78.3774 421.149 78.5534 421.077 78.7614 421.077C78.9614 421.077 79.1294 421.149 79.2654 421.293C79.4094 421.437 79.4814 421.613 79.4814 421.821C79.4814 422.029 79.4094 422.205 79.2654 422.349C79.1294 422.493 78.9614 422.565 78.7614 422.565ZM79.2894 423.633V430.209H78.1974V423.633H79.2894ZM80.7426 426.909C80.7426 426.229 80.8786 425.637 81.1506 425.133C81.4226 424.621 81.7986 424.225 82.2786 423.945C82.7666 423.665 83.3226 423.525 83.9466 423.525C84.7546 423.525 85.4186 423.721 85.9386 424.113C86.4666 424.505 86.8146 425.049 86.9826 425.745H85.8066C85.6946 425.345 85.4746 425.029 85.1466 424.797C84.8266 424.565 84.4266 424.449 83.9466 424.449C83.3226 424.449 82.8186 424.665 82.4346 425.097C82.0506 425.521 81.8586 426.125 81.8586 426.909C81.8586 427.701 82.0506 428.313 82.4346 428.745C82.8186 429.177 83.3226 429.393 83.9466 429.393C84.4266 429.393 84.8266 429.281 85.1466 429.057C85.4666 428.833 85.6866 428.513 85.8066 428.097H86.9826C86.8066 428.769 86.4546 429.309 85.9266 429.717C85.3986 430.117 84.7386 430.317 83.9466 430.317C83.3226 430.317 82.7666 430.177 82.2786 429.897C81.7986 429.617 81.4226 429.221 81.1506 428.709C80.8786 428.197 80.7426 427.597 80.7426 426.909ZM94.4396 426.669C94.4396 426.877 94.4276 427.097 94.4036 427.329H89.1476C89.1876 427.977 89.4076 428.485 89.8076 428.853C90.2156 429.213 90.7076 429.393 91.2836 429.393C91.7556 429.393 92.1476 429.285 92.4596 429.069C92.7796 428.845 93.0036 428.549 93.1316 428.181H94.3076C94.1316 428.813 93.7796 429.329 93.2516 429.729C92.7236 430.121 92.0676 430.317 91.2836 430.317C90.6596 430.317 90.0996 430.177 89.6036 429.897C89.1156 429.617 88.7316 429.221 88.4516 428.709C88.1716 428.189 88.0316 427.589 88.0316 426.909C88.0316 426.229 88.1676 425.633 88.4396 425.121C88.7116 424.609 89.0916 424.217 89.5796 423.945C90.0756 423.665 90.6436 423.525 91.2836 423.525C91.9076 423.525 92.4596 423.661 92.9396 423.933C93.4196 424.205 93.7876 424.581 94.0436 425.061C94.3076 425.533 94.4396 426.069 94.4396 426.669ZM93.3116 426.441C93.3116 426.025 93.2196 425.669 93.0356 425.373C92.8516 425.069 92.5996 424.841 92.2796 424.689C91.9676 424.529 91.6196 424.449 91.2356 424.449C90.6836 424.449 90.2116 424.625 89.8196 424.977C89.4356 425.329 89.2156 425.817 89.1596 426.441H93.3116ZM97.009 428.697L95.665 431.925H94.933L95.809 428.697H97.009ZM101.051 426.897C101.051 426.225 101.187 425.637 101.459 425.133C101.731 424.621 102.103 424.225 102.575 423.945C103.055 423.665 103.587 423.525 104.171 423.525C104.747 423.525 105.247 423.649 105.671 423.897C106.095 424.145 106.411 424.457 106.619 424.833V423.633H107.723V430.209H106.619V428.985C106.403 429.369 106.079 429.689 105.647 429.945C105.223 430.193 104.727 430.317 104.159 430.317C103.575 430.317 103.047 430.173 102.575 429.885C102.103 429.597 101.731 429.193 101.459 428.673C101.187 428.153 101.051 427.561 101.051 426.897ZM106.619 426.909C106.619 426.413 106.519 425.981 106.319 425.613C106.119 425.245 105.847 424.965 105.503 424.773C105.167 424.573 104.795 424.473 104.387 424.473C103.979 424.473 103.607 424.569 103.271 424.761C102.935 424.953 102.667 425.233 102.467 425.601C102.267 425.969 102.167 426.401 102.167 426.897C102.167 427.401 102.267 427.841 102.467 428.217C102.667 428.585 102.935 428.869 103.271 429.069C103.607 429.261 103.979 429.357 104.387 429.357C104.795 429.357 105.167 429.261 105.503 429.069C105.847 428.869 106.119 428.585 106.319 428.217C106.519 427.841 106.619 427.405 106.619 426.909ZM112.773 423.513C113.573 423.513 114.221 423.757 114.717 424.245C115.213 424.725 115.461 425.421 115.461 426.333V430.209H114.381V426.489C114.381 425.833 114.217 425.333 113.889 424.989C113.561 424.637 113.113 424.461 112.545 424.461C111.969 424.461 111.509 424.641 111.165 425.001C110.829 425.361 110.661 425.885 110.661 426.573V430.209H109.569V423.633H110.661V424.569C110.877 424.233 111.169 423.973 111.537 423.789C111.913 423.605 112.325 423.513 112.773 423.513ZM122.908 423.633L118.948 433.305H117.82L119.116 430.137L116.464 423.633H117.676L119.74 428.961L121.78 423.633H122.908ZM132.766 423.633L130.714 430.209H129.586L128.002 424.989L126.418 430.209H125.29L123.226 423.633H124.342L125.854 429.153L127.486 423.633H128.602L130.198 429.165L131.686 423.633H132.766ZM137.114 423.513C137.61 423.513 138.058 423.621 138.458 423.837C138.858 424.045 139.17 424.361 139.394 424.785C139.626 425.209 139.742 425.725 139.742 426.333V430.209H138.662V426.489C138.662 425.833 138.498 425.333 138.17 424.989C137.842 424.637 137.394 424.461 136.826 424.461C136.25 424.461 135.79 424.641 135.446 425.001C135.11 425.361 134.942 425.885 134.942 426.573V430.209H133.85V421.329H134.942V424.569C135.158 424.233 135.454 423.973 135.83 423.789C136.214 423.605 136.642 423.513 137.114 423.513ZM147.526 426.669C147.526 426.877 147.514 427.097 147.49 427.329H142.234C142.274 427.977 142.494 428.485 142.894 428.853C143.302 429.213 143.794 429.393 144.37 429.393C144.842 429.393 145.234 429.285 145.546 429.069C145.866 428.845 146.09 428.549 146.218 428.181H147.394C147.218 428.813 146.866 429.329 146.338 429.729C145.81 430.121 145.154 430.317 144.37 430.317C143.746 430.317 143.186 430.177 142.69 429.897C142.202 429.617 141.818 429.221 141.538 428.709C141.258 428.189 141.118 427.589 141.118 426.909C141.118 426.229 141.254 425.633 141.526 425.121C141.798 424.609 142.178 424.217 142.666 423.945C143.162 423.665 143.73 423.525 144.37 423.525C144.994 423.525 145.546 423.661 146.026 423.933C146.506 424.205 146.874 424.581 147.13 425.061C147.394 425.533 147.526 426.069 147.526 426.669ZM146.398 426.441C146.398 426.025 146.306 425.669 146.122 425.373C145.938 425.069 145.686 424.841 145.366 424.689C145.054 424.529 144.706 424.449 144.322 424.449C143.77 424.449 143.298 424.625 142.906 424.977C142.522 425.329 142.302 425.817 142.246 426.441H146.398ZM150.059 424.701C150.251 424.325 150.523 424.033 150.875 423.825C151.235 423.617 151.671 423.513 152.183 423.513V424.641H151.895C150.671 424.641 150.059 425.305 150.059 426.633V430.209H148.967V423.633H150.059V424.701ZM159.444 426.669C159.444 426.877 159.432 427.097 159.408 427.329H154.152C154.192 427.977 154.412 428.485 154.812 428.853C155.22 429.213 155.712 429.393 156.288 429.393C156.76 429.393 157.152 429.285 157.464 429.069C157.784 428.845 158.008 428.549 158.136 428.181H159.312C159.136 428.813 158.784 429.329 158.256 429.729C157.728 430.121 157.072 430.317 156.288 430.317C155.664 430.317 155.104 430.177 154.608 429.897C154.12 429.617 153.736 429.221 153.456 428.709C153.176 428.189 153.036 427.589 153.036 426.909C153.036 426.229 153.172 425.633 153.444 425.121C153.716 424.609 154.096 424.217 154.584 423.945C155.08 423.665 155.648 423.525 156.288 423.525C156.912 423.525 157.464 423.661 157.944 423.933C158.424 424.205 158.792 424.581 159.048 425.061C159.312 425.533 159.444 426.069 159.444 426.669ZM158.316 426.441C158.316 426.025 158.224 425.669 158.04 425.373C157.856 425.069 157.604 424.841 157.284 424.689C156.972 424.529 156.624 424.449 156.24 424.449C155.688 424.449 155.216 424.625 154.824 424.977C154.44 425.329 154.22 425.817 154.164 426.441H158.316ZM162.013 428.697L160.669 431.925H159.937L160.813 428.697H162.013ZM166.055 426.897C166.055 426.225 166.191 425.637 166.463 425.133C166.735 424.621 167.107 424.225 167.579 423.945C168.059 423.665 168.591 423.525 169.175 423.525C169.751 423.525 170.251 423.649 170.675 423.897C171.099 424.145 171.415 424.457 171.623 424.833V423.633H172.727V430.209H171.623V428.985C171.407 429.369 171.083 429.689 170.651 429.945C170.227 430.193 169.731 430.317 169.163 430.317C168.579 430.317 168.051 430.173 167.579 429.885C167.107 429.597 166.735 429.193 166.463 428.673C166.191 428.153 166.055 427.561 166.055 426.897ZM171.623 426.909C171.623 426.413 171.523 425.981 171.323 425.613C171.123 425.245 170.851 424.965 170.507 424.773C170.171 424.573 169.799 424.473 169.391 424.473C168.983 424.473 168.611 424.569 168.275 424.761C167.939 424.953 167.671 425.233 167.471 425.601C167.271 425.969 167.171 426.401 167.171 426.897C167.171 427.401 167.271 427.841 167.471 428.217C167.671 428.585 167.939 428.869 168.275 429.069C168.611 429.261 168.983 429.357 169.391 429.357C169.799 429.357 170.171 429.261 170.507 429.069C170.851 428.869 171.123 428.585 171.323 428.217C171.523 427.841 171.623 427.405 171.623 426.909ZM177.776 423.513C178.576 423.513 179.224 423.757 179.72 424.245C180.216 424.725 180.464 425.421 180.464 426.333V430.209H179.384V426.489C179.384 425.833 179.22 425.333 178.892 424.989C178.564 424.637 178.116 424.461 177.548 424.461C176.972 424.461 176.512 424.641 176.168 425.001C175.832 425.361 175.664 425.885 175.664 426.573V430.209H174.572V423.633H175.664V424.569C175.88 424.233 176.172 423.973 176.54 423.789C176.916 423.605 177.328 423.513 177.776 423.513ZM187.912 423.633L183.952 433.305H182.824L184.12 430.137L181.468 423.633H182.68L184.744 428.961L186.784 423.633H187.912ZM190.342 424.533V428.409C190.342 428.729 190.41 428.957 190.546 429.093C190.682 429.221 190.918 429.285 191.254 429.285H192.058V430.209H191.074C190.466 430.209 190.01 430.069 189.706 429.789C189.402 429.509 189.25 429.049 189.25 428.409V424.533H188.398V423.633H189.25V421.977H190.342V423.633H192.058V424.533H190.342ZM193.945 422.565C193.737 422.565 193.561 422.493 193.417 422.349C193.273 422.205 193.201 422.029 193.201 421.821C193.201 421.613 193.273 421.437 193.417 421.293C193.561 421.149 193.737 421.077 193.945 421.077C194.145 421.077 194.313 421.149 194.449 421.293C194.593 421.437 194.665 421.613 194.665 421.821C194.665 422.029 194.593 422.205 194.449 422.349C194.313 422.493 194.145 422.565 193.945 422.565ZM194.473 423.633V430.209H193.381V423.633H194.473ZM204.242 423.513C204.754 423.513 205.21 423.621 205.61 423.837C206.01 424.045 206.326 424.361 206.558 424.785C206.79 425.209 206.906 425.725 206.906 426.333V430.209H205.826V426.489C205.826 425.833 205.662 425.333 205.334 424.989C205.014 424.637 204.578 424.461 204.026 424.461C203.458 424.461 203.006 424.645 202.67 425.013C202.334 425.373 202.166 425.897 202.166 426.585V430.209H201.086V426.489C201.086 425.833 200.922 425.333 200.594 424.989C200.274 424.637 199.838 424.461 199.286 424.461C198.718 424.461 198.266 424.645 197.93 425.013C197.594 425.373 197.426 425.897 197.426 426.585V430.209H196.334V423.633H197.426V424.581C197.642 424.237 197.93 423.973 198.29 423.789C198.658 423.605 199.062 423.513 199.502 423.513C200.054 423.513 200.542 423.637 200.966 423.885C201.39 424.133 201.706 424.497 201.914 424.977C202.098 424.513 202.402 424.153 202.826 423.897C203.25 423.641 203.722 423.513 204.242 423.513ZM214.697 426.669C214.697 426.877 214.685 427.097 214.661 427.329H209.405C209.445 427.977 209.665 428.485 210.065 428.853C210.473 429.213 210.965 429.393 211.541 429.393C212.013 429.393 212.405 429.285 212.717 429.069C213.037 428.845 213.261 428.549 213.389 428.181H214.565C214.389 428.813 214.037 429.329 213.509 429.729C212.981 430.121 212.325 430.317 211.541 430.317C210.917 430.317 210.357 430.177 209.861 429.897C209.373 429.617 208.989 429.221 208.709 428.709C208.429 428.189 208.289 427.589 208.289 426.909C208.289 426.229 208.425 425.633 208.697 425.121C208.969 424.609 209.349 424.217 209.837 423.945C210.333 423.665 210.901 423.525 211.541 423.525C212.165 423.525 212.717 423.661 213.197 423.933C213.677 424.205 214.045 424.581 214.301 425.061C214.565 425.533 214.697 426.069 214.697 426.669ZM213.569 426.441C213.569 426.025 213.477 425.669 213.293 425.373C213.109 425.069 212.857 424.841 212.537 424.689C212.225 424.529 211.877 424.449 211.493 424.449C210.941 424.449 210.469 424.625 210.077 424.977C209.693 425.329 209.473 425.817 209.417 426.441H213.569ZM225.17 423.633V430.209H224.078V429.237C223.87 429.573 223.578 429.837 223.202 430.029C222.834 430.213 222.426 430.305 221.978 430.305C221.466 430.305 221.006 430.201 220.598 429.993C220.19 429.777 219.866 429.457 219.626 429.033C219.394 428.609 219.278 428.093 219.278 427.485V423.633H220.358V427.341C220.358 427.989 220.522 428.489 220.85 428.841C221.178 429.185 221.626 429.357 222.194 429.357C222.778 429.357 223.238 429.177 223.574 428.817C223.91 428.457 224.078 427.933 224.078 427.245V423.633H225.17ZM229.342 430.317C228.838 430.317 228.386 430.233 227.986 430.065C227.586 429.889 227.27 429.649 227.038 429.345C226.806 429.033 226.678 428.677 226.654 428.277H227.782C227.814 428.605 227.966 428.873 228.238 429.081C228.518 429.289 228.882 429.393 229.33 429.393C229.746 429.393 230.074 429.301 230.314 429.117C230.554 428.933 230.674 428.701 230.674 428.421C230.674 428.133 230.546 427.921 230.29 427.785C230.034 427.641 229.638 427.501 229.102 427.365C228.614 427.237 228.214 427.109 227.902 426.981C227.598 426.845 227.334 426.649 227.11 426.393C226.894 426.129 226.786 425.785 226.786 425.361C226.786 425.025 226.886 424.717 227.086 424.437C227.286 424.157 227.57 423.937 227.938 423.777C228.306 423.609 228.726 423.525 229.198 423.525C229.926 423.525 230.514 423.709 230.962 424.077C231.41 424.445 231.65 424.949 231.682 425.589H230.59C230.566 425.245 230.426 424.969 230.17 424.761C229.922 424.553 229.586 424.449 229.162 424.449C228.77 424.449 228.458 424.533 228.226 424.701C227.994 424.869 227.878 425.089 227.878 425.361C227.878 425.577 227.946 425.757 228.082 425.901C228.226 426.037 228.402 426.149 228.61 426.237C228.826 426.317 229.122 426.409 229.498 426.513C229.97 426.641 230.354 426.769 230.65 426.897C230.946 427.017 231.198 427.201 231.406 427.449C231.622 427.697 231.734 428.021 231.742 428.421C231.742 428.781 231.642 429.105 231.442 429.393C231.242 429.681 230.958 429.909 230.59 430.077C230.23 430.237 229.814 430.317 229.342 430.317ZM233.847 422.565C233.639 422.565 233.463 422.493 233.319 422.349C233.175 422.205 233.103 422.029 233.103 421.821C233.103 421.613 233.175 421.437 233.319 421.293C233.463 421.149 233.639 421.077 233.847 421.077C234.047 421.077 234.215 421.149 234.351 421.293C234.495 421.437 234.567 421.613 234.567 421.821C234.567 422.029 234.495 422.205 234.351 422.349C234.215 422.493 234.047 422.565 233.847 422.565ZM234.375 423.633V430.209H233.283V423.633H234.375ZM239.441 423.513C240.241 423.513 240.889 423.757 241.385 424.245C241.881 424.725 242.129 425.421 242.129 426.333V430.209H241.049V426.489C241.049 425.833 240.885 425.333 240.557 424.989C240.229 424.637 239.781 424.461 239.213 424.461C238.637 424.461 238.177 424.641 237.833 425.001C237.497 425.361 237.329 425.885 237.329 426.573V430.209H236.237V423.633H237.329V424.569C237.545 424.233 237.837 423.973 238.205 423.789C238.581 423.605 238.993 423.513 239.441 423.513ZM246.624 423.525C247.192 423.525 247.688 423.649 248.112 423.897C248.544 424.145 248.864 424.457 249.072 424.833V423.633H250.176V430.353C250.176 430.953 250.048 431.485 249.792 431.949C249.536 432.421 249.168 432.789 248.688 433.053C248.216 433.317 247.664 433.449 247.032 433.449C246.168 433.449 245.448 433.245 244.872 432.837C244.296 432.429 243.956 431.873 243.852 431.169H244.932C245.052 431.569 245.3 431.889 245.676 432.129C246.052 432.377 246.504 432.501 247.032 432.501C247.632 432.501 248.12 432.313 248.496 431.937C248.88 431.561 249.072 431.033 249.072 430.353V428.973C248.856 429.357 248.536 429.677 248.112 429.933C247.688 430.189 247.192 430.317 246.624 430.317C246.04 430.317 245.508 430.173 245.028 429.885C244.556 429.597 244.184 429.193 243.912 428.673C243.64 428.153 243.504 427.561 243.504 426.897C243.504 426.225 243.64 425.637 243.912 425.133C244.184 424.621 244.556 424.225 245.028 423.945C245.508 423.665 246.04 423.525 246.624 423.525ZM249.072 426.909C249.072 426.413 248.972 425.981 248.772 425.613C248.572 425.245 248.3 424.965 247.956 424.773C247.62 424.573 247.248 424.473 246.84 424.473C246.432 424.473 246.06 424.569 245.724 424.761C245.388 424.953 245.12 425.233 244.92 425.601C244.72 425.969 244.62 426.401 244.62 426.897C244.62 427.401 244.72 427.841 244.92 428.217C245.12 428.585 245.388 428.869 245.724 429.069C246.06 429.261 246.432 429.357 246.84 429.357C247.248 429.357 247.62 429.261 247.956 429.069C248.3 428.869 248.572 428.585 248.772 428.217C248.972 427.841 249.072 427.405 249.072 426.909ZM254.813 426.897C254.813 426.225 254.949 425.637 255.221 425.133C255.493 424.621 255.865 424.225 256.337 423.945C256.817 423.665 257.349 423.525 257.933 423.525C258.509 423.525 259.009 423.649 259.433 423.897C259.857 424.145 260.173 424.457 260.381 424.833V423.633H261.485V430.209H260.381V428.985C260.165 429.369 259.841 429.689 259.409 429.945C258.985 430.193 258.489 430.317 257.921 430.317C257.337 430.317 256.809 430.173 256.337 429.885C255.865 429.597 255.493 429.193 255.221 428.673C254.949 428.153 254.813 427.561 254.813 426.897ZM260.381 426.909C260.381 426.413 260.281 425.981 260.081 425.613C259.881 425.245 259.609 424.965 259.265 424.773C258.929 424.573 258.557 424.473 258.149 424.473C257.741 424.473 257.369 424.569 257.033 424.761C256.697 424.953 256.429 425.233 256.229 425.601C256.029 425.969 255.929 426.401 255.929 426.897C255.929 427.401 256.029 427.841 256.229 428.217C256.429 428.585 256.697 428.869 257.033 429.069C257.369 429.261 257.741 429.357 258.149 429.357C258.557 429.357 258.929 429.261 259.265 429.069C259.609 428.869 259.881 428.585 260.081 428.217C260.281 427.841 260.381 427.405 260.381 426.909ZM32.502 448.317C31.998 448.317 31.546 448.233 31.146 448.065C30.746 447.889 30.43 447.649 30.198 447.345C29.966 447.033 29.838 446.677 29.814 446.277H30.942C30.974 446.605 31.126 446.873 31.398 447.081C31.678 447.289 32.042 447.393 32.49 447.393C32.906 447.393 33.234 447.301 33.474 447.117C33.714 446.933 33.834 446.701 33.834 446.421C33.834 446.133 33.706 445.921 33.45 445.785C33.194 445.641 32.798 445.501 32.262 445.365C31.774 445.237 31.374 445.109 31.062 444.981C30.758 444.845 30.494 444.649 30.27 444.393C30.054 444.129 29.946 443.785 29.946 443.361C29.946 443.025 30.046 442.717 30.246 442.437C30.446 442.157 30.73 441.937 31.098 441.777C31.466 441.609 31.886 441.525 32.358 441.525C33.086 441.525 33.674 441.709 34.122 442.077C34.57 442.445 34.81 442.949 34.842 443.589H33.75C33.726 443.245 33.586 442.969 33.33 442.761C33.082 442.553 32.746 442.449 32.322 442.449C31.93 442.449 31.618 442.533 31.386 442.701C31.154 442.869 31.038 443.089 31.038 443.361C31.038 443.577 31.106 443.757 31.242 443.901C31.386 444.037 31.562 444.149 31.77 444.237C31.986 444.317 32.282 444.409 32.658 444.513C33.13 444.641 33.514 444.769 33.81 444.897C34.106 445.017 34.358 445.201 34.566 445.449C34.782 445.697 34.894 446.021 34.902 446.421C34.902 446.781 34.802 447.105 34.602 447.393C34.402 447.681 34.118 447.909 33.75 448.077C33.39 448.237 32.974 448.317 32.502 448.317ZM39.7075 441.513C40.2035 441.513 40.6515 441.621 41.0515 441.837C41.4515 442.045 41.7635 442.361 41.9875 442.785C42.2195 443.209 42.3355 443.725 42.3355 444.333V448.209H41.2555V444.489C41.2555 443.833 41.0915 443.333 40.7635 442.989C40.4355 442.637 39.9875 442.461 39.4195 442.461C38.8435 442.461 38.3835 442.641 38.0395 443.001C37.7035 443.361 37.5355 443.885 37.5355 444.573V448.209H36.4435V439.329H37.5355V442.569C37.7515 442.233 38.0475 441.973 38.4235 441.789C38.8075 441.605 39.2355 441.513 39.7075 441.513ZM43.7113 444.897C43.7113 444.225 43.8473 443.637 44.1193 443.133C44.3913 442.621 44.7633 442.225 45.2353 441.945C45.7153 441.665 46.2473 441.525 46.8313 441.525C47.4073 441.525 47.9073 441.649 48.3313 441.897C48.7553 442.145 49.0713 442.457 49.2793 442.833V441.633H50.3833V448.209H49.2793V446.985C49.0633 447.369 48.7393 447.689 48.3073 447.945C47.8833 448.193 47.3873 448.317 46.8193 448.317C46.2353 448.317 45.7073 448.173 45.2353 447.885C44.7633 447.597 44.3913 447.193 44.1193 446.673C43.8473 446.153 43.7113 445.561 43.7113 444.897ZM49.2793 444.909C49.2793 444.413 49.1793 443.981 48.9793 443.613C48.7793 443.245 48.5073 442.965 48.1633 442.773C47.8273 442.573 47.4553 442.473 47.0473 442.473C46.6393 442.473 46.2673 442.569 45.9313 442.761C45.5953 442.953 45.3273 443.233 45.1273 443.601C44.9273 443.969 44.8273 444.401 44.8273 444.897C44.8273 445.401 44.9273 445.841 45.1273 446.217C45.3273 446.585 45.5953 446.869 45.9313 447.069C46.2673 447.261 46.6393 447.357 47.0473 447.357C47.4553 447.357 47.8273 447.261 48.1633 447.069C48.5073 446.869 48.7793 446.585 48.9793 446.217C49.1793 445.841 49.2793 445.405 49.2793 444.909ZM53.3207 442.701C53.5127 442.325 53.7847 442.033 54.1367 441.825C54.4967 441.617 54.9327 441.513 55.4447 441.513V442.641H55.1567C53.9327 442.641 53.3207 443.305 53.3207 444.633V448.209H52.2287V441.633H53.3207V442.701ZM62.7053 444.669C62.7053 444.877 62.6933 445.097 62.6693 445.329H57.4133C57.4533 445.977 57.6733 446.485 58.0733 446.853C58.4813 447.213 58.9733 447.393 59.5493 447.393C60.0213 447.393 60.4133 447.285 60.7253 447.069C61.0453 446.845 61.2693 446.549 61.3973 446.181H62.5733C62.3973 446.813 62.0453 447.329 61.5173 447.729C60.9893 448.121 60.3333 448.317 59.5493 448.317C58.9253 448.317 58.3653 448.177 57.8693 447.897C57.3813 447.617 56.9973 447.221 56.7173 446.709C56.4373 446.189 56.2973 445.589 56.2973 444.909C56.2973 444.229 56.4333 443.633 56.7053 443.121C56.9773 442.609 57.3573 442.217 57.8453 441.945C58.3413 441.665 58.9093 441.525 59.5493 441.525C60.1733 441.525 60.7253 441.661 61.2053 441.933C61.6853 442.205 62.0533 442.581 62.3093 443.061C62.5733 443.533 62.7053 444.069 62.7053 444.669ZM61.5773 444.441C61.5773 444.025 61.4853 443.669 61.3013 443.373C61.1173 443.069 60.8653 442.841 60.5453 442.689C60.2333 442.529 59.8853 442.449 59.5013 442.449C58.9493 442.449 58.4773 442.625 58.0853 442.977C57.7013 443.329 57.4813 443.817 57.4253 444.441H61.5773ZM63.7387 444.897C63.7387 444.225 63.8747 443.637 64.1467 443.133C64.4187 442.621 64.7907 442.225 65.2627 441.945C65.7427 441.665 66.2747 441.525 66.8587 441.525C67.4347 441.525 67.9347 441.649 68.3587 441.897C68.7827 442.145 69.0987 442.457 69.3067 442.833V441.633H70.4107V448.209H69.3067V446.985C69.0907 447.369 68.7667 447.689 68.3347 447.945C67.9107 448.193 67.4147 448.317 66.8467 448.317C66.2627 448.317 65.7347 448.173 65.2627 447.885C64.7907 447.597 64.4187 447.193 64.1467 446.673C63.8747 446.153 63.7387 445.561 63.7387 444.897ZM69.3067 444.909C69.3067 444.413 69.2067 443.981 69.0067 443.613C68.8067 443.245 68.5347 442.965 68.1907 442.773C67.8547 442.573 67.4827 442.473 67.0747 442.473C66.6667 442.473 66.2947 442.569 65.9587 442.761C65.6227 442.953 65.3547 443.233 65.1547 443.601C64.9547 443.969 64.8547 444.401 64.8547 444.897C64.8547 445.401 64.9547 445.841 65.1547 446.217C65.3547 446.585 65.6227 446.869 65.9587 447.069C66.2947 447.261 66.6667 447.357 67.0747 447.357C67.4827 447.357 67.8547 447.261 68.1907 447.069C68.5347 446.869 68.8067 446.585 69.0067 446.217C69.2067 445.841 69.3067 445.405 69.3067 444.909ZM73.348 442.857C73.572 442.465 73.9 442.145 74.332 441.897C74.764 441.649 75.256 441.525 75.808 441.525C76.4 441.525 76.932 441.665 77.404 441.945C77.876 442.225 78.248 442.621 78.52 443.133C78.792 443.637 78.928 444.225 78.928 444.897C78.928 445.561 78.792 446.153 78.52 446.673C78.248 447.193 77.872 447.597 77.392 447.885C76.92 448.173 76.392 448.317 75.808 448.317C75.24 448.317 74.74 448.193 74.308 447.945C73.884 447.697 73.564 447.381 73.348 446.997V448.209H72.256V439.329H73.348V442.857ZM77.812 444.897C77.812 444.401 77.712 443.969 77.512 443.601C77.312 443.233 77.04 442.953 76.696 442.761C76.36 442.569 75.988 442.473 75.58 442.473C75.18 442.473 74.808 442.573 74.464 442.773C74.128 442.965 73.856 443.249 73.648 443.625C73.448 443.993 73.348 444.421 73.348 444.909C73.348 445.405 73.448 445.841 73.648 446.217C73.856 446.585 74.128 446.869 74.464 447.069C74.808 447.261 75.18 447.357 75.58 447.357C75.988 447.357 76.36 447.261 76.696 447.069C77.04 446.869 77.312 446.585 77.512 446.217C77.712 445.841 77.812 445.401 77.812 444.897ZM81.4574 439.329V448.209H80.3654V439.329H81.4574ZM89.3185 444.669C89.3185 444.877 89.3065 445.097 89.2825 445.329H84.0265C84.0665 445.977 84.2865 446.485 84.6865 446.853C85.0945 447.213 85.5865 447.393 86.1625 447.393C86.6345 447.393 87.0265 447.285 87.3385 447.069C87.6585 446.845 87.8825 446.549 88.0105 446.181H89.1865C89.0105 446.813 88.6585 447.329 88.1305 447.729C87.6025 448.121 86.9465 448.317 86.1625 448.317C85.5385 448.317 84.9785 448.177 84.4825 447.897C83.9945 447.617 83.6105 447.221 83.3305 446.709C83.0505 446.189 82.9105 445.589 82.9105 444.909C82.9105 444.229 83.0465 443.633 83.3185 443.121C83.5905 442.609 83.9705 442.217 84.4585 441.945C84.9545 441.665 85.5225 441.525 86.1625 441.525C86.7865 441.525 87.3385 441.661 87.8185 441.933C88.2985 442.205 88.6665 442.581 88.9225 443.061C89.1865 443.533 89.3185 444.069 89.3185 444.669ZM88.1905 444.441C88.1905 444.025 88.0985 443.669 87.9145 443.373C87.7305 443.069 87.4785 442.841 87.1585 442.689C86.8465 442.529 86.4985 442.449 86.1145 442.449C85.5625 442.449 85.0905 442.625 84.6985 442.977C84.3145 443.329 84.0945 443.817 84.0385 444.441H88.1905ZM95.0512 439.329V448.209H93.9592V439.329H95.0512ZM97.4763 440.565C97.2683 440.565 97.0923 440.493 96.9483 440.349C96.8043 440.205 96.7323 440.029 96.7323 439.821C96.7323 439.613 96.8043 439.437 96.9483 439.293C97.0923 439.149 97.2683 439.077 97.4763 439.077C97.6763 439.077 97.8443 439.149 97.9803 439.293C98.1243 439.437 98.1963 439.613 98.1963 439.821C98.1963 440.029 98.1243 440.205 97.9803 440.349C97.8443 440.493 97.6763 440.565 97.4763 440.565ZM98.0043 441.633V448.209H96.9123V441.633H98.0043ZM103.069 441.513C103.869 441.513 104.517 441.757 105.013 442.245C105.509 442.725 105.757 443.421 105.757 444.333V448.209H104.677V444.489C104.677 443.833 104.513 443.333 104.185 442.989C103.857 442.637 103.409 442.461 102.841 442.461C102.265 442.461 101.805 442.641 101.461 443.001C101.125 443.361 100.957 443.885 100.957 444.573V448.209H99.8654V441.633H100.957V442.569C101.173 442.233 101.465 441.973 101.833 441.789C102.209 441.605 102.621 441.513 103.069 441.513ZM111.213 448.209L108.633 445.305V448.209H107.541V439.329H108.633V444.549L111.165 441.633H112.689L109.593 444.909L112.701 448.209H111.213Z" fill="white"/>
<defs>
<filter id="filter0_b_1222_1795" x="-22.5" y="-22.25" width="345" height="540.75" filterUnits="userSpaceOnUse" color-interpolation-filters="sRGB">
<feFlood flood-opacity="0" result="BackgroundImageFix"/>
<feGaussianBlur in="BackgroundImageFix" stdDeviation="11.25"/>
<feComposite in2="SourceAlpha" operator="in" result="effect1_backgroundBlur_1222_1795"/>
<feBlend mode="normal" in="SourceGraphic" in2="effect1_backgroundBlur_1222_1795" result="shape"/>
</filter>
<filter id="filter1_f_1222_1795" x="-84.0914" y="-76.8653" width="347.098" height="378.217" filterUnits="userSpaceOnUse" color-interpolation-filters="sRGB">
<feFlood flood-opacity="0" result="BackgroundImageFix"/>
<feBlend mode="normal" in="SourceGraphic" in2="BackgroundImageFix" result="shape"/>
<feGaussianBlur stdDeviation="23.4808" result="effect1_foregroundBlur_1222_1795"/>
</filter>
<linearGradient id="paint0_linear_1222_1795" x1="298.421" y1="12.0003" x2="-105.495" y2="249.344" gradientUnits="userSpaceOnUse">
<stop stop-color="#1ED6FF"/>
<stop offset="1" stop-color="#0F80FE"/>
</linearGradient>
<linearGradient id="paint1_linear_1222_1795" x1="19.9569" y1="30.7572" x2="195.804" y2="187.803" gradientUnits="userSpaceOnUse">
<stop stop-color="#1ED6FF"/>
<stop offset="1" stop-color="#0F80FE"/>
</linearGradient>
<radialGradient id="paint2_radial_1222_1795" cx="0" cy="0" r="1" gradientUnits="userSpaceOnUse" gradientTransform="translate(108.036 53.4245) rotate(71.0124) scale(233.528)">
<stop stop-color="#0F80FE"/>
<stop offset="0.322917" stop-color="#1162BC"/>
<stop offset="1" stop-color="#084284" stop-opacity="0"/>
</radialGradient>
<linearGradient id="paint3_linear_1222_1795" x1="132.746" y1="146.199" x2="245.476" y2="-78.6833" gradientUnits="userSpaceOnUse">
<stop stop-color="#83B6E6" stop-opacity="0.53"/>
<stop offset="0.484375" stop-color="#83B6E6" stop-opacity="0"/>
</linearGradient>
<clipPath id="clip0_1222_1795">
<rect y="0.875" width="297.635" height="495.125" rx="12.6923" fill="white"/>
</clipPath>
</defs>
</svg>

