<svg width="172" height="31" viewBox="0 0 172 31" fill="none" xmlns="http://www.w3.org/2000/svg">
<path d="M30.5 1.29819L25.0973 4.23436L21.5105 6.1868L18.9967 7.56101C17.9237 7.10294 16.7381 6.84762 15.4925 6.84762C10.57 6.84762 6.58554 10.8351 6.58554 15.7613C6.58554 18.1042 7.4935 20.2369 8.97174 21.8288L7.2909 23.5335C5.36994 21.5059 4.19185 18.7725 4.19185 15.7538C4.19185 9.50595 9.24938 4.44462 15.4925 4.44462C16.5655 4.44462 17.6011 4.59481 18.584 4.87265L22.8687 2.68742C20.6926 1.45588 18.1713 0.75 15.4925 0.75C7.20835 0.75 0.5 7.4709 0.5 15.7538C0.5 19.7938 2.0983 23.4659 4.6946 26.1618L1.46048 29.4434L5.58754 27.0103L8.99425 24.9978L11.3279 23.6236C12.5735 24.2844 13.9917 24.6599 15.5 24.6599C20.4225 24.6599 24.407 20.6724 24.407 15.7462C24.407 13.3132 23.4315 11.1054 21.8482 9.49093L23.589 7.84637C25.5775 9.88141 26.8082 12.6749 26.8082 15.7462C26.8082 21.9941 21.7506 27.0554 15.5075 27.0554C14.1418 27.0554 12.8287 26.8151 11.6131 26.3645L7.67359 28.5422C9.95473 29.939 12.6336 30.75 15.5075 30.75C23.7916 30.75 30.5 24.0291 30.5 15.7462C30.5 11.6837 28.8867 8.00407 26.2754 5.30069L30.5 1.29819Z" fill="url(#paint0_linear_1222_1516)"/>
<path d="M42.0538 13.493C42.5776 12.5771 43.3447 11.8294 44.3549 11.25C45.3652 10.6706 46.5158 10.3808 47.8067 10.3808C49.1912 10.3808 50.4353 10.7079 51.5391 11.3621C52.6429 12.0164 53.5129 12.9416 54.149 14.1378C54.7851 15.3154 55.1031 16.6893 55.1031 18.2593C55.1031 19.8107 54.7851 21.1939 54.149 22.4089C53.5129 23.6238 52.6336 24.5678 51.5111 25.2407C50.4072 25.9136 49.1725 26.25 47.8067 26.25C46.4784 26.25 45.3091 25.9603 44.2988 25.3808C43.3072 24.8014 42.5589 24.0631 42.0538 23.1659V25.9977H39.5V5.25H42.0538V13.493ZM52.4933 18.2593C52.4933 17.1005 52.2594 16.0911 51.7917 15.2313C51.324 14.3715 50.6879 13.7173 49.8834 13.2687C49.0976 12.8201 48.2277 12.5958 47.2735 12.5958C46.3381 12.5958 45.4681 12.8294 44.6636 13.2967C43.8779 13.7453 43.2418 14.4089 42.7553 15.2874C42.2876 16.1472 42.0538 17.1472 42.0538 18.2874C42.0538 19.4463 42.2876 20.465 42.7553 21.3435C43.2418 22.2033 43.8779 22.8668 44.6636 23.3341C45.4681 23.7827 46.3381 24.007 47.2735 24.007C48.2277 24.007 49.0976 23.7827 49.8834 23.3341C50.6879 22.8668 51.324 22.2033 51.7917 21.3435C52.2594 20.465 52.4933 19.4369 52.4933 18.2593ZM59.6152 5.25V25.9977H57.0614V5.25H59.6152ZM76.2032 10.6332V25.9977H73.6494V23.7266C73.163 24.5117 72.4801 25.1285 71.6008 25.5771C70.7402 26.007 69.786 26.222 68.7383 26.222C67.541 26.222 66.4652 25.979 65.5111 25.493C64.5569 24.9883 63.7992 24.2407 63.238 23.25C62.6954 22.2593 62.4241 21.0537 62.4241 19.6332V10.6332H64.9498V19.2967C64.9498 20.8107 65.3333 21.979 66.1004 22.8014C66.8675 23.6051 67.9152 24.007 69.2435 24.007C70.6092 24.007 71.685 23.5864 72.4708 22.7453C73.2565 21.9042 73.6494 20.6799 73.6494 19.0724V10.6332H76.2032ZM93.1435 17.7266C93.1435 18.2126 93.1154 18.7266 93.0593 19.2687H80.7676C80.8612 20.7827 81.3757 21.9696 82.3111 22.8294C83.2652 23.6706 84.4158 24.0911 85.7629 24.0911C86.8667 24.0911 87.7834 23.8388 88.5131 23.3341C89.2614 22.8107 89.7853 22.1192 90.0846 21.2593H92.8348C92.4232 22.736 91.6 23.9416 90.3652 24.8762C89.1305 25.7921 87.5963 26.25 85.7629 26.25C84.3036 26.25 82.994 25.9229 81.834 25.2687C80.6928 24.6145 79.7948 23.6893 79.1399 22.493C78.4851 21.278 78.1577 19.8762 78.1577 18.2874C78.1577 16.6986 78.4758 15.3061 79.1119 14.1098C79.748 12.9136 80.6367 11.9977 81.7779 11.3621C82.9378 10.7079 84.2662 10.3808 85.7629 10.3808C87.2222 10.3808 88.5131 10.6986 89.6356 11.3341C90.7581 11.9696 91.6187 12.8481 92.2174 13.9696C92.8348 15.0724 93.1435 16.3248 93.1435 17.7266ZM90.5056 17.1939C90.5056 16.222 90.2904 15.3902 89.8601 14.6986C89.4298 13.9883 88.8405 13.4556 88.0921 13.1005C87.3625 12.7266 86.5486 12.5397 85.6506 12.5397C84.3597 12.5397 83.2559 12.9509 82.3392 13.7734C81.4411 14.5958 80.9266 15.736 80.7957 17.1939H90.5056ZM114.671 10.1846C116.617 10.1846 118.161 10.7734 119.302 11.9509C120.462 13.1285 121.042 14.764 121.042 16.8575V25.9977H116.271V17.5023C116.271 16.493 116 15.7173 115.457 15.1752C114.933 14.6145 114.204 14.3341 113.268 14.3341C112.333 14.3341 111.594 14.6145 111.051 15.1752C110.527 15.7173 110.266 16.493 110.266 17.5023V25.9977H105.495V17.5023C105.495 16.493 105.224 15.7173 104.681 15.1752C104.157 14.6145 103.427 14.3341 102.492 14.3341C101.557 14.3341 100.818 14.6145 100.275 15.1752C99.7512 15.7173 99.4892 16.493 99.4892 17.5023V25.9977H94.6904V10.3528H99.4892V12.3154C99.9757 11.6612 100.612 11.1472 101.398 10.7734C102.183 10.3808 103.072 10.1846 104.064 10.1846C105.242 10.1846 106.29 10.4369 107.207 10.9416C108.142 11.4463 108.872 12.1659 109.396 13.1005C109.938 12.2407 110.677 11.5397 111.613 10.9977C112.548 10.4556 113.568 10.1846 114.671 10.1846ZM130.123 26.222C128.589 26.222 127.204 25.8949 125.969 25.2407C124.753 24.5864 123.79 23.6519 123.079 22.4369C122.387 21.222 122.041 19.8014 122.041 18.1752C122.041 16.5678 122.396 15.1565 123.107 13.9416C123.818 12.7079 124.791 11.764 126.025 11.1098C127.26 10.4556 128.645 10.1285 130.179 10.1285C131.713 10.1285 133.097 10.4556 134.332 11.1098C135.567 11.764 136.54 12.7079 137.251 13.9416C137.962 15.1565 138.317 16.5678 138.317 18.1752C138.317 19.7827 137.952 21.2033 137.223 22.4369C136.512 23.6519 135.53 24.5864 134.276 25.2407C133.041 25.8949 131.657 26.222 130.123 26.222ZM130.123 22.0724C131.039 22.0724 131.816 21.736 132.452 21.0631C133.107 20.3902 133.434 19.4276 133.434 18.1752C133.434 16.9229 133.116 15.9603 132.48 15.2874C131.863 14.6145 131.096 14.278 130.179 14.278C129.243 14.278 128.467 14.6145 127.85 15.2874C127.232 15.9416 126.924 16.9042 126.924 18.1752C126.924 19.4276 127.223 20.3902 127.822 21.0631C128.439 21.736 129.206 22.0724 130.123 22.0724ZM146.588 26.222C145.054 26.222 143.67 25.8949 142.435 25.2407C141.219 24.5864 140.255 23.6519 139.544 22.4369C138.852 21.222 138.506 19.8014 138.506 18.1752C138.506 16.5678 138.861 15.1565 139.572 13.9416C140.283 12.7079 141.256 11.764 142.491 11.1098C143.726 10.4556 145.11 10.1285 146.644 10.1285C148.178 10.1285 149.563 10.4556 150.798 11.1098C152.032 11.764 153.005 12.7079 153.716 13.9416C154.427 15.1565 154.783 16.5678 154.783 18.1752C154.783 19.7827 154.418 21.2033 153.688 22.4369C152.977 23.6519 151.995 24.5864 150.741 25.2407C149.507 25.8949 148.122 26.222 146.588 26.222ZM146.588 22.0724C147.505 22.0724 148.281 21.736 148.917 21.0631C149.572 20.3902 149.9 19.4276 149.9 18.1752C149.9 16.9229 149.582 15.9603 148.945 15.2874C148.328 14.6145 147.561 14.278 146.644 14.278C145.709 14.278 144.932 14.6145 144.315 15.2874C143.698 15.9416 143.389 16.9042 143.389 18.1752C143.389 19.4276 143.688 20.3902 144.287 21.0631C144.904 21.736 145.671 22.0724 146.588 22.0724ZM165.466 10.1846C167.3 10.1846 168.759 10.7827 169.844 11.979C170.948 13.1565 171.5 14.7827 171.5 16.8575V25.9977H166.729V17.5023C166.729 16.4556 166.458 15.6425 165.915 15.0631C165.373 14.4836 164.643 14.1939 163.726 14.1939C162.81 14.1939 162.08 14.4836 161.538 15.0631C160.995 15.6425 160.724 16.4556 160.724 17.5023V25.9977H155.925V10.3528H160.724V12.4276C161.21 11.736 161.865 11.1939 162.688 10.8014C163.511 10.3902 164.437 10.1846 165.466 10.1846Z" fill="white"/>
<defs>
<linearGradient id="paint0_linear_1222_1516" x1="30.3421" y1="1.46106" x2="2.37435" y2="28.6184" gradientUnits="userSpaceOnUse">
<stop stop-color="#1ED6FF"/>
<stop offset="1" stop-color="#0F80FE"/>
</linearGradient>
</defs>
</svg>

