<svg width="89" height="64" viewBox="0 0 89 64" fill="none" xmlns="http://www.w3.org/2000/svg">
<circle cx="62.1978" cy="34.6278" r="26.25" fill="url(#paint0_linear_1222_1602)"/>
<path d="M75.4827 13.2965C75.0371 13.3489 74.5915 13.5058 74.1721 13.8198C73.4644 14.5262 74.8799 16.6627 76.304 18.0842C77.7282 20.9272 75.5963 25.1829 71.3238 23.7614C67.7677 21.6335 68.4754 16.6627 66.3435 15.2413C59.939 12.3983 66.3435 23.055 62.7873 24.4678C54.9587 26.5956 61.3632 16.654 57.8071 12.3983H54.9587C53.5345 14.5262 52.8268 19.497 50.6861 16.6627C49.3668 15.8692 49.026 14.5872 48.7901 13.3576C47.7504 14.0117 46.763 14.7529 45.8281 15.5552C47.095 16.1569 48.0999 17.2296 48.5542 18.7906C48.5542 20.9184 45.7058 23.7614 47.8465 25.8892C51.4026 28.0171 52.1103 21.6248 54.9587 23.0463C59.2225 24.4678 54.9587 30.8601 56.3829 34.4094C57.0906 35.1158 59.2313 36.5372 60.6467 36.5372C64.2028 35.1158 62.0709 30.145 64.2028 29.4386C68.4667 27.3107 69.1831 37.2523 74.8711 34.4094C77.7195 32.9879 76.2953 28.7322 77.7195 26.5956C79.1437 23.7527 82.6998 29.4386 84.124 27.302C84.7356 26.8398 85.2424 26.2468 85.6356 25.5666C83.6609 20.4563 80.0699 16.1482 75.474 13.2791L75.4827 13.2965Z" fill="url(#paint1_linear_1222_1602)"/>
<path d="M51.9183 57.485C50.8087 56.6566 49.7253 55.8368 48.5981 55.6886C49.6554 56.3688 50.765 56.9618 51.9183 57.485Z" fill="url(#paint2_linear_1222_1602)"/>
<path d="M77.012 52.1652C73.4559 53.5867 70.6076 54.2931 67.0515 56.4209C64.9195 58.5488 62.0712 52.8716 58.5151 55.7145C57.8947 56.9529 57.2744 58.1825 56.1909 58.9499C58.1131 59.4208 60.1227 59.6737 62.1847 59.6737C70.66 59.6737 78.1392 55.4878 82.6913 49.0694C80.2012 48.5025 78.3052 51.5111 77.0033 52.1565L77.012 52.1652Z" fill="url(#paint3_linear_1222_1602)"/>
<path d="M78.4362 43.645C77.7285 45.0665 78.4362 48.6158 77.012 48.6158C72.7482 48.6158 71.324 50.0373 67.7679 52.8715C64.9195 54.9994 64.2118 49.3222 62.0799 49.3222C58.5238 48.6158 57.8073 56.4208 54.2512 52.1651C52.827 50.7437 53.5435 47.9094 52.827 46.4879C50.6951 45.0665 48.5632 46.4879 47.139 47.1943C42.1587 50.0373 41.451 45.0665 40.7345 40.8021C40.4025 39.7992 38.9608 39.119 37.458 39.0405C38.7075 46.017 42.849 51.9907 48.5981 55.6883C49.7253 55.8278 50.8087 56.6563 51.9183 57.4848C53.2814 58.0952 54.7143 58.5923 56.1909 58.9498C57.2743 58.1824 57.8947 56.9528 58.5151 55.7145C62.0712 52.8715 64.9195 58.5574 67.0514 56.4208C70.6076 54.293 73.4559 53.5779 77.012 52.1651C78.3139 51.5198 80.2099 48.5111 82.7001 49.078C83.801 47.5257 84.7359 45.8426 85.4698 44.0636C82.936 43.2526 80.4983 41.5956 78.445 43.645H78.4362Z" fill="url(#paint4_linear_1222_1602)"/>
<path d="M52.8271 46.4791C53.5349 47.9006 52.8271 50.7348 54.2513 52.1563C57.8074 56.412 58.5152 48.607 62.08 49.3134C64.2119 49.3134 64.9284 54.9905 67.768 52.8627C71.3241 50.0197 72.7483 48.607 77.0121 48.607C78.4363 48.607 77.7199 45.0577 78.4363 43.6362C80.4984 41.5781 82.9274 43.2438 85.4612 44.0548C86.6582 41.1334 87.3223 37.9329 87.3223 34.5841C87.3223 34.5841 87.3223 34.5667 87.3223 34.5579C84.902 34.0085 82.3245 32.1336 81.276 33.7033C79.1441 35.1248 81.9837 44.3513 77.0121 42.2234C74.8802 41.5171 72.7483 39.3805 69.9 40.0956C67.768 41.5171 69.8999 45.0664 67.768 46.4879C62.7877 47.9093 64.2119 38.6741 59.2316 41.5171C57.0997 42.9385 57.0997 47.9093 53.5436 46.4879C46.4314 43.6449 53.5436 35.8399 50.6952 32.2906C48.5633 28.0261 45.0072 40.8107 41.4511 35.1335C38.6027 30.8778 45.0072 27.3198 42.8753 23.0641C42.4472 22.2181 41.7045 21.6862 40.8133 21.4333C38.4367 25.2617 37.0649 29.7616 37.0649 34.5928C37.0649 36.1189 37.2047 37.6015 37.4669 39.0491C38.9697 39.1276 40.4113 39.8078 40.7434 40.8107C41.4511 45.0751 42.1676 50.0372 47.1479 47.203C48.572 46.4966 50.704 45.0751 52.8359 46.4966L52.8271 46.4791Z" fill="url(#paint5_linear_1222_1602)"/>
<path d="M41.4429 35.1247C44.999 40.8019 48.5552 28.026 50.6871 32.2817C53.5354 35.8311 46.4232 43.6448 53.5354 46.4791C57.0915 47.9005 57.0915 42.9297 59.2235 41.5083C64.2038 38.6653 62.7796 47.9005 67.7599 46.4791C69.8918 45.0576 67.7599 41.5083 69.8918 40.0868C72.7402 39.3804 74.8721 41.5083 77.004 42.2146C81.9843 44.3425 79.1359 35.116 81.2678 33.6945C82.3163 32.1335 84.8851 34.0084 87.3141 34.5491C87.3141 31.3835 86.7112 28.3574 85.6365 25.5668C85.2433 26.2383 84.7366 26.84 84.1249 27.3022C82.7008 29.4301 79.1446 23.7529 77.7204 26.5958C76.2963 28.7237 77.7205 32.9881 74.8721 34.4096C69.1841 37.2526 68.4676 27.311 64.2038 29.4388C62.0719 30.1452 64.2038 35.116 60.6477 36.5375C59.2235 36.5375 57.0915 35.116 56.3838 34.4096C54.9596 30.8603 59.2322 24.468 54.9596 23.0465C52.1112 21.625 51.4035 28.0173 47.8474 25.8895C45.7155 23.7616 48.5552 20.9187 48.5552 18.7908C48.1095 17.2298 47.096 16.1571 45.8291 15.5554C43.8632 17.2385 42.1681 19.2181 40.7964 21.4245C41.6876 21.6774 42.4302 22.2006 42.8584 23.0552C44.9903 27.3197 38.5946 30.869 41.4342 35.1247H41.4429Z" fill="url(#paint6_linear_1222_1602)"/>
<path d="M67.7679 13.8205C69.6028 15.1896 69.961 13.0269 69.9785 10.7421C67.5233 9.93975 64.9108 9.495 62.1935 9.495C61.1887 9.495 60.2101 9.56476 59.2402 9.68685C59.5286 10.8467 59.6946 12.1112 59.948 13.1141C62.7963 10.9862 64.2118 11.6926 67.7767 13.8205H67.7679Z" fill="#1ED3FE"/>
<path d="M76.3045 18.0848C74.8803 16.6633 73.4561 14.5355 74.1726 13.8204C74.592 13.5064 75.0376 13.3495 75.4832 13.2971C73.7794 12.2332 71.9271 11.3786 69.9787 10.7507C69.9525 13.0355 69.603 15.1983 67.7681 13.8291C64.212 11.7013 62.7878 10.9862 59.9395 13.1227C59.6861 12.1199 59.5201 10.8553 59.2317 9.6955C55.431 10.1403 51.8836 11.4222 48.7993 13.3669C49.0352 14.5965 49.376 15.8785 50.6953 16.6721C52.8272 19.515 53.5437 14.5442 54.9679 12.4076H57.8163C61.3724 16.6721 54.9679 26.6049 62.7966 24.4771C66.3527 23.0556 59.9482 12.4076 66.3527 15.2506C68.4846 16.6721 67.7769 21.6429 71.333 23.7707C75.5968 25.1922 77.7375 20.9278 76.3133 18.0935L76.3045 18.0848Z" fill="#1398FE"/>
<path d="M69.2452 10.5934C69.9005 12.8259 70.2588 15.1893 70.2588 17.6311C70.2588 31.4883 59.005 42.7205 45.1214 42.7205C42.6749 42.7205 40.3071 42.363 38.0703 41.7089C40.875 51.3192 50.7133 59.7608 62.1942 59.7608C76.0778 59.7608 87.3316 48.5285 87.3316 34.6713C87.3316 23.2646 79.6951 13.637 69.2452 10.5934Z" fill="url(#paint7_linear_1222_1602)"/>
<path opacity="0.7" d="M52.2159 17.5876C52.9761 18.5818 52.181 20.448 50.451 21.7561C48.721 23.0642 46.7026 23.3171 45.9512 22.3142C45.1998 21.3201 45.9862 19.4538 47.7162 18.1457C49.4462 16.8376 51.4645 16.5847 52.2159 17.5876Z" fill="#1BC1FD"/>
<g filter="url(#filter0_biiii_1222_1602)">
<path d="M37.3486 0.424438L74.0986 63.4244H0.598633L37.3486 0.424438Z" fill="url(#paint8_linear_1222_1602)"/>
</g>
<defs>
<filter id="filter0_biiii_1222_1602" x="-17.9595" y="-18.1337" width="110.616" height="100.116" filterUnits="userSpaceOnUse" color-interpolation-filters="sRGB">
<feFlood flood-opacity="0" result="BackgroundImageFix"/>
<feGaussianBlur in="BackgroundImageFix" stdDeviation="9.27907"/>
<feComposite in2="SourceAlpha" operator="in" result="effect1_backgroundBlur_1222_1602"/>
<feBlend mode="normal" in="SourceGraphic" in2="effect1_backgroundBlur_1222_1602" result="shape"/>
<feColorMatrix in="SourceAlpha" type="matrix" values="0 0 0 0 0 0 0 0 0 0 0 0 0 0 0 0 0 0 127 0" result="hardAlpha"/>
<feOffset dx="8.83721" dy="8.83721"/>
<feGaussianBlur stdDeviation="10.1628"/>
<feComposite in2="hardAlpha" operator="arithmetic" k2="-1" k3="1"/>
<feColorMatrix type="matrix" values="0 0 0 0 0.113725 0 0 0 0 0.8 0 0 0 0 0.996078 0 0 0 0.18 0"/>
<feBlend mode="normal" in2="shape" result="effect2_innerShadow_1222_1602"/>
<feColorMatrix in="SourceAlpha" type="matrix" values="0 0 0 0 0 0 0 0 0 0 0 0 0 0 0 0 0 0 127 0" result="hardAlpha"/>
<feMorphology radius="1.76744" operator="erode" in="SourceAlpha" result="effect3_innerShadow_1222_1602"/>
<feOffset dy="1.76744"/>
<feGaussianBlur stdDeviation="2.65116"/>
<feComposite in2="hardAlpha" operator="arithmetic" k2="-1" k3="1"/>
<feColorMatrix type="matrix" values="0 0 0 0 1 0 0 0 0 1 0 0 0 0 1 0 0 0 0.05 0"/>
<feBlend mode="normal" in2="effect2_innerShadow_1222_1602" result="effect3_innerShadow_1222_1602"/>
<feColorMatrix in="SourceAlpha" type="matrix" values="0 0 0 0 0 0 0 0 0 0 0 0 0 0 0 0 0 0 127 0" result="hardAlpha"/>
<feOffset dy="0.883721"/>
<feComposite in2="hardAlpha" operator="arithmetic" k2="-1" k3="1"/>
<feColorMatrix type="matrix" values="0 0 0 0 1 0 0 0 0 1 0 0 0 0 1 0 0 0 0.05 0"/>
<feBlend mode="normal" in2="effect3_innerShadow_1222_1602" result="effect4_innerShadow_1222_1602"/>
<feColorMatrix in="SourceAlpha" type="matrix" values="0 0 0 0 0 0 0 0 0 0 0 0 0 0 0 0 0 0 127 0" result="hardAlpha"/>
<feOffset dy="-8.83721"/>
<feGaussianBlur stdDeviation="4.4186"/>
<feComposite in2="hardAlpha" operator="arithmetic" k2="-1" k3="1"/>
<feColorMatrix type="matrix" values="0 0 0 0 0.113725 0 0 0 0 0.8 0 0 0 0 0.996078 0 0 0 0.3 0"/>
<feBlend mode="overlay" in2="effect4_innerShadow_1222_1602" result="effect5_innerShadow_1222_1602"/>
</filter>
<linearGradient id="paint0_linear_1222_1602" x1="88.1714" y1="9.62216" x2="39.2279" y2="57.1474" gradientUnits="userSpaceOnUse">
<stop stop-color="#1ED6FF"/>
<stop offset="1" stop-color="#0F80FE"/>
</linearGradient>
<linearGradient id="paint1_linear_1222_1602" x1="85.4261" y1="12.9705" x2="65.1965" y2="45.3642" gradientUnits="userSpaceOnUse">
<stop stop-color="#1ED6FF"/>
<stop offset="1" stop-color="#0F80FE"/>
</linearGradient>
<linearGradient id="paint2_linear_1222_1602" x1="51.9009" y1="55.7311" x2="50.476" y2="58.2882" gradientUnits="userSpaceOnUse">
<stop stop-color="#1ED6FF"/>
<stop offset="1" stop-color="#0F80FE"/>
</linearGradient>
<linearGradient id="paint3_linear_1222_1602" x1="82.5518" y1="49.2517" x2="75.5041" y2="66.2404" gradientUnits="userSpaceOnUse">
<stop stop-color="#1ED6FF"/>
<stop offset="1" stop-color="#0F80FE"/>
</linearGradient>
<linearGradient id="paint4_linear_1222_1602" x1="85.2171" y1="39.5124" x2="71.8038" y2="70.9216" gradientUnits="userSpaceOnUse">
<stop stop-color="#1ED6FF"/>
<stop offset="1" stop-color="#0F80FE"/>
</linearGradient>
<linearGradient id="paint5_linear_1222_1602" x1="87.0577" y1="22.1918" x2="59.6864" y2="63.9339" gradientUnits="userSpaceOnUse">
<stop stop-color="#1ED6FF"/>
<stop offset="1" stop-color="#0F80FE"/>
</linearGradient>
<linearGradient id="paint6_linear_1222_1602" x1="87.0687" y1="16.2944" x2="59.9029" y2="55.7399" gradientUnits="userSpaceOnUse">
<stop stop-color="#1ED6FF"/>
<stop offset="1" stop-color="#0F80FE"/>
</linearGradient>
<linearGradient id="paint7_linear_1222_1602" x1="54.6888" y1="30.468" x2="78.6707" y2="54.4957" gradientUnits="userSpaceOnUse">
<stop stop-opacity="0.09"/>
<stop offset="1" stop-color="#404040" stop-opacity="0"/>
</linearGradient>
<linearGradient id="paint8_linear_1222_1602" x1="37.3486" y1="125.13" x2="0.555285" y2="11.3501" gradientUnits="userSpaceOnUse">
<stop stop-color="#1ABEFF" stop-opacity="0.01"/>
<stop offset="1" stop-color="#1ABEFF" stop-opacity="0.12"/>
</linearGradient>
</defs>
</svg>

