<svg width="76" height="67" viewBox="0 0 76 67" fill="none" xmlns="http://www.w3.org/2000/svg">
<circle cx="27.1533" cy="26.6686" r="26.25" fill="url(#paint0_linear_1222_1623)"/>
<path d="M5.20544 33.7584C4.19581 33.0883 3.14151 32.6148 2.06934 32.311C2.75731 35.3845 3.99924 38.2526 5.67898 40.8079C6.97452 38.0203 8.15392 35.6079 5.19651 33.7584H5.20544Z" fill="url(#paint1_linear_1222_1623)"/>
<path d="M29.213 38.8511C14.6672 46.124 11.0307 29.3981 2.30144 22.1163C2.19422 22.0091 2.06021 21.9197 1.90832 21.8483C1.61347 23.4119 1.45264 25.0112 1.45264 26.6552C1.45264 28.594 1.67601 30.4882 2.08701 32.302C3.15918 32.6057 4.20455 33.0703 5.22311 33.7494C8.18052 35.5989 7.00114 38.0113 5.7056 40.7989C8.15372 44.5069 11.5311 47.5357 15.507 49.5639C23.2267 42.5055 33.0728 42.6842 42.3203 44.6677C43.0797 44.6677 43.9285 44.9357 44.7327 45.4003C48.0296 42.3089 50.5135 38.3508 51.818 33.8923C49.486 31.6765 46.9664 29.7287 43.7677 28.6566C35.7622 25.7438 35.0384 35.9295 29.2219 38.8422L29.213 38.8511Z" fill="url(#paint2_linear_1222_1623)"/>
<path d="M15.4893 49.5729C18.9917 51.3598 22.9498 52.3695 27.1491 52.3695C33.9485 52.3695 40.1314 49.7248 44.7238 45.4093C43.9108 44.9447 43.062 44.6766 42.3114 44.6766C33.064 42.6931 23.2178 42.5144 15.4982 49.5729H15.4893Z" fill="url(#paint3_linear_1222_1623)"/>
<path d="M13.2115 19.2128C15.6596 15.7819 11.5139 13.0121 7.20733 10.4567C5.62588 12.4045 4.3214 14.5935 3.35645 16.9612C7.6094 20.0348 10.7455 24.6362 13.2115 19.2128Z" fill="#0F80FE" fill-opacity="0.5"/>
<path d="M52.5149 22.4918C47.4578 24.1179 42.3382 23.6086 39.3986 20.6691C36.6199 17.3364 43.1781 14.8525 47.7259 11.2697C46.6537 9.84011 45.4385 8.5267 44.0983 7.34731C41.3464 7.51707 38.5588 8.63392 36.4948 11.2071C32.8584 17.7563 34.3148 25.753 28.4893 29.3894C24.8528 31.5695 21.9401 28.6657 19.76 26.4767C15.3909 20.6601 19.0363 10.4745 11.7545 6.83803C11.54 6.73974 11.3256 6.65933 11.1112 6.57892C9.67266 7.7315 8.36819 9.02705 7.20667 10.4566C11.5132 13.012 15.659 15.7817 13.2108 19.2127C10.7448 24.6361 7.60874 20.0347 3.35579 16.9611C2.72142 18.5247 2.22107 20.1598 1.89941 21.8574C2.05131 21.9289 2.18533 22.0182 2.29255 22.1254C11.0218 29.3983 14.6583 46.1332 29.2041 38.8603C35.0206 35.9475 35.7533 25.7619 43.7499 28.6746C46.9485 29.7379 49.4681 31.6946 51.8001 33.9104C52.4702 31.6142 52.8365 29.1839 52.8365 26.6732C52.8365 25.2526 52.7204 23.8588 52.497 22.5007L52.5149 22.4918Z" fill="url(#paint4_linear_1222_1623)"/>
<path d="M39.3992 20.6693C42.3387 23.6088 47.4494 24.1181 52.5155 22.492C51.8364 18.3284 50.1567 14.5043 47.7264 11.2699C43.1786 14.8527 36.6205 17.3366 39.3992 20.6693Z" fill="url(#paint5_linear_1222_1623)"/>
<path d="M21.9405 11.9395C21.9405 14.1196 24.8532 16.3086 27.757 15.5759C32.832 12.7526 31.7866 6.87348 31.4024 1.32498C30.0175 1.09268 28.5969 0.96759 27.1495 0.96759C25.6216 0.96759 24.1206 1.10161 22.6731 1.36072C23.1645 4.52363 21.5027 8.8838 21.9405 11.9484V11.9395Z" fill="url(#paint6_linear_1222_1623)"/>
<path d="M31.4021 1.31604C31.7863 6.86454 32.8316 12.7526 27.7567 15.567C24.8439 16.2907 21.9401 14.1106 21.9401 11.9306C21.5023 8.87486 23.1642 4.50576 22.6728 1.34284C18.3573 2.1023 14.4081 3.94287 11.1201 6.57863C11.3346 6.65904 11.549 6.73945 11.7634 6.83773C19.0363 10.4742 15.3999 20.6598 19.769 26.4764C21.9491 28.6565 24.8618 31.5692 28.4983 29.3891C34.3148 25.7527 32.8584 17.7471 36.5038 11.2068C38.5677 8.62469 41.3643 7.51678 44.1073 7.34701C40.5959 4.26452 36.2268 2.12017 31.411 1.31604H31.4021Z" fill="url(#paint7_linear_1222_1623)"/>
<path d="M23.1373 36.3676C22.7263 37.4308 20.8321 37.6899 18.9022 36.9483C16.9723 36.2068 15.7393 34.7414 16.1503 33.6782C16.5613 32.615 18.4555 32.3559 20.3854 33.0974C22.3153 33.839 23.5483 35.3043 23.1373 36.3676Z" fill="#055DB6"/>
<path d="M29.0698 23.3405C29.4093 24.8237 28.0601 26.4051 26.0409 26.8698C24.0306 27.3344 22.1185 26.5124 21.7701 25.0292C21.4305 23.546 22.7797 21.9646 24.7989 21.5C26.8093 21.0353 28.7213 21.8573 29.0698 23.3405Z" fill="#1CBFFD"/>
<path d="M43.3119 36.0546C42.6239 37.4127 41.0067 37.9667 39.6933 37.3055C38.3888 36.6443 37.8796 35.0003 38.5675 33.6512C39.2555 32.2931 40.8727 31.7391 42.1861 32.4003C43.4995 33.0615 43.9999 34.7055 43.3119 36.0546Z" fill="url(#paint8_linear_1222_1623)"/>
<path d="M31.1606 46.812C31.2142 47.5625 30.0706 48.2595 28.6053 48.3577C27.14 48.456 25.907 47.9289 25.8534 47.1783C25.7998 46.4278 26.9434 45.7309 28.4087 45.6326C29.874 45.5344 31.107 46.0615 31.1517 46.812H31.1606Z" fill="#228778"/>
<path d="M20.358 4.82778C20.7065 5.49788 19.9202 6.58793 18.6157 7.25803C17.3113 7.92814 15.971 7.92814 15.6226 7.25803C15.2831 6.58793 16.0604 5.49788 17.3649 4.82778C18.6693 4.15767 20.0096 4.15767 20.3491 4.82778H20.358Z" fill="#1CBFFD"/>
<path d="M46.8334 18.4531C46.887 19.2036 45.7522 19.9005 44.2869 20.0167C42.8216 20.1239 41.5886 19.6057 41.535 18.8552C41.4814 18.1046 42.6161 17.4077 44.0814 17.2916C45.5467 17.1844 46.7797 17.7026 46.8334 18.4531Z" fill="#36EAC7"/>
<path d="M34.3598 1.99536C35.0299 4.28266 35.3962 6.70399 35.3962 9.20573C35.3962 23.4031 23.8882 34.9111 9.69083 34.9111C7.18909 34.9111 4.76777 34.5448 2.48047 33.8746C5.59871 44.5606 15.4627 52.3696 27.1494 52.3696C41.3468 52.3696 52.8547 40.8616 52.8547 26.6643C52.8547 14.9776 45.0458 5.1136 34.3598 1.99536Z" fill="url(#paint9_linear_1222_1623)"/>
<path opacity="0.7" d="M21.0021 8.07962C21.7705 9.09818 20.9663 11.0102 19.1972 12.3504C17.4282 13.6907 15.3642 13.9498 14.5958 12.9223C13.8275 11.9037 14.6316 9.99166 16.4007 8.65145C18.1697 7.31123 20.2337 7.05212 21.0021 8.07962Z" fill="white"/>
<g filter="url(#filter0_biiii_1222_1623)">
<path d="M0.848633 51.2296L45.8486 6.22961L75.8486 28.7296L45.8486 66.2296L0.848633 51.2296Z" fill="url(#paint10_linear_1222_1623)"/>
</g>
<defs>
<filter id="filter0_biiii_1222_1623" x="-17.7095" y="-12.3285" width="112.116" height="97.1163" filterUnits="userSpaceOnUse" color-interpolation-filters="sRGB">
<feFlood flood-opacity="0" result="BackgroundImageFix"/>
<feGaussianBlur in="BackgroundImageFix" stdDeviation="9.27907"/>
<feComposite in2="SourceAlpha" operator="in" result="effect1_backgroundBlur_1222_1623"/>
<feBlend mode="normal" in="SourceGraphic" in2="effect1_backgroundBlur_1222_1623" result="shape"/>
<feColorMatrix in="SourceAlpha" type="matrix" values="0 0 0 0 0 0 0 0 0 0 0 0 0 0 0 0 0 0 127 0" result="hardAlpha"/>
<feOffset dx="8.83721" dy="8.83721"/>
<feGaussianBlur stdDeviation="10.1628"/>
<feComposite in2="hardAlpha" operator="arithmetic" k2="-1" k3="1"/>
<feColorMatrix type="matrix" values="0 0 0 0 0.0901961 0 0 0 0 0.678431 0 0 0 0 1 0 0 0 0.18 0"/>
<feBlend mode="normal" in2="shape" result="effect2_innerShadow_1222_1623"/>
<feColorMatrix in="SourceAlpha" type="matrix" values="0 0 0 0 0 0 0 0 0 0 0 0 0 0 0 0 0 0 127 0" result="hardAlpha"/>
<feMorphology radius="1.76744" operator="erode" in="SourceAlpha" result="effect3_innerShadow_1222_1623"/>
<feOffset dy="1.76744"/>
<feGaussianBlur stdDeviation="2.65116"/>
<feComposite in2="hardAlpha" operator="arithmetic" k2="-1" k3="1"/>
<feColorMatrix type="matrix" values="0 0 0 0 1 0 0 0 0 1 0 0 0 0 1 0 0 0 0.05 0"/>
<feBlend mode="normal" in2="effect2_innerShadow_1222_1623" result="effect3_innerShadow_1222_1623"/>
<feColorMatrix in="SourceAlpha" type="matrix" values="0 0 0 0 0 0 0 0 0 0 0 0 0 0 0 0 0 0 127 0" result="hardAlpha"/>
<feOffset dy="0.883721"/>
<feComposite in2="hardAlpha" operator="arithmetic" k2="-1" k3="1"/>
<feColorMatrix type="matrix" values="0 0 0 0 1 0 0 0 0 1 0 0 0 0 1 0 0 0 0.05 0"/>
<feBlend mode="normal" in2="effect3_innerShadow_1222_1623" result="effect4_innerShadow_1222_1623"/>
<feColorMatrix in="SourceAlpha" type="matrix" values="0 0 0 0 0 0 0 0 0 0 0 0 0 0 0 0 0 0 127 0" result="hardAlpha"/>
<feOffset dy="-8.83721"/>
<feGaussianBlur stdDeviation="4.4186"/>
<feComposite in2="hardAlpha" operator="arithmetic" k2="-1" k3="1"/>
<feColorMatrix type="matrix" values="0 0 0 0 0.0901961 0 0 0 0 0.678431 0 0 0 0 1 0 0 0 0.4 0"/>
<feBlend mode="overlay" in2="effect4_innerShadow_1222_1623" result="effect5_innerShadow_1222_1623"/>
</filter>
<linearGradient id="paint0_linear_1222_1623" x1="53.127" y1="1.66293" x2="4.18343" y2="49.1882" gradientUnits="userSpaceOnUse">
<stop stop-color="#1ED6FF"/>
<stop offset="1" stop-color="#0F80FE"/>
</linearGradient>
<linearGradient id="paint1_linear_1222_1623" x1="7.01687" y1="32.5124" x2="0.207886" y2="36.3825" gradientUnits="userSpaceOnUse">
<stop stop-color="#1ED6FF"/>
<stop offset="1" stop-color="#0F80FE"/>
</linearGradient>
<linearGradient id="paint2_linear_1222_1623" x1="51.5529" y1="22.5052" x2="29.3767" y2="61.6363" gradientUnits="userSpaceOnUse">
<stop stop-color="#1ED6FF"/>
<stop offset="1" stop-color="#0F80FE"/>
</linearGradient>
<linearGradient id="paint3_linear_1222_1623" x1="44.57" y1="43.7" x2="39.8504" y2="58.7876" gradientUnits="userSpaceOnUse">
<stop stop-color="#1ED6FF"/>
<stop offset="1" stop-color="#0F80FE"/>
</linearGradient>
<linearGradient id="paint4_linear_1222_1623" x1="52.5685" y1="7.38653" x2="22.875" y2="50.4892" gradientUnits="userSpaceOnUse">
<stop stop-color="#1ED6FF"/>
<stop offset="1" stop-color="#0F80FE"/>
</linearGradient>
<linearGradient id="paint5_linear_1222_1623" x1="52.4429" y1="11.5575" x2="41.1788" y2="23.9779" gradientUnits="userSpaceOnUse">
<stop stop-color="#1ED6FF"/>
<stop offset="1" stop-color="#0F80FE"/>
</linearGradient>
<linearGradient id="paint6_linear_1222_1623" x1="31.7061" y1="1.31725" x2="19.1233" y2="9.50985" gradientUnits="userSpaceOnUse">
<stop stop-color="#0F80FE" stop-opacity="0.4"/>
<stop offset="1" stop-color="#0F80FE" stop-opacity="0.6"/>
</linearGradient>
<linearGradient id="paint7_linear_1222_1623" x1="43.9337" y1="1.99971" x2="17.1788" y2="31.7107" gradientUnits="userSpaceOnUse">
<stop stop-color="#1ED6FF"/>
<stop offset="1" stop-color="#0F80FE"/>
</linearGradient>
<linearGradient id="paint8_linear_1222_1623" x1="43.5922" y1="32.2511" x2="38.5034" y2="37.0993" gradientUnits="userSpaceOnUse">
<stop stop-color="#1ED6FF"/>
<stop offset="1" stop-color="#0F80FE"/>
</linearGradient>
<linearGradient id="paint9_linear_1222_1623" x1="26.9617" y1="27.3971" x2="43.491" y2="47.0536" gradientUnits="userSpaceOnUse">
<stop stop-opacity="0.1"/>
<stop offset="1" stop-color="#404040" stop-opacity="0"/>
</linearGradient>
<linearGradient id="paint10_linear_1222_1623" x1="45.8486" y1="154.689" x2="-3.564" y2="23.7139" gradientUnits="userSpaceOnUse">
<stop stop-color="#1ABEFF" stop-opacity="0.01"/>
<stop offset="1" stop-color="#1ABEFF" stop-opacity="0.12"/>
</linearGradient>
</defs>
</svg>


