<svg width="459" height="69" viewBox="0 0 459 69" fill="none" xmlns="http://www.w3.org/2000/svg">
<mask id="path-1-outside-1_1222_1544" maskUnits="userSpaceOnUse" x="-0.75" y="-0.75" width="460" height="70" fill="black">
<rect fill="white" x="-0.75" y="-0.75" width="460" height="70"/>
<path d="M13.2163 24.68C14.8363 22.28 17.0563 20.33 19.8763 18.83C22.7563 17.33 26.0263 16.58 29.6863 16.58C33.9463 16.58 37.7863 17.63 41.2063 19.73C44.6863 21.83 47.4163 24.83 49.3963 28.73C51.4363 32.57 52.4563 37.04 52.4563 42.14C52.4563 47.24 51.4363 51.77 49.3963 55.73C47.4163 59.63 44.6863 62.66 41.2063 64.82C37.7863 66.98 33.9463 68.06 29.6863 68.06C25.9663 68.06 22.6963 67.34 19.8763 65.9C17.1163 64.4 14.8963 62.48 13.2163 60.14V67.25H0.616251V0.649999H13.2163V24.68ZM39.5863 42.14C39.5863 39.14 38.9563 36.56 37.6963 34.4C36.4963 32.18 34.8763 30.5 32.8363 29.36C30.8563 28.22 28.6963 27.65 26.3563 27.65C24.0763 27.65 21.9163 28.25 19.8763 29.45C17.8963 30.59 16.2763 32.27 15.0163 34.49C13.8163 36.71 13.2163 39.32 13.2163 42.32C13.2163 45.32 13.8163 47.93 15.0163 50.15C16.2763 52.37 17.8963 54.08 19.8763 55.28C21.9163 56.42 24.0763 56.99 26.3563 56.99C28.6963 56.99 30.8563 56.39 32.8363 55.19C34.8763 53.99 36.4963 52.28 37.6963 50.06C38.9563 47.84 39.5863 45.2 39.5863 42.14ZM74.2123 0.649999V67.25H61.6123V0.649999H74.2123ZM133.731 17.39V67.25H121.041V60.95C119.421 63.11 117.291 64.82 114.651 66.08C112.071 67.28 109.251 67.88 106.191 67.88C102.291 67.88 98.8412 67.07 95.8412 65.45C92.8412 63.77 90.4712 61.34 88.7312 58.16C87.0512 54.92 86.2112 51.08 86.2112 46.64V17.39H98.8112V44.84C98.8112 48.8 99.8012 51.86 101.781 54.02C103.761 56.12 106.461 57.17 109.881 57.17C113.361 57.17 116.091 56.12 118.071 54.02C120.051 51.86 121.041 48.8 121.041 44.84V17.39H133.731ZM192.513 41.24C192.513 43.04 192.393 44.66 192.153 46.1H155.703C156.003 49.7 157.263 52.52 159.483 54.56C161.703 56.6 164.433 57.62 167.673 57.62C172.353 57.62 175.683 55.61 177.663 51.59H191.253C189.813 56.39 187.053 60.35 182.973 63.47C178.893 66.53 173.883 68.06 167.943 68.06C163.143 68.06 158.823 67.01 154.983 64.91C151.203 62.75 148.233 59.72 146.073 55.82C143.973 51.92 142.923 47.42 142.923 42.32C142.923 37.16 143.973 32.63 146.073 28.73C148.173 24.83 151.113 21.83 154.893 19.73C158.673 17.63 163.023 16.58 167.943 16.58C172.683 16.58 176.913 17.6 180.633 19.64C184.413 21.68 187.323 24.59 189.363 28.37C191.463 32.09 192.513 36.38 192.513 41.24ZM179.463 37.64C179.403 34.4 178.233 31.82 175.953 29.9C173.673 27.92 170.883 26.93 167.583 26.93C164.463 26.93 161.823 27.89 159.663 29.81C157.563 31.67 156.273 34.28 155.793 37.64H179.463ZM263.63 16.67C269.75 16.67 274.67 18.56 278.39 22.34C282.17 26.06 284.06 31.28 284.06 38V67.25H271.46V39.71C271.46 35.81 270.47 32.84 268.49 30.8C266.51 28.7 263.81 27.65 260.39 27.65C256.97 27.65 254.24 28.7 252.2 30.8C250.22 32.84 249.23 35.81 249.23 39.71V67.25H236.63V39.71C236.63 35.81 235.64 32.84 233.66 30.8C231.68 28.7 228.98 27.65 225.56 27.65C222.08 27.65 219.32 28.7 217.28 30.8C215.3 32.84 214.31 35.81 214.31 39.71V67.25H201.71V17.39H214.31V23.42C215.93 21.32 218 19.67 220.52 18.47C223.1 17.27 225.92 16.67 228.98 16.67C232.88 16.67 236.36 17.51 239.42 19.19C242.48 20.81 244.85 23.15 246.53 26.21C248.15 23.33 250.49 21.02 253.55 19.28C256.67 17.54 260.03 16.67 263.63 16.67ZM318.157 68.06C313.357 68.06 309.037 67.01 305.197 64.91C301.357 62.75 298.327 59.72 296.107 55.82C293.947 51.92 292.867 47.42 292.867 42.32C292.867 37.22 293.977 32.72 296.197 28.82C298.477 24.92 301.567 21.92 305.467 19.82C309.367 17.66 313.717 16.58 318.517 16.58C323.317 16.58 327.667 17.66 331.567 19.82C335.467 21.92 338.527 24.92 340.747 28.82C343.027 32.72 344.167 37.22 344.167 42.32C344.167 47.42 342.997 51.92 340.657 55.82C338.377 59.72 335.257 62.75 331.297 64.91C327.397 67.01 323.017 68.06 318.157 68.06ZM318.157 57.08C320.437 57.08 322.567 56.54 324.547 55.46C326.587 54.32 328.207 52.64 329.407 50.42C330.607 48.2 331.207 45.5 331.207 42.32C331.207 37.58 329.947 33.95 327.427 31.43C324.967 28.85 321.937 27.56 318.337 27.56C314.737 27.56 311.707 28.85 309.247 31.43C306.847 33.95 305.647 37.58 305.647 42.32C305.647 47.06 306.817 50.72 309.157 53.3C311.557 55.82 314.557 57.08 318.157 57.08ZM375.549 68.06C370.749 68.06 366.429 67.01 362.589 64.91C358.749 62.75 355.719 59.72 353.499 55.82C351.339 51.92 350.259 47.42 350.259 42.32C350.259 37.22 351.369 32.72 353.589 28.82C355.869 24.92 358.959 21.92 362.859 19.82C366.759 17.66 371.109 16.58 375.909 16.58C380.709 16.58 385.059 17.66 388.959 19.82C392.859 21.92 395.919 24.92 398.139 28.82C400.419 32.72 401.559 37.22 401.559 42.32C401.559 47.42 400.389 51.92 398.049 55.82C395.769 59.72 392.649 62.75 388.689 64.91C384.789 67.01 380.409 68.06 375.549 68.06ZM375.549 57.08C377.829 57.08 379.959 56.54 381.939 55.46C383.979 54.32 385.599 52.64 386.799 50.42C387.999 48.2 388.599 45.5 388.599 42.32C388.599 37.58 387.339 33.95 384.819 31.43C382.359 28.85 379.329 27.56 375.729 27.56C372.129 27.56 369.099 28.85 366.639 31.43C364.239 33.95 363.039 37.58 363.039 42.32C363.039 47.06 364.209 50.72 366.549 53.3C368.949 55.82 371.949 57.08 375.549 57.08ZM438.432 16.67C444.372 16.67 449.172 18.56 452.832 22.34C456.492 26.06 458.322 31.28 458.322 38V67.25H445.722V39.71C445.722 35.75 444.732 32.72 442.752 30.62C440.772 28.46 438.072 27.38 434.652 27.38C431.172 27.38 428.412 28.46 426.372 30.62C424.392 32.72 423.402 35.75 423.402 39.71V67.25H410.802V17.39H423.402V23.6C425.082 21.44 427.212 19.76 429.792 18.56C432.432 17.3 435.312 16.67 438.432 16.67Z"/>
</mask>
<path d="M13.2163 24.68C14.8363 22.28 17.0563 20.33 19.8763 18.83C22.7563 17.33 26.0263 16.58 29.6863 16.58C33.9463 16.58 37.7863 17.63 41.2063 19.73C44.6863 21.83 47.4163 24.83 49.3963 28.73C51.4363 32.57 52.4563 37.04 52.4563 42.14C52.4563 47.24 51.4363 51.77 49.3963 55.73C47.4163 59.63 44.6863 62.66 41.2063 64.82C37.7863 66.98 33.9463 68.06 29.6863 68.06C25.9663 68.06 22.6963 67.34 19.8763 65.9C17.1163 64.4 14.8963 62.48 13.2163 60.14V67.25H0.616251V0.649999H13.2163V24.68ZM39.5863 42.14C39.5863 39.14 38.9563 36.56 37.6963 34.4C36.4963 32.18 34.8763 30.5 32.8363 29.36C30.8563 28.22 28.6963 27.65 26.3563 27.65C24.0763 27.65 21.9163 28.25 19.8763 29.45C17.8963 30.59 16.2763 32.27 15.0163 34.49C13.8163 36.71 13.2163 39.32 13.2163 42.32C13.2163 45.32 13.8163 47.93 15.0163 50.15C16.2763 52.37 17.8963 54.08 19.8763 55.28C21.9163 56.42 24.0763 56.99 26.3563 56.99C28.6963 56.99 30.8563 56.39 32.8363 55.19C34.8763 53.99 36.4963 52.28 37.6963 50.06C38.9563 47.84 39.5863 45.2 39.5863 42.14ZM74.2123 0.649999V67.25H61.6123V0.649999H74.2123ZM133.731 17.39V67.25H121.041V60.95C119.421 63.11 117.291 64.82 114.651 66.08C112.071 67.28 109.251 67.88 106.191 67.88C102.291 67.88 98.8412 67.07 95.8412 65.45C92.8412 63.77 90.4712 61.34 88.7312 58.16C87.0512 54.92 86.2112 51.08 86.2112 46.64V17.39H98.8112V44.84C98.8112 48.8 99.8012 51.86 101.781 54.02C103.761 56.12 106.461 57.17 109.881 57.17C113.361 57.17 116.091 56.12 118.071 54.02C120.051 51.86 121.041 48.8 121.041 44.84V17.39H133.731ZM192.513 41.24C192.513 43.04 192.393 44.66 192.153 46.1H155.703C156.003 49.7 157.263 52.52 159.483 54.56C161.703 56.6 164.433 57.62 167.673 57.62C172.353 57.62 175.683 55.61 177.663 51.59H191.253C189.813 56.39 187.053 60.35 182.973 63.47C178.893 66.53 173.883 68.06 167.943 68.06C163.143 68.06 158.823 67.01 154.983 64.91C151.203 62.75 148.233 59.72 146.073 55.82C143.973 51.92 142.923 47.42 142.923 42.32C142.923 37.16 143.973 32.63 146.073 28.73C148.173 24.83 151.113 21.83 154.893 19.73C158.673 17.63 163.023 16.58 167.943 16.58C172.683 16.58 176.913 17.6 180.633 19.64C184.413 21.68 187.323 24.59 189.363 28.37C191.463 32.09 192.513 36.38 192.513 41.24ZM179.463 37.64C179.403 34.4 178.233 31.82 175.953 29.9C173.673 27.92 170.883 26.93 167.583 26.93C164.463 26.93 161.823 27.89 159.663 29.81C157.563 31.67 156.273 34.28 155.793 37.64H179.463ZM263.63 16.67C269.75 16.67 274.67 18.56 278.39 22.34C282.17 26.06 284.06 31.28 284.06 38V67.25H271.46V39.71C271.46 35.81 270.47 32.84 268.49 30.8C266.51 28.7 263.81 27.65 260.39 27.65C256.97 27.65 254.24 28.7 252.2 30.8C250.22 32.84 249.23 35.81 249.23 39.71V67.25H236.63V39.71C236.63 35.81 235.64 32.84 233.66 30.8C231.68 28.7 228.98 27.65 225.56 27.65C222.08 27.65 219.32 28.7 217.28 30.8C215.3 32.84 214.31 35.81 214.31 39.71V67.25H201.71V17.39H214.31V23.42C215.93 21.32 218 19.67 220.52 18.47C223.1 17.27 225.92 16.67 228.98 16.67C232.88 16.67 236.36 17.51 239.42 19.19C242.48 20.81 244.85 23.15 246.53 26.21C248.15 23.33 250.49 21.02 253.55 19.28C256.67 17.54 260.03 16.67 263.63 16.67ZM318.157 68.06C313.357 68.06 309.037 67.01 305.197 64.91C301.357 62.75 298.327 59.72 296.107 55.82C293.947 51.92 292.867 47.42 292.867 42.32C292.867 37.22 293.977 32.72 296.197 28.82C298.477 24.92 301.567 21.92 305.467 19.82C309.367 17.66 313.717 16.58 318.517 16.58C323.317 16.58 327.667 17.66 331.567 19.82C335.467 21.92 338.527 24.92 340.747 28.82C343.027 32.72 344.167 37.22 344.167 42.32C344.167 47.42 342.997 51.92 340.657 55.82C338.377 59.72 335.257 62.75 331.297 64.91C327.397 67.01 323.017 68.06 318.157 68.06ZM318.157 57.08C320.437 57.08 322.567 56.54 324.547 55.46C326.587 54.32 328.207 52.64 329.407 50.42C330.607 48.2 331.207 45.5 331.207 42.32C331.207 37.58 329.947 33.95 327.427 31.43C324.967 28.85 321.937 27.56 318.337 27.56C314.737 27.56 311.707 28.85 309.247 31.43C306.847 33.95 305.647 37.58 305.647 42.32C305.647 47.06 306.817 50.72 309.157 53.3C311.557 55.82 314.557 57.08 318.157 57.08ZM375.549 68.06C370.749 68.06 366.429 67.01 362.589 64.91C358.749 62.75 355.719 59.72 353.499 55.82C351.339 51.92 350.259 47.42 350.259 42.32C350.259 37.22 351.369 32.72 353.589 28.82C355.869 24.92 358.959 21.92 362.859 19.82C366.759 17.66 371.109 16.58 375.909 16.58C380.709 16.58 385.059 17.66 388.959 19.82C392.859 21.92 395.919 24.92 398.139 28.82C400.419 32.72 401.559 37.22 401.559 42.32C401.559 47.42 400.389 51.92 398.049 55.82C395.769 59.72 392.649 62.75 388.689 64.91C384.789 67.01 380.409 68.06 375.549 68.06ZM375.549 57.08C377.829 57.08 379.959 56.54 381.939 55.46C383.979 54.32 385.599 52.64 386.799 50.42C387.999 48.2 388.599 45.5 388.599 42.32C388.599 37.58 387.339 33.95 384.819 31.43C382.359 28.85 379.329 27.56 375.729 27.56C372.129 27.56 369.099 28.85 366.639 31.43C364.239 33.95 363.039 37.58 363.039 42.32C363.039 47.06 364.209 50.72 366.549 53.3C368.949 55.82 371.949 57.08 375.549 57.08ZM438.432 16.67C444.372 16.67 449.172 18.56 452.832 22.34C456.492 26.06 458.322 31.28 458.322 38V67.25H445.722V39.71C445.722 35.75 444.732 32.72 442.752 30.62C440.772 28.46 438.072 27.38 434.652 27.38C431.172 27.38 428.412 28.46 426.372 30.62C424.392 32.72 423.402 35.75 423.402 39.71V67.25H410.802V17.39H423.402V23.6C425.082 21.44 427.212 19.76 429.792 18.56C432.432 17.3 435.312 16.67 438.432 16.67Z" fill="url(#paint0_linear_1222_1544)"/>
<path d="M13.2163 24.68H12.4663V27.1317L13.8379 25.0996L13.2163 24.68ZM19.8763 18.83L19.5298 18.1648L19.524 18.1678L19.8763 18.83ZM41.2063 19.73L40.8138 20.3691L40.8188 20.3721L41.2063 19.73ZM49.3963 28.73L48.7274 29.0696L48.7339 29.0819L49.3963 28.73ZM49.3963 55.73L48.7295 55.3865L48.7275 55.3905L49.3963 55.73ZM41.2063 64.82L40.8107 64.1828L40.8058 64.1859L41.2063 64.82ZM19.8763 65.9L19.5181 66.559L19.5266 66.5636L19.5352 66.568L19.8763 65.9ZM13.2163 60.14L13.8255 59.7026L12.4663 57.8094V60.14H13.2163ZM13.2163 67.25V68H13.9663V67.25H13.2163ZM0.616251 67.25H-0.133749V68H0.616251V67.25ZM0.616251 0.649999V-0.100001H-0.133749V0.649999H0.616251ZM13.2163 0.649999H13.9663V-0.100001H13.2163V0.649999ZM37.6963 34.4L37.0365 34.7566L37.0423 34.7674L37.0484 34.7779L37.6963 34.4ZM32.8363 29.36L32.462 30.01L32.4704 30.0147L32.8363 29.36ZM19.8763 29.45L20.2505 30.1L20.2565 30.0964L19.8763 29.45ZM15.0163 34.49L14.364 34.1198L14.3602 34.1265L14.3565 34.1334L15.0163 34.49ZM15.0163 50.15L14.3565 50.5066L14.3602 50.5135L14.364 50.5202L15.0163 50.15ZM19.8763 55.28L19.4875 55.9214L19.4988 55.9283L19.5104 55.9347L19.8763 55.28ZM32.8363 55.19L32.456 54.5435L32.4475 54.5486L32.8363 55.19ZM37.6963 50.06L37.044 49.6898L37.0402 49.6965L37.0365 49.7034L37.6963 50.06ZM13.8379 25.0996C15.3824 22.8114 17.5054 20.9406 20.2285 19.4922L19.524 18.1678C16.6071 19.7194 14.2901 21.7486 12.5946 24.2604L13.8379 25.0996ZM20.2227 19.4952C22.9828 18.0577 26.1314 17.33 29.6863 17.33V15.83C25.9211 15.83 22.5297 16.6023 19.5298 18.1648L20.2227 19.4952ZM29.6863 17.33C33.8166 17.33 37.5192 18.3461 40.8138 20.3691L41.5987 19.0909C38.0533 16.9139 34.0759 15.83 29.6863 15.83V17.33ZM40.8188 20.3721C44.1693 22.394 46.806 25.2848 48.7275 29.0695L50.065 28.3905C48.0265 24.3752 45.2032 21.266 41.5938 19.0879L40.8188 20.3721ZM48.7339 29.0819C50.7072 32.7962 51.7063 37.1415 51.7063 42.14H53.2063C53.2063 36.9385 52.1654 32.3438 50.0586 28.3781L48.7339 29.0819ZM51.7063 42.14C51.7063 47.1379 50.7073 51.5472 48.7295 55.3865L50.063 56.0735C52.1652 51.9928 53.2063 47.3421 53.2063 42.14H51.7063ZM48.7275 55.3905C46.8052 59.1768 44.1662 62.1001 40.8107 64.1828L41.6018 65.4572C45.2063 63.2199 48.0273 60.0832 50.065 56.0695L48.7275 55.3905ZM40.8058 64.1859C37.5121 66.2661 33.8124 67.31 29.6863 67.31V68.81C34.0801 68.81 38.0604 67.6939 41.6067 65.4541L40.8058 64.1859ZM29.6863 67.31C26.0641 67.31 22.9147 66.6094 20.2173 65.232L19.5352 66.568C22.4778 68.0706 25.8684 68.81 29.6863 68.81V67.31ZM20.2344 65.241C17.5646 63.7901 15.4338 61.9427 13.8255 59.7026L12.607 60.5774C14.3587 63.0173 16.6679 65.0099 19.5181 66.559L20.2344 65.241ZM12.4663 60.14V67.25H13.9663V60.14H12.4663ZM13.2163 66.5H0.616251V68H13.2163V66.5ZM1.36625 67.25V0.649999H-0.133749V67.25H1.36625ZM0.616251 1.4H13.2163V-0.100001H0.616251V1.4ZM12.4663 0.649999V24.68H13.9663V0.649999H12.4663ZM40.3363 42.14C40.3363 39.0338 39.6832 36.3178 38.3441 34.0221L37.0484 34.7779C38.2293 36.8022 38.8363 39.2462 38.8363 42.14H40.3363ZM38.356 34.0434C37.094 31.7085 35.3763 29.9203 33.2021 28.7053L32.4704 30.0147C34.3762 31.0797 35.8985 32.6515 37.0365 34.7566L38.356 34.0434ZM33.2105 28.71C31.1138 27.5029 28.8243 26.9 26.3563 26.9V28.4C28.5682 28.4 30.5987 28.9371 32.462 30.01L33.2105 28.71ZM26.3563 26.9C23.9373 26.9 21.6467 27.5384 19.496 28.8035L20.2565 30.0964C22.1858 28.9615 24.2152 28.4 26.3563 28.4V26.9ZM19.502 28.8C17.3929 30.0144 15.6821 31.7974 14.364 34.1198L15.6685 34.8602C16.8704 32.7426 18.3996 31.1656 20.2505 30.1L19.502 28.8ZM14.3565 34.1334C13.087 36.4818 12.4663 39.2189 12.4663 42.32H13.9663C13.9663 39.4211 14.5455 36.9381 15.676 34.8466L14.3565 34.1334ZM12.4663 42.32C12.4663 45.4211 13.087 48.1581 14.3565 50.5066L15.676 49.7934C14.5455 47.7018 13.9663 45.2189 13.9663 42.32H12.4663ZM14.364 50.5202C15.6806 52.8399 17.387 54.6484 19.4875 55.9214L20.265 54.6386C18.4055 53.5116 16.8719 51.9001 15.6685 49.7798L14.364 50.5202ZM19.5104 55.9347C21.6593 57.1356 23.9449 57.74 26.3563 57.74V56.24C24.2076 56.24 22.1732 55.7044 20.2421 54.6253L19.5104 55.9347ZM26.3563 57.74C28.8318 57.74 31.1264 57.1032 33.225 55.8314L32.4475 54.5486C30.5861 55.6768 28.5607 56.24 26.3563 56.24V57.74ZM33.2165 55.8364C35.3822 54.5625 37.0955 52.7486 38.356 50.4166L37.0365 49.7034C35.897 51.8114 34.3703 53.4175 32.456 54.5435L33.2165 55.8364ZM38.3485 50.4302C39.6842 48.0768 40.3363 45.304 40.3363 42.14H38.8363C38.8363 45.096 38.2283 47.6032 37.044 49.6898L38.3485 50.4302ZM74.2123 0.649999H74.9623V-0.100001H74.2123V0.649999ZM74.2123 67.25V68H74.9623V67.25H74.2123ZM61.6123 67.25H60.8623V68H61.6123V67.25ZM61.6123 0.649999V-0.100001H60.8623V0.649999H61.6123ZM73.4623 0.649999V67.25H74.9623V0.649999H73.4623ZM74.2123 66.5H61.6123V68H74.2123V66.5ZM62.3623 67.25V0.649999H60.8623V67.25H62.3623ZM61.6123 1.4H74.2123V-0.100001H61.6123V1.4ZM133.731 17.39H134.481V16.64H133.731V17.39ZM133.731 67.25V68H134.481V67.25H133.731ZM121.041 67.25H120.291V68H121.041V67.25ZM121.041 60.95H121.791V58.7L120.441 60.5L121.041 60.95ZM114.651 66.08L114.967 66.7601L114.974 66.7569L114.651 66.08ZM95.8412 65.45L95.4747 66.1045L95.4848 66.1099L95.8412 65.45ZM88.7312 58.16L88.0654 58.5052L88.0692 58.5127L88.0732 58.52L88.7312 58.16ZM86.2112 17.39V16.64H85.4612V17.39H86.2112ZM98.8112 17.39H99.5612V16.64H98.8112V17.39ZM101.781 54.02L101.228 54.5268L101.235 54.5345L101.781 54.02ZM118.071 54.02L118.617 54.5346L118.624 54.5268L118.071 54.02ZM121.041 17.39V16.64H120.291V17.39H121.041ZM132.981 17.39V67.25H134.481V17.39H132.981ZM133.731 66.5H121.041V68H133.731V66.5ZM121.791 67.25V60.95H120.291V67.25H121.791ZM120.441 60.5C118.9 62.5552 116.868 64.1908 114.328 65.4031L114.974 66.7569C117.714 65.4492 119.943 63.6648 121.641 61.4L120.441 60.5ZM114.335 65.4C111.861 66.5505 109.15 67.13 106.191 67.13V68.63C109.352 68.63 112.281 68.0095 114.967 66.76L114.335 65.4ZM106.191 67.13C102.398 67.13 99.0732 66.3429 96.1975 64.7901L95.4848 66.1099C98.6092 67.7971 102.185 68.63 106.191 68.63V67.13ZM96.2076 64.7956C93.3373 63.1882 91.0654 60.8635 89.3891 57.8L88.0732 58.52C89.877 61.8165 92.345 64.3518 95.4747 66.1044L96.2076 64.7956ZM89.397 57.8148C87.783 54.7021 86.9612 50.9855 86.9612 46.64H85.4612C85.4612 51.1744 86.3193 55.1379 88.0654 58.5052L89.397 57.8148ZM86.9612 46.64V17.39H85.4612V46.64H86.9612ZM86.2112 18.14H98.8112V16.64H86.2112V18.14ZM98.0612 17.39V44.84H99.5612V17.39H98.0612ZM98.0612 44.84C98.0612 48.9207 99.0826 52.186 101.228 54.5268L102.334 53.5132C100.52 51.534 99.5612 48.6793 99.5612 44.84H98.0612ZM101.235 54.5345C103.383 56.8125 106.296 57.92 109.881 57.92V56.42C106.626 56.42 104.139 55.4275 102.327 53.5055L101.235 54.5345ZM109.881 57.92C113.522 57.92 116.467 56.8152 118.617 54.5345L117.525 53.5055C115.716 55.4248 113.2 56.42 109.881 56.42V57.92ZM118.624 54.5268C120.77 52.186 121.791 48.9207 121.791 44.84H120.291C120.291 48.6793 119.333 51.534 117.518 53.5132L118.624 54.5268ZM121.791 44.84V17.39H120.291V44.84H121.791ZM121.041 18.14H133.731V16.64H121.041V18.14ZM192.153 46.1V46.85H192.788L192.893 46.2233L192.153 46.1ZM155.703 46.1V45.35H154.888L154.956 46.1623L155.703 46.1ZM159.483 54.56L158.976 55.1122L159.483 54.56ZM177.663 51.59V50.84H177.196L176.99 51.2586L177.663 51.59ZM191.253 51.59L191.971 51.8055L192.261 50.84H191.253V51.59ZM182.973 63.47L183.423 64.07L183.429 64.0658L182.973 63.47ZM154.983 64.91L154.611 65.5613L154.623 65.568L154.983 64.91ZM146.073 55.82L145.413 56.1756L145.417 56.1834L146.073 55.82ZM146.073 28.73L145.413 28.3744L146.073 28.73ZM154.893 19.73L155.257 20.3856L154.893 19.73ZM180.633 19.64L180.272 20.2976L180.277 20.3L180.633 19.64ZM189.363 28.37L188.703 28.7262L188.706 28.7325L188.71 28.7387L189.363 28.37ZM179.463 37.64V38.39H180.227L180.213 37.6261L179.463 37.64ZM175.953 29.9L175.461 30.4663L175.47 30.4737L175.953 29.9ZM159.663 29.81L160.16 30.3714L160.161 30.3706L159.663 29.81ZM155.793 37.64L155.051 37.5339L154.928 38.39H155.793V37.64ZM191.763 41.24C191.763 43.0078 191.645 44.5855 191.413 45.9767L192.893 46.2233C193.141 44.7344 193.263 43.0722 193.263 41.24H191.763ZM192.153 45.35H155.703V46.85H192.153V45.35ZM154.956 46.1623C155.268 49.9106 156.59 52.9204 158.976 55.1122L159.991 54.0078C157.936 52.1196 156.738 49.4894 156.451 46.0377L154.956 46.1623ZM158.976 55.1122C161.345 57.2894 164.26 58.37 167.673 58.37V56.87C164.606 56.87 162.061 55.9106 159.991 54.0078L158.976 55.1122ZM167.673 58.37C170.122 58.37 172.264 57.8433 174.068 56.7546C175.874 55.6647 177.292 54.0401 178.336 51.9214L176.99 51.2586C176.054 53.1599 174.817 54.5503 173.293 55.4704C171.767 56.3917 169.904 56.87 167.673 56.87V58.37ZM177.663 52.34H191.253V50.84H177.663V52.34ZM190.535 51.3745C189.141 56.0192 186.475 59.8476 182.518 62.8742L183.429 64.0658C187.631 60.8524 190.485 56.7608 191.971 51.8055L190.535 51.3745ZM182.523 62.87C178.594 65.8172 173.749 67.31 167.943 67.31V68.81C174.018 68.81 179.193 67.2428 183.423 64.07L182.523 62.87ZM167.943 67.31C163.256 67.31 159.062 66.2859 155.343 64.252L154.623 65.568C158.584 67.7341 163.03 68.81 167.943 68.81V67.31ZM155.355 64.2588C151.697 62.1686 148.824 59.2395 146.729 55.4566L145.417 56.1834C147.642 60.2005 150.709 63.3314 154.611 65.5612L155.355 64.2588ZM146.733 55.4644C144.701 51.6892 143.673 47.3148 143.673 42.32H142.173C142.173 47.5252 143.246 52.1508 145.413 56.1756L146.733 55.4644ZM143.673 42.32C143.673 37.2636 144.701 32.8595 146.733 29.0856L145.413 28.3744C143.245 32.4005 142.173 37.0564 142.173 42.32H143.673ZM146.733 29.0856C148.767 25.3086 151.606 22.4142 155.257 20.3856L154.529 19.0744C150.62 21.2458 147.579 24.3514 145.413 28.3744L146.733 29.0856ZM155.257 20.3856C158.911 18.3556 163.133 17.33 167.943 17.33V15.83C162.913 15.83 158.435 16.9044 154.529 19.0744L155.257 20.3856ZM167.943 17.33C172.572 17.33 176.676 18.3251 180.273 20.2976L180.994 18.9824C177.151 16.8749 172.794 15.83 167.943 15.83V17.33ZM180.277 20.3C183.928 22.2705 186.733 25.0749 188.703 28.7262L190.023 28.0138C187.914 24.1051 184.898 21.0895 180.989 18.98L180.277 20.3ZM188.71 28.7387C190.738 32.3314 191.763 36.4911 191.763 41.24H193.263C193.263 36.2689 192.188 31.8486 190.016 28.0013L188.71 28.7387ZM180.213 37.6261C180.149 34.191 178.897 31.3988 176.436 29.3263L175.47 30.4737C177.569 32.2412 178.657 34.609 178.713 37.6539L180.213 37.6261ZM176.445 29.3337C174.015 27.2239 171.046 26.18 167.583 26.18V27.68C170.721 27.68 173.331 28.6161 175.461 30.4663L176.445 29.3337ZM167.583 26.18C164.295 26.18 161.474 27.1973 159.165 29.2494L160.161 30.3706C162.173 28.5827 164.631 27.68 167.583 27.68V26.18ZM159.166 29.2486C156.906 31.2499 155.55 34.0364 155.051 37.5339L156.536 37.7461C156.996 34.5236 158.22 32.0901 160.16 30.3714L159.166 29.2486ZM155.793 38.39H179.463V36.89H155.793V38.39ZM278.39 22.34L277.855 22.8661L277.864 22.8746L278.39 22.34ZM284.06 67.25V68H284.81V67.25H284.06ZM271.46 67.25H270.71V68H271.46V67.25ZM268.49 30.8L267.944 31.3146L267.952 31.3224L268.49 30.8ZM252.2 30.8L251.662 30.2774L251.662 30.2776L252.2 30.8ZM249.23 67.25V68H249.98V67.25H249.23ZM236.63 67.25H235.88V68H236.63V67.25ZM233.66 30.8L233.114 31.3146L233.122 31.3224L233.66 30.8ZM217.28 30.8L216.742 30.2774L216.742 30.2776L217.28 30.8ZM214.31 67.25V68H215.06V67.25H214.31ZM201.71 67.25H200.96V68H201.71V67.25ZM201.71 17.39V16.64H200.96V17.39H201.71ZM214.31 17.39H215.06V16.64H214.31V17.39ZM214.31 23.42H213.56V25.6201L214.904 23.8781L214.31 23.42ZM220.52 18.47L220.204 17.7899L220.198 17.7928L220.52 18.47ZM239.42 19.19L239.059 19.8475L239.069 19.8528L239.42 19.19ZM246.53 26.21L245.873 26.5709L246.522 27.7539L247.184 26.5777L246.53 26.21ZM253.55 19.28L253.185 18.6249L253.179 18.628L253.55 19.28ZM263.63 17.42C269.583 17.42 274.298 19.2516 277.855 22.8661L278.925 21.8139C275.042 17.8684 269.917 15.92 263.63 15.92V17.42ZM277.864 22.8746C281.465 26.4183 283.31 31.4244 283.31 38H284.81C284.81 31.1356 282.875 25.7017 278.916 21.8054L277.864 22.8746ZM283.31 38V67.25H284.81V38H283.31ZM284.06 66.5H271.46V68H284.06V66.5ZM272.21 67.25V39.71H270.71V67.25H272.21ZM272.21 39.71C272.21 35.6888 271.188 32.5029 269.028 30.2776L267.952 31.3224C269.752 33.1771 270.71 35.9312 270.71 39.71H272.21ZM269.036 30.2855C266.888 28.0075 263.975 26.9 260.39 26.9V28.4C263.645 28.4 266.132 29.3925 267.944 31.3145L269.036 30.2855ZM260.39 26.9C256.804 26.9 253.867 28.0075 251.662 30.2774L252.738 31.3226C254.613 29.3925 257.136 28.4 260.39 28.4V26.9ZM251.662 30.2776C249.502 32.5029 248.48 35.6888 248.48 39.71H249.98C249.98 35.9312 250.938 33.1771 252.738 31.3224L251.662 30.2776ZM248.48 39.71V67.25H249.98V39.71H248.48ZM249.23 66.5H236.63V68H249.23V66.5ZM237.38 67.25V39.71H235.88V67.25H237.38ZM237.38 39.71C237.38 35.6888 236.358 32.5029 234.198 30.2776L233.122 31.3224C234.922 33.1771 235.88 35.9312 235.88 39.71H237.38ZM234.206 30.2855C232.058 28.0075 229.145 26.9 225.56 26.9V28.4C228.815 28.4 231.302 29.3925 233.114 31.3145L234.206 30.2855ZM225.56 26.9C221.919 26.9 218.95 28.0049 216.742 30.2774L217.818 31.3226C219.69 29.3951 222.241 28.4 225.56 28.4V26.9ZM216.742 30.2776C214.582 32.5029 213.56 35.6888 213.56 39.71H215.06C215.06 35.9312 216.018 33.1771 217.818 31.3224L216.742 30.2776ZM213.56 39.71V67.25H215.06V39.71H213.56ZM214.31 66.5H201.71V68H214.31V66.5ZM202.46 67.25V17.39H200.96V67.25H202.46ZM201.71 18.14H214.31V16.64H201.71V18.14ZM213.56 17.39V23.42H215.06V17.39H213.56ZM214.904 23.8781C216.448 21.8763 218.423 20.2992 220.842 19.1471L220.198 17.7928C217.577 19.0408 215.412 20.7637 213.716 22.9619L214.904 23.8781ZM220.836 19.15C223.31 17.9995 226.021 17.42 228.98 17.42V15.92C225.819 15.92 222.89 16.5405 220.204 17.79L220.836 19.15ZM228.98 17.42C232.769 17.42 236.122 18.235 239.059 19.8474L239.781 18.5326C236.598 16.785 232.991 15.92 228.98 15.92V17.42ZM239.069 19.8528C241.998 21.4037 244.262 23.6382 245.873 26.5709L247.187 25.8491C245.438 22.6618 242.962 20.2163 239.771 18.5272L239.069 19.8528ZM247.184 26.5777C248.733 23.8242 250.971 21.6092 253.921 19.932L253.179 18.628C250.009 20.4308 247.567 22.8358 245.876 25.8423L247.184 26.5777ZM253.915 19.935C256.923 18.2578 260.157 17.42 263.63 17.42V15.92C259.903 15.92 256.417 16.8222 253.185 18.625L253.915 19.935ZM305.197 64.91L304.829 65.5637L304.837 65.568L305.197 64.91ZM296.107 55.82L295.451 56.1834L295.455 56.191L296.107 55.82ZM296.197 28.82L295.549 28.4415L295.545 28.449L296.197 28.82ZM305.467 19.82L305.822 20.4804L305.83 20.4761L305.467 19.82ZM331.567 19.82L331.203 20.4761L331.211 20.4804L331.567 19.82ZM340.747 28.82L340.095 29.191L340.099 29.1985L340.747 28.82ZM340.657 55.82L340.013 55.4341L340.009 55.4415L340.657 55.82ZM331.297 64.91L331.652 65.5704L331.656 65.5684L331.297 64.91ZM324.547 55.46L324.906 56.1185L324.913 56.1147L324.547 55.46ZM329.407 50.42L330.066 50.7766L329.407 50.42ZM327.427 31.43L326.884 31.9476L326.89 31.954L326.896 31.9603L327.427 31.43ZM309.247 31.43L308.704 30.9124L308.704 30.9128L309.247 31.43ZM309.157 53.3L308.601 53.8039L308.607 53.8106L308.614 53.8172L309.157 53.3ZM318.157 67.31C313.47 67.31 309.276 66.2859 305.556 64.252L304.837 65.568C308.798 67.7341 313.243 68.81 318.157 68.81V67.31ZM305.564 64.2563C301.845 62.1643 298.912 59.233 296.758 55.449L295.455 56.191C297.741 60.207 300.868 63.3357 304.829 65.5637L305.564 64.2563ZM296.763 55.4566C294.673 51.683 293.617 47.3114 293.617 42.32H292.117C292.117 47.5286 293.221 52.157 295.451 56.1834L296.763 55.4566ZM293.617 42.32C293.617 37.3321 294.701 32.9632 296.848 29.191L295.545 28.449C293.252 32.4767 292.117 37.1079 292.117 42.32H293.617ZM296.844 29.1985C299.056 25.415 302.046 22.5137 305.822 20.4804L305.111 19.1596C301.087 21.3263 297.897 24.425 295.549 28.4415L296.844 29.1985ZM305.83 20.4761C309.61 18.3824 313.834 17.33 318.517 17.33V15.83C313.6 15.83 309.123 16.9376 305.103 19.1639L305.83 20.4761ZM318.517 17.33C323.2 17.33 327.423 18.3824 331.203 20.4761L331.93 19.1639C327.91 16.9376 323.434 15.83 318.517 15.83V17.33ZM331.211 20.4804C334.985 22.5127 337.944 25.4117 340.095 29.191L341.398 28.449C339.11 24.4283 335.948 21.3273 331.922 19.1596L331.211 20.4804ZM340.099 29.1985C342.304 32.9694 343.417 37.3355 343.417 42.32H344.917C344.917 37.1045 343.75 32.4705 341.394 28.4415L340.099 29.1985ZM343.417 42.32C343.417 47.301 342.275 51.6644 340.014 55.4341L341.3 56.2059C343.718 52.1756 344.917 47.539 344.917 42.32H343.417ZM340.009 55.4415C337.798 59.2239 334.778 62.157 330.938 64.2516L331.656 65.5684C335.736 63.343 338.955 60.2161 341.304 56.1985L340.009 55.4415ZM330.941 64.2496C327.161 66.2852 322.905 67.31 318.157 67.31V68.81C323.128 68.81 327.633 67.7348 331.652 65.5704L330.941 64.2496ZM318.157 57.83C320.561 57.83 322.814 57.2592 324.906 56.1184L324.188 54.8016C322.319 55.8208 320.313 56.33 318.157 56.33V57.83ZM324.913 56.1147C327.087 54.8997 328.804 53.1115 330.066 50.7766L328.747 50.0634C327.609 52.1685 326.087 53.7403 324.181 54.8053L324.913 56.1147ZM330.066 50.7766C331.339 48.4222 331.957 45.5928 331.957 42.32H330.457C330.457 45.4072 329.874 47.9778 328.747 50.0634L330.066 50.7766ZM331.957 42.32C331.957 37.449 330.659 33.602 327.957 30.8997L326.896 31.9603C329.234 34.298 330.457 37.711 330.457 42.32H331.957ZM327.969 30.9124C325.366 28.1823 322.139 26.81 318.337 26.81V28.31C321.734 28.31 324.567 29.5176 326.884 31.9476L327.969 30.9124ZM318.337 26.81C314.534 26.81 311.307 28.1823 308.704 30.9124L309.789 31.9476C312.106 29.5176 314.939 28.31 318.337 28.31V26.81ZM308.704 30.9128C306.129 33.6163 304.897 37.4584 304.897 42.32H306.397C306.397 37.7016 307.565 34.2837 309.79 31.9472L308.704 30.9128ZM304.897 42.32C304.897 47.1783 306.097 51.0427 308.601 53.8039L309.712 52.7961C307.536 50.3973 306.397 46.9417 306.397 42.32H304.897ZM308.614 53.8172C311.16 56.4916 314.359 57.83 318.157 57.83V56.33C314.754 56.33 311.953 55.1484 309.7 52.7828L308.614 53.8172ZM362.589 64.91L362.221 65.5637L362.229 65.568L362.589 64.91ZM353.499 55.82L352.843 56.1834L352.847 56.191L353.499 55.82ZM353.589 28.82L352.942 28.4415L352.937 28.449L353.589 28.82ZM362.859 19.82L363.215 20.4804L363.223 20.4761L362.859 19.82ZM388.959 19.82L388.596 20.4761L388.604 20.4804L388.959 19.82ZM398.139 28.82L397.487 29.191L397.492 29.1985L398.139 28.82ZM398.049 55.82L397.406 55.4341L397.402 55.4415L398.049 55.82ZM388.689 64.91L389.045 65.5704L389.048 65.5684L388.689 64.91ZM381.939 55.46L382.298 56.1185L382.305 56.1147L381.939 55.46ZM386.799 50.42L387.459 50.7766L386.799 50.42ZM384.819 31.43L384.276 31.9476L384.283 31.954L384.289 31.9603L384.819 31.43ZM366.639 31.43L366.096 30.9124L366.096 30.9128L366.639 31.43ZM366.549 53.3L365.994 53.8039L366 53.8106L366.006 53.8172L366.549 53.3ZM375.549 67.31C370.863 67.31 366.668 66.2859 362.949 64.252L362.229 65.568C366.19 67.7341 370.636 68.81 375.549 68.81V67.31ZM362.957 64.2563C359.238 62.1643 356.305 59.233 354.151 55.449L352.847 56.191C355.133 60.207 358.261 63.3357 362.222 65.5637L362.957 64.2563ZM354.155 55.4566C352.065 51.683 351.009 47.3114 351.009 42.32H349.509C349.509 47.5286 350.613 52.157 352.843 56.1834L354.155 55.4566ZM351.009 42.32C351.009 37.3321 352.094 32.9632 354.241 29.191L352.937 28.449C350.645 32.4767 349.509 37.1079 349.509 42.32H351.009ZM354.237 29.1985C356.449 25.415 359.439 22.5137 363.215 20.4804L362.504 19.1596C358.48 21.3263 355.29 24.425 352.942 28.4415L354.237 29.1985ZM363.223 20.4761C367.003 18.3824 371.226 17.33 375.909 17.33V15.83C370.992 15.83 366.516 16.9376 362.496 19.1639L363.223 20.4761ZM375.909 17.33C380.592 17.33 384.816 18.3824 388.596 20.4761L389.323 19.1639C385.303 16.9376 380.826 15.83 375.909 15.83V17.33ZM388.604 20.4804C392.378 22.5127 395.336 25.4117 397.487 29.191L398.791 28.449C396.502 24.4283 393.34 21.3273 389.315 19.1596L388.604 20.4804ZM397.492 29.1985C399.696 32.9694 400.809 37.3355 400.809 42.32H402.309C402.309 37.1045 401.142 32.4705 398.787 28.4415L397.492 29.1985ZM400.809 42.32C400.809 47.301 399.668 51.6644 397.406 55.4341L398.692 56.2059C401.111 52.1756 402.309 47.539 402.309 42.32H400.809ZM397.402 55.4415C395.19 59.2239 392.17 62.157 388.33 64.2516L389.048 65.5684C393.128 63.343 396.348 60.2161 398.697 56.1985L397.402 55.4415ZM388.334 64.2496C384.553 66.2852 380.297 67.31 375.549 67.31V68.81C380.521 68.81 385.025 67.7348 389.045 65.5704L388.334 64.2496ZM375.549 57.83C377.953 57.83 380.207 57.2592 382.298 56.1184L381.58 54.8016C379.711 55.8208 377.705 56.33 375.549 56.33V57.83ZM382.305 56.1147C384.479 54.8997 386.197 53.1115 387.459 50.7766L386.139 50.0634C385.001 52.1685 383.479 53.7403 381.573 54.8053L382.305 56.1147ZM387.459 50.7766C388.732 48.4222 389.349 45.5928 389.349 42.32H387.849C387.849 45.4072 387.267 47.9778 386.139 50.0634L387.459 50.7766ZM389.349 42.32C389.349 37.449 388.052 33.602 385.35 30.8997L384.289 31.9603C386.627 34.298 387.849 37.711 387.849 42.32H389.349ZM385.362 30.9124C382.759 28.1823 379.532 26.81 375.729 26.81V28.31C379.126 28.31 381.96 29.5176 384.276 31.9476L385.362 30.9124ZM375.729 26.81C371.926 26.81 368.7 28.1823 366.096 30.9124L367.182 31.9476C369.499 29.5176 372.332 28.31 375.729 28.31V26.81ZM366.096 30.9128C363.521 33.6163 362.289 37.4584 362.289 42.32H363.789C363.789 37.7016 364.957 34.2837 367.182 31.9472L366.096 30.9128ZM362.289 42.32C362.289 47.1783 363.489 51.0427 365.994 53.8039L367.105 52.7961C364.929 50.3973 363.789 46.9417 363.789 42.32H362.289ZM366.006 53.8172C368.553 56.4916 371.752 57.83 375.549 57.83V56.33C372.147 56.33 369.345 55.1484 367.092 52.7828L366.006 53.8172ZM452.832 22.34L452.293 22.8617L452.297 22.866L452.832 22.34ZM458.322 67.25V68H459.072V67.25H458.322ZM445.722 67.25H444.972V68H445.722V67.25ZM442.752 30.62L442.199 31.1268L442.206 31.1345L442.752 30.62ZM426.372 30.62L425.827 30.105L425.826 30.1055L426.372 30.62ZM423.402 67.25V68H424.152V67.25H423.402ZM410.802 67.25H410.052V68H410.802V67.25ZM410.802 17.39V16.64H410.052V17.39H410.802ZM423.402 17.39H424.152V16.64H423.402V17.39ZM423.402 23.6H422.652V25.7859L423.994 24.0605L423.402 23.6ZM429.792 18.56L430.108 19.2401L430.115 19.2369L429.792 18.56ZM438.432 17.42C444.197 17.42 448.793 19.247 452.293 22.8617L453.371 21.8183C449.551 17.873 444.546 15.92 438.432 15.92V17.42ZM452.297 22.866C455.783 26.4086 457.572 31.4177 457.572 38H459.072C459.072 31.1423 457.201 25.7114 453.366 21.814L452.297 22.866ZM457.572 38V67.25H459.072V38H457.572ZM458.322 66.5H445.722V68H458.322V66.5ZM446.472 67.25V39.71H444.972V67.25H446.472ZM446.472 39.71C446.472 35.6308 445.451 32.3895 443.297 30.1055L442.206 31.1345C444.013 33.0505 444.972 35.8692 444.972 39.71H446.472ZM443.305 30.1132C441.159 27.772 438.244 26.63 434.652 26.63V28.13C437.9 28.13 440.385 29.148 442.199 31.1268L443.305 30.1132ZM434.652 26.63C431.004 26.63 428.033 27.7692 425.827 30.105L426.917 31.135C428.791 29.1508 431.34 28.13 434.652 28.13V26.63ZM425.826 30.1055C423.673 32.3895 422.652 35.6308 422.652 39.71H424.152C424.152 35.8692 425.111 33.0505 426.917 31.1345L425.826 30.1055ZM422.652 39.71V67.25H424.152V39.71H422.652ZM423.402 66.5H410.802V68H423.402V66.5ZM411.552 67.25V17.39H410.052V67.25H411.552ZM410.802 18.14H423.402V16.64H410.802V18.14ZM422.652 17.39V23.6H424.152V17.39H422.652ZM423.994 24.0605C425.598 21.9983 427.632 20.3919 430.108 19.24L429.475 17.88C426.792 19.1281 424.566 20.8817 422.81 23.1395L423.994 24.0605ZM430.115 19.2369C432.647 18.0282 435.416 17.42 438.432 17.42V15.92C435.208 15.92 432.216 16.5718 429.469 17.8831L430.115 19.2369Z" fill="url(#paint1_linear_1222_1544)" mask="url(#path-1-outside-1_1222_1544)"/>
<defs>
<linearGradient id="paint0_linear_1222_1544" x1="229.25" y1="4.25" x2="229.25" y2="67.25" gradientUnits="userSpaceOnUse">
<stop stop-color="white" stop-opacity="0.2"/>
<stop offset="1" stop-color="white" stop-opacity="0"/>
</linearGradient>
<linearGradient id="paint1_linear_1222_1544" x1="229.25" y1="4.25" x2="229.25" y2="67.25" gradientUnits="userSpaceOnUse">
<stop stop-color="white" stop-opacity="0.4"/>
<stop offset="1" stop-color="white" stop-opacity="0"/>
</linearGradient>
</defs>
</svg>
