<svg width="828" height="38" viewBox="0 0 828 38" fill="none" xmlns="http://www.w3.org/2000/svg">
<path d="M807.965 21.7334H809.465V18.7334H812.465V17.2334H807.965V21.7334Z" fill="white"/>
<path d="M815.464 17.2334V18.7334H818.464V21.7334H819.964V17.2334H815.464Z" fill="white"/>
<path d="M818.464 27.7334H815.464V29.2334H819.964V24.7334H818.464V27.7334Z" fill="white"/>
<path d="M809.465 24.7334H807.965V29.2334H812.465V27.7334H809.465V24.7334Z" fill="white"/>
<rect x="2.96436" y="0.751953" width="823.348" height="2.25" fill="white" fill-opacity="0.33"/>
<rect x="0.75" y="0.751953" width="413.889" height="2.25" fill="white" fill-opacity="0.8"/>
<rect x="0.75" y="0.751953" width="276.804" height="2.25" fill="#FF0000"/>
<path d="M9.74951 30.002L14.6245 27.002V21.002L9.74951 18.002V30.002ZM14.6245 27.002L19.4995 24.002L14.6245 21.002V27.002Z" fill="white"/>
<path d="M33.75 26.2513H36.75L40.5 30.0013V18.0013L36.75 21.7513H33.75V26.2513ZM42 21.0013V27.0013C43.11 26.4913 43.875 25.3288 43.875 24.0013C43.875 22.6963 43.11 21.5563 42 21.0013ZM42 18.9688C44.1675 19.6138 45.75 21.6238 45.75 24.0013C45.75 26.3788 44.1675 28.3888 42 29.0338V30.5788C45.0075 29.8963 47.25 27.2113 47.25 24.0013C47.25 20.7913 45.0075 18.1063 42 17.4238V18.9688Z" fill="white"/>
<mask id="path-10-outside-1_1222_1769" maskUnits="userSpaceOnUse" x="53.75" y="16.502" width="49" height="13" fill="black">
<rect fill="white" x="53.75" y="16.502" width="49" height="13"/>
<path d="M55.209 25.845C55.971 25.233 56.568 24.732 57 24.342C57.432 23.946 57.795 23.535 58.089 23.109C58.389 22.677 58.539 22.254 58.539 21.84C58.539 21.45 58.443 21.144 58.251 20.922C58.065 20.694 57.762 20.58 57.342 20.58C56.934 20.58 56.616 20.709 56.388 20.967C56.166 21.219 56.046 21.558 56.028 21.984H55.236C55.26 21.312 55.464 20.793 55.848 20.427C56.232 20.061 56.727 19.878 57.333 19.878C57.951 19.878 58.44 20.049 58.8 20.391C59.166 20.733 59.349 21.204 59.349 21.804C59.349 22.302 59.199 22.788 58.899 23.262C58.605 23.73 58.269 24.144 57.891 24.504C57.513 24.858 57.03 25.272 56.442 25.746H59.538V26.43H55.209V25.845ZM60.9708 26.556C60.8148 26.556 60.6828 26.502 60.5748 26.394C60.4668 26.286 60.4128 26.154 60.4128 25.998C60.4128 25.842 60.4668 25.71 60.5748 25.602C60.6828 25.494 60.8148 25.44 60.9708 25.44C61.1208 25.44 61.2468 25.494 61.3488 25.602C61.4568 25.71 61.5108 25.842 61.5108 25.998C61.5108 26.154 61.4568 26.286 61.3488 26.394C61.2468 26.502 61.1208 26.556 60.9708 26.556ZM60.9708 22.704C60.8148 22.704 60.6828 22.65 60.5748 22.542C60.4668 22.434 60.4128 22.302 60.4128 22.146C60.4128 21.99 60.4668 21.858 60.5748 21.75C60.6828 21.642 60.8148 21.588 60.9708 21.588C61.1208 21.588 61.2468 21.642 61.3488 21.75C61.4568 21.858 61.5108 21.99 61.5108 22.146C61.5108 22.302 61.4568 22.434 61.3488 22.542C61.2468 22.65 61.1208 22.704 60.9708 22.704ZM62.4818 25.845C63.2438 25.233 63.8408 24.732 64.2728 24.342C64.7048 23.946 65.0678 23.535 65.3618 23.109C65.6618 22.677 65.8118 22.254 65.8118 21.84C65.8118 21.45 65.7158 21.144 65.5238 20.922C65.3378 20.694 65.0348 20.58 64.6148 20.58C64.2068 20.58 63.8888 20.709 63.6608 20.967C63.4388 21.219 63.3188 21.558 63.3008 21.984H62.5088C62.5328 21.312 62.7368 20.793 63.1208 20.427C63.5048 20.061 63.9998 19.878 64.6058 19.878C65.2238 19.878 65.7128 20.049 66.0728 20.391C66.4388 20.733 66.6218 21.204 66.6218 21.804C66.6218 22.302 66.4718 22.788 66.1718 23.262C65.8778 23.73 65.5418 24.144 65.1638 24.504C64.7858 24.858 64.3028 25.272 63.7148 25.746H66.8108V26.43H62.4818V25.845ZM71.4745 21.543C71.3425 20.877 70.9315 20.544 70.2415 20.544C69.7075 20.544 69.3085 20.751 69.0445 21.165C68.7805 21.573 68.6515 22.248 68.6575 23.19C68.7955 22.878 69.0235 22.635 69.3415 22.461C69.6655 22.281 70.0255 22.191 70.4215 22.191C71.0395 22.191 71.5315 22.383 71.8975 22.767C72.2695 23.151 72.4555 23.682 72.4555 24.36C72.4555 24.768 72.3745 25.134 72.2125 25.458C72.0565 25.782 71.8165 26.04 71.4925 26.232C71.1745 26.424 70.7875 26.52 70.3315 26.52C69.7135 26.52 69.2305 26.382 68.8825 26.106C68.5345 25.83 68.2915 25.449 68.1535 24.963C68.0155 24.477 67.9465 23.877 67.9465 23.163C67.9465 20.961 68.7145 19.86 70.2505 19.86C70.8385 19.86 71.3005 20.019 71.6365 20.337C71.9725 20.655 72.1705 21.057 72.2305 21.543H71.4745ZM70.2505 22.884C69.9925 22.884 69.7495 22.938 69.5215 23.046C69.2935 23.148 69.1075 23.307 68.9635 23.523C68.8255 23.733 68.7565 23.991 68.7565 24.297C68.7565 24.753 68.8885 25.125 69.1525 25.413C69.4165 25.695 69.7945 25.836 70.2865 25.836C70.7065 25.836 71.0395 25.707 71.2855 25.449C71.5375 25.185 71.6635 24.831 71.6635 24.387C71.6635 23.919 71.5435 23.553 71.3035 23.289C71.0635 23.019 70.7125 22.884 70.2505 22.884ZM79.3348 18.024L76.8688 28.032H76.0588L78.5158 18.024H79.3348ZM84.1875 23.118C83.8515 22.986 83.5935 22.794 83.4135 22.542C83.2335 22.29 83.1435 21.984 83.1435 21.624C83.1435 21.3 83.2245 21.009 83.3865 20.751C83.5485 20.487 83.7885 20.28 84.1065 20.13C84.4305 19.974 84.8205 19.896 85.2765 19.896C85.7325 19.896 86.1195 19.974 86.4375 20.13C86.7615 20.28 87.0045 20.487 87.1665 20.751C87.3345 21.009 87.4185 21.3 87.4185 21.624C87.4185 21.972 87.3255 22.278 87.1395 22.542C86.9535 22.8 86.6985 22.992 86.3745 23.118C86.7465 23.232 87.0405 23.433 87.2565 23.721C87.4785 24.003 87.5895 24.345 87.5895 24.747C87.5895 25.137 87.4935 25.479 87.3015 25.773C87.1095 26.061 86.8365 26.286 86.4825 26.448C86.1345 26.604 85.7325 26.682 85.2765 26.682C84.8205 26.682 84.4185 26.604 84.0705 26.448C83.7285 26.286 83.4615 26.061 83.2695 25.773C83.0775 25.479 82.9815 25.137 82.9815 24.747C82.9815 24.345 83.0895 24 83.3055 23.712C83.5215 23.424 83.8155 23.226 84.1875 23.118ZM86.6265 21.723C86.6265 21.357 86.5065 21.075 86.2665 20.877C86.0265 20.679 85.6965 20.58 85.2765 20.58C84.8625 20.58 84.5355 20.679 84.2955 20.877C84.0555 21.075 83.9355 21.36 83.9355 21.732C83.9355 22.068 84.0585 22.338 84.3045 22.542C84.5565 22.746 84.8805 22.848 85.2765 22.848C85.6785 22.848 86.0025 22.746 86.2485 22.542C86.5005 22.332 86.6265 22.059 86.6265 21.723ZM85.2765 23.478C84.8325 23.478 84.4695 23.583 84.1875 23.793C83.9055 23.997 83.7645 24.306 83.7645 24.72C83.7645 25.104 83.8995 25.413 84.1695 25.647C84.4455 25.881 84.8145 25.998 85.2765 25.998C85.7385 25.998 86.1045 25.881 86.3745 25.647C86.6445 25.413 86.7795 25.104 86.7795 24.72C86.7795 24.318 86.6415 24.012 86.3655 23.802C86.0895 23.586 85.7265 23.478 85.2765 23.478ZM89.1633 26.556C89.0073 26.556 88.8753 26.502 88.7673 26.394C88.6593 26.286 88.6053 26.154 88.6053 25.998C88.6053 25.842 88.6593 25.71 88.7673 25.602C88.8753 25.494 89.0073 25.44 89.1633 25.44C89.3133 25.44 89.4393 25.494 89.5413 25.602C89.6493 25.71 89.7033 25.842 89.7033 25.998C89.7033 26.154 89.6493 26.286 89.5413 26.394C89.4393 26.502 89.3133 26.556 89.1633 26.556ZM89.1633 22.704C89.0073 22.704 88.8753 22.65 88.7673 22.542C88.6593 22.434 88.6053 22.302 88.6053 22.146C88.6053 21.99 88.6593 21.858 88.7673 21.75C88.8753 21.642 89.0073 21.588 89.1633 21.588C89.3133 21.588 89.4393 21.642 89.5413 21.75C89.6493 21.858 89.7033 21.99 89.7033 22.146C89.7033 22.302 89.6493 22.434 89.5413 22.542C89.4393 22.65 89.3133 22.704 89.1633 22.704ZM90.7733 23.181C90.7733 22.149 90.9413 21.345 91.2773 20.769C91.6133 20.187 92.2013 19.896 93.0413 19.896C93.8753 19.896 94.4603 20.187 94.7963 20.769C95.1323 21.345 95.3003 22.149 95.3003 23.181C95.3003 24.231 95.1323 25.047 94.7963 25.629C94.4603 26.211 93.8753 26.502 93.0413 26.502C92.2013 26.502 91.6133 26.211 91.2773 25.629C90.9413 25.047 90.7733 24.231 90.7733 23.181ZM94.4903 23.181C94.4903 22.659 94.4543 22.218 94.3823 21.858C94.3163 21.492 94.1753 21.198 93.9593 20.976C93.7493 20.754 93.4433 20.643 93.0413 20.643C92.6333 20.643 92.3213 20.754 92.1053 20.976C91.8953 21.198 91.7543 21.492 91.6823 21.858C91.6163 22.218 91.5833 22.659 91.5833 23.181C91.5833 23.721 91.6163 24.174 91.6823 24.54C91.7543 24.906 91.8953 25.2 92.1053 25.422C92.3213 25.644 92.6333 25.755 93.0413 25.755C93.4433 25.755 93.7493 25.644 93.9593 25.422C94.1753 25.2 94.3163 24.906 94.3823 24.54C94.4543 24.174 94.4903 23.721 94.4903 23.181ZM96.3166 25.053V24.432L99.4756 20.058H100.457V24.342H101.357V25.053H100.457V26.502H99.6466V25.053H96.3166ZM99.6826 20.913L97.2616 24.342H99.6826V20.913Z"/>
</mask>
<path d="M55.209 25.845C55.971 25.233 56.568 24.732 57 24.342C57.432 23.946 57.795 23.535 58.089 23.109C58.389 22.677 58.539 22.254 58.539 21.84C58.539 21.45 58.443 21.144 58.251 20.922C58.065 20.694 57.762 20.58 57.342 20.58C56.934 20.58 56.616 20.709 56.388 20.967C56.166 21.219 56.046 21.558 56.028 21.984H55.236C55.26 21.312 55.464 20.793 55.848 20.427C56.232 20.061 56.727 19.878 57.333 19.878C57.951 19.878 58.44 20.049 58.8 20.391C59.166 20.733 59.349 21.204 59.349 21.804C59.349 22.302 59.199 22.788 58.899 23.262C58.605 23.73 58.269 24.144 57.891 24.504C57.513 24.858 57.03 25.272 56.442 25.746H59.538V26.43H55.209V25.845ZM60.9708 26.556C60.8148 26.556 60.6828 26.502 60.5748 26.394C60.4668 26.286 60.4128 26.154 60.4128 25.998C60.4128 25.842 60.4668 25.71 60.5748 25.602C60.6828 25.494 60.8148 25.44 60.9708 25.44C61.1208 25.44 61.2468 25.494 61.3488 25.602C61.4568 25.71 61.5108 25.842 61.5108 25.998C61.5108 26.154 61.4568 26.286 61.3488 26.394C61.2468 26.502 61.1208 26.556 60.9708 26.556ZM60.9708 22.704C60.8148 22.704 60.6828 22.65 60.5748 22.542C60.4668 22.434 60.4128 22.302 60.4128 22.146C60.4128 21.99 60.4668 21.858 60.5748 21.75C60.6828 21.642 60.8148 21.588 60.9708 21.588C61.1208 21.588 61.2468 21.642 61.3488 21.75C61.4568 21.858 61.5108 21.99 61.5108 22.146C61.5108 22.302 61.4568 22.434 61.3488 22.542C61.2468 22.65 61.1208 22.704 60.9708 22.704ZM62.4818 25.845C63.2438 25.233 63.8408 24.732 64.2728 24.342C64.7048 23.946 65.0678 23.535 65.3618 23.109C65.6618 22.677 65.8118 22.254 65.8118 21.84C65.8118 21.45 65.7158 21.144 65.5238 20.922C65.3378 20.694 65.0348 20.58 64.6148 20.58C64.2068 20.58 63.8888 20.709 63.6608 20.967C63.4388 21.219 63.3188 21.558 63.3008 21.984H62.5088C62.5328 21.312 62.7368 20.793 63.1208 20.427C63.5048 20.061 63.9998 19.878 64.6058 19.878C65.2238 19.878 65.7128 20.049 66.0728 20.391C66.4388 20.733 66.6218 21.204 66.6218 21.804C66.6218 22.302 66.4718 22.788 66.1718 23.262C65.8778 23.73 65.5418 24.144 65.1638 24.504C64.7858 24.858 64.3028 25.272 63.7148 25.746H66.8108V26.43H62.4818V25.845ZM71.4745 21.543C71.3425 20.877 70.9315 20.544 70.2415 20.544C69.7075 20.544 69.3085 20.751 69.0445 21.165C68.7805 21.573 68.6515 22.248 68.6575 23.19C68.7955 22.878 69.0235 22.635 69.3415 22.461C69.6655 22.281 70.0255 22.191 70.4215 22.191C71.0395 22.191 71.5315 22.383 71.8975 22.767C72.2695 23.151 72.4555 23.682 72.4555 24.36C72.4555 24.768 72.3745 25.134 72.2125 25.458C72.0565 25.782 71.8165 26.04 71.4925 26.232C71.1745 26.424 70.7875 26.52 70.3315 26.52C69.7135 26.52 69.2305 26.382 68.8825 26.106C68.5345 25.83 68.2915 25.449 68.1535 24.963C68.0155 24.477 67.9465 23.877 67.9465 23.163C67.9465 20.961 68.7145 19.86 70.2505 19.86C70.8385 19.86 71.3005 20.019 71.6365 20.337C71.9725 20.655 72.1705 21.057 72.2305 21.543H71.4745ZM70.2505 22.884C69.9925 22.884 69.7495 22.938 69.5215 23.046C69.2935 23.148 69.1075 23.307 68.9635 23.523C68.8255 23.733 68.7565 23.991 68.7565 24.297C68.7565 24.753 68.8885 25.125 69.1525 25.413C69.4165 25.695 69.7945 25.836 70.2865 25.836C70.7065 25.836 71.0395 25.707 71.2855 25.449C71.5375 25.185 71.6635 24.831 71.6635 24.387C71.6635 23.919 71.5435 23.553 71.3035 23.289C71.0635 23.019 70.7125 22.884 70.2505 22.884ZM79.3348 18.024L76.8688 28.032H76.0588L78.5158 18.024H79.3348ZM84.1875 23.118C83.8515 22.986 83.5935 22.794 83.4135 22.542C83.2335 22.29 83.1435 21.984 83.1435 21.624C83.1435 21.3 83.2245 21.009 83.3865 20.751C83.5485 20.487 83.7885 20.28 84.1065 20.13C84.4305 19.974 84.8205 19.896 85.2765 19.896C85.7325 19.896 86.1195 19.974 86.4375 20.13C86.7615 20.28 87.0045 20.487 87.1665 20.751C87.3345 21.009 87.4185 21.3 87.4185 21.624C87.4185 21.972 87.3255 22.278 87.1395 22.542C86.9535 22.8 86.6985 22.992 86.3745 23.118C86.7465 23.232 87.0405 23.433 87.2565 23.721C87.4785 24.003 87.5895 24.345 87.5895 24.747C87.5895 25.137 87.4935 25.479 87.3015 25.773C87.1095 26.061 86.8365 26.286 86.4825 26.448C86.1345 26.604 85.7325 26.682 85.2765 26.682C84.8205 26.682 84.4185 26.604 84.0705 26.448C83.7285 26.286 83.4615 26.061 83.2695 25.773C83.0775 25.479 82.9815 25.137 82.9815 24.747C82.9815 24.345 83.0895 24 83.3055 23.712C83.5215 23.424 83.8155 23.226 84.1875 23.118ZM86.6265 21.723C86.6265 21.357 86.5065 21.075 86.2665 20.877C86.0265 20.679 85.6965 20.58 85.2765 20.58C84.8625 20.58 84.5355 20.679 84.2955 20.877C84.0555 21.075 83.9355 21.36 83.9355 21.732C83.9355 22.068 84.0585 22.338 84.3045 22.542C84.5565 22.746 84.8805 22.848 85.2765 22.848C85.6785 22.848 86.0025 22.746 86.2485 22.542C86.5005 22.332 86.6265 22.059 86.6265 21.723ZM85.2765 23.478C84.8325 23.478 84.4695 23.583 84.1875 23.793C83.9055 23.997 83.7645 24.306 83.7645 24.72C83.7645 25.104 83.8995 25.413 84.1695 25.647C84.4455 25.881 84.8145 25.998 85.2765 25.998C85.7385 25.998 86.1045 25.881 86.3745 25.647C86.6445 25.413 86.7795 25.104 86.7795 24.72C86.7795 24.318 86.6415 24.012 86.3655 23.802C86.0895 23.586 85.7265 23.478 85.2765 23.478ZM89.1633 26.556C89.0073 26.556 88.8753 26.502 88.7673 26.394C88.6593 26.286 88.6053 26.154 88.6053 25.998C88.6053 25.842 88.6593 25.71 88.7673 25.602C88.8753 25.494 89.0073 25.44 89.1633 25.44C89.3133 25.44 89.4393 25.494 89.5413 25.602C89.6493 25.71 89.7033 25.842 89.7033 25.998C89.7033 26.154 89.6493 26.286 89.5413 26.394C89.4393 26.502 89.3133 26.556 89.1633 26.556ZM89.1633 22.704C89.0073 22.704 88.8753 22.65 88.7673 22.542C88.6593 22.434 88.6053 22.302 88.6053 22.146C88.6053 21.99 88.6593 21.858 88.7673 21.75C88.8753 21.642 89.0073 21.588 89.1633 21.588C89.3133 21.588 89.4393 21.642 89.5413 21.75C89.6493 21.858 89.7033 21.99 89.7033 22.146C89.7033 22.302 89.6493 22.434 89.5413 22.542C89.4393 22.65 89.3133 22.704 89.1633 22.704ZM90.7733 23.181C90.7733 22.149 90.9413 21.345 91.2773 20.769C91.6133 20.187 92.2013 19.896 93.0413 19.896C93.8753 19.896 94.4603 20.187 94.7963 20.769C95.1323 21.345 95.3003 22.149 95.3003 23.181C95.3003 24.231 95.1323 25.047 94.7963 25.629C94.4603 26.211 93.8753 26.502 93.0413 26.502C92.2013 26.502 91.6133 26.211 91.2773 25.629C90.9413 25.047 90.7733 24.231 90.7733 23.181ZM94.4903 23.181C94.4903 22.659 94.4543 22.218 94.3823 21.858C94.3163 21.492 94.1753 21.198 93.9593 20.976C93.7493 20.754 93.4433 20.643 93.0413 20.643C92.6333 20.643 92.3213 20.754 92.1053 20.976C91.8953 21.198 91.7543 21.492 91.6823 21.858C91.6163 22.218 91.5833 22.659 91.5833 23.181C91.5833 23.721 91.6163 24.174 91.6823 24.54C91.7543 24.906 91.8953 25.2 92.1053 25.422C92.3213 25.644 92.6333 25.755 93.0413 25.755C93.4433 25.755 93.7493 25.644 93.9593 25.422C94.1753 25.2 94.3163 24.906 94.3823 24.54C94.4543 24.174 94.4903 23.721 94.4903 23.181ZM96.3166 25.053V24.432L99.4756 20.058H100.457V24.342H101.357V25.053H100.457V26.502H99.6466V25.053H96.3166ZM99.6826 20.913L97.2616 24.342H99.6826V20.913Z" fill="#EAEAEA"/>
<path d="M55.209 25.845L54.7394 25.2602L54.459 25.4854V25.845H55.209ZM57 24.342L57.5026 24.8987L57.5068 24.8948L57 24.342ZM58.089 23.109L57.473 22.6812L57.4717 22.683L58.089 23.109ZM58.251 20.922L57.6699 21.396L57.6767 21.4044L57.6837 21.4126L58.251 20.922ZM56.388 20.967L55.826 20.4703L55.8252 20.4712L56.388 20.967ZM56.028 21.984V22.734H56.747L56.7773 22.0156L56.028 21.984ZM55.236 21.984L54.4865 21.9572L54.4587 22.734H55.236V21.984ZM55.848 20.427L56.3655 20.9699L56.3655 20.9699L55.848 20.427ZM58.8 20.391L58.2834 20.9347L58.2879 20.9389L58.8 20.391ZM58.899 23.262L58.2653 22.8609L58.2639 22.863L58.899 23.262ZM57.891 24.504L58.4037 25.0514L58.4082 25.0471L57.891 24.504ZM56.442 25.746L55.9713 25.162L54.3166 26.496H56.442V25.746ZM59.538 25.746H60.288V24.996H59.538V25.746ZM59.538 26.43V27.18H60.288V26.43H59.538ZM55.209 26.43H54.459V27.18H55.209V26.43ZM55.6786 26.4297C56.4455 25.8138 57.0551 25.3026 57.5026 24.8987L56.4974 23.7853C56.0809 24.1613 55.4965 24.6521 54.7394 25.2602L55.6786 26.4297ZM57.5068 24.8948C57.9749 24.4657 58.3764 24.0129 58.7063 23.535L57.4717 22.683C57.2136 23.057 56.8891 23.4262 56.4932 23.7891L57.5068 24.8948ZM58.705 23.5367C59.0686 23.0131 59.289 22.4436 59.289 21.84H57.789C57.789 22.0643 57.7094 22.3408 57.473 22.6812L58.705 23.5367ZM59.289 21.84C59.289 21.3298 59.1622 20.829 58.8183 20.4313L57.6837 21.4126C57.7238 21.4589 57.789 21.5702 57.789 21.84H59.289ZM58.8321 20.4479C58.4505 19.9801 57.887 19.83 57.342 19.83V21.33C57.4873 21.33 57.574 21.3501 57.6201 21.3674C57.6605 21.3826 57.6688 21.3947 57.6699 21.396L58.8321 20.4479ZM57.342 19.83C56.7626 19.83 56.2229 20.0212 55.826 20.4703L56.95 21.4636C57.0091 21.3967 57.1054 21.33 57.342 21.33V19.83ZM55.8252 20.4712C55.4621 20.8834 55.3019 21.4019 55.2787 21.9523L56.7773 22.0156C56.7901 21.714 56.8699 21.5545 56.9508 21.4627L55.8252 20.4712ZM56.028 21.234H55.236V22.734H56.028V21.234ZM55.9855 22.0107C56.0045 21.4796 56.1586 21.1671 56.3655 20.9699L55.3305 19.8841C54.7694 20.4189 54.5155 21.1443 54.4865 21.9572L55.9855 22.0107ZM56.3655 20.9699C56.5899 20.7559 56.8901 20.628 57.333 20.628V19.128C56.5639 19.128 55.8741 19.366 55.3305 19.8841L56.3655 20.9699ZM57.333 20.628C57.8081 20.628 58.0949 20.7556 58.2834 20.9347L59.3166 19.8472C58.7851 19.3423 58.0939 19.128 57.333 19.128V20.628ZM58.2879 20.9389C58.4725 21.1114 58.599 21.3672 58.599 21.804H60.099C60.099 21.0407 59.8595 20.3545 59.3121 19.843L58.2879 20.9389ZM58.599 21.804C58.599 22.1425 58.4992 22.4912 58.2653 22.8609L59.5327 23.6631C59.8988 23.0847 60.099 22.4614 60.099 21.804H58.599ZM58.2639 22.863C58.0011 23.2813 57.7041 23.6463 57.3738 23.9608L58.4082 25.0471C58.8339 24.6416 59.2089 24.1786 59.5341 23.6609L58.2639 22.863ZM57.3783 23.9565C57.0184 24.2936 56.5508 24.6949 55.9713 25.162L56.9127 26.3299C57.5092 25.849 58.0076 25.4223 58.4037 25.0514L57.3783 23.9565ZM56.442 26.496H59.538V24.996H56.442V26.496ZM58.788 25.746V26.43H60.288V25.746H58.788ZM59.538 25.68H55.209V27.18H59.538V25.68ZM55.959 26.43V25.845H54.459V26.43H55.959ZM60.5748 26.394L60.0444 26.9243L60.5748 26.394ZM60.5748 25.602L61.1051 26.1323L60.5748 25.602ZM61.3488 25.602L60.8035 26.1169L60.8109 26.1247L60.8184 26.1323L61.3488 25.602ZM61.3488 26.394L60.8184 25.8636L60.8109 25.8712L60.8035 25.879L61.3488 26.394ZM60.5748 22.542L60.0444 23.0723L60.5748 22.542ZM60.5748 21.75L61.1051 22.2803L61.1051 22.2803L60.5748 21.75ZM61.3488 21.75L60.8035 22.2649L60.8109 22.2727L60.8184 22.2803L61.3488 21.75ZM61.3488 22.542L60.8184 22.0116L60.8109 22.0192L60.8035 22.027L61.3488 22.542ZM60.9708 25.806C60.981 25.806 61.0065 25.8081 61.0387 25.8213C61.0713 25.8346 61.0937 25.8523 61.1051 25.8636L60.0444 26.9243C60.2964 27.1763 60.6206 27.306 60.9708 27.306V25.806ZM61.1051 25.8636C61.1165 25.875 61.1341 25.8974 61.1474 25.93C61.1606 25.9622 61.1628 25.9877 61.1628 25.998H59.6628C59.6628 26.3481 59.7924 26.6723 60.0444 26.9243L61.1051 25.8636ZM61.1628 25.998C61.1628 26.0082 61.1606 26.0337 61.1474 26.0659C61.1341 26.0985 61.1165 26.1209 61.1051 26.1323L60.0444 25.0716C59.7924 25.3236 59.6628 25.6478 59.6628 25.998H61.1628ZM61.1051 26.1323C61.0937 26.1437 61.0713 26.1613 61.0387 26.1746C61.0065 26.1878 60.981 26.19 60.9708 26.19V24.69C60.6206 24.69 60.2964 24.8196 60.0444 25.0716L61.1051 26.1323ZM60.9708 26.19C60.9538 26.19 60.9211 26.1865 60.8823 26.1698C60.8433 26.1531 60.817 26.1312 60.8035 26.1169L61.894 25.087C61.6488 24.8273 61.3248 24.69 60.9708 24.69V26.19ZM60.8184 26.1323C60.8071 26.1209 60.7894 26.0985 60.7761 26.0659C60.7629 26.0337 60.7608 26.0082 60.7608 25.998H62.2608C62.2608 25.6478 62.1311 25.3236 61.8791 25.0716L60.8184 26.1323ZM60.7608 25.998C60.7608 25.9877 60.7629 25.9622 60.7761 25.93C60.7894 25.8974 60.8071 25.875 60.8184 25.8636L61.8791 26.9243C62.1311 26.6723 62.2608 26.3481 62.2608 25.998H60.7608ZM60.8035 25.879C60.817 25.8647 60.8433 25.8428 60.8823 25.8261C60.9211 25.8095 60.9538 25.806 60.9708 25.806V27.306C61.3248 27.306 61.6488 27.1686 61.894 26.9089L60.8035 25.879ZM60.9708 21.954C60.981 21.954 61.0065 21.9561 61.0387 21.9693C61.0713 21.9826 61.0937 22.0003 61.1051 22.0116L60.0444 23.0723C60.2964 23.3243 60.6206 23.454 60.9708 23.454V21.954ZM61.1051 22.0116C61.1165 22.023 61.1341 22.0454 61.1474 22.078C61.1606 22.1102 61.1628 22.1357 61.1628 22.146H59.6628C59.6628 22.4961 59.7924 22.8203 60.0444 23.0723L61.1051 22.0116ZM61.1628 22.146C61.1628 22.1562 61.1606 22.1817 61.1474 22.2139C61.1341 22.2465 61.1165 22.2689 61.1051 22.2803L60.0444 21.2196C59.7924 21.4716 59.6628 21.7958 59.6628 22.146H61.1628ZM61.1051 22.2803C61.0937 22.2917 61.0713 22.3093 61.0387 22.3226C61.0065 22.3358 60.981 22.338 60.9708 22.338V20.838C60.6206 20.838 60.2964 20.9676 60.0444 21.2196L61.1051 22.2803ZM60.9708 22.338C60.9538 22.338 60.9211 22.3345 60.8823 22.3178C60.8433 22.3011 60.817 22.2792 60.8035 22.2649L61.894 21.235C61.6488 20.9753 61.3248 20.838 60.9708 20.838V22.338ZM60.8184 22.2803C60.8071 22.2689 60.7894 22.2465 60.7761 22.2139C60.7629 22.1817 60.7608 22.1562 60.7608 22.146H62.2608C62.2608 21.7958 62.1311 21.4716 61.8791 21.2196L60.8184 22.2803ZM60.7608 22.146C60.7608 22.1357 60.7629 22.1102 60.7761 22.078C60.7894 22.0454 60.8071 22.023 60.8184 22.0116L61.8791 23.0723C62.1311 22.8203 62.2608 22.4961 62.2608 22.146H60.7608ZM60.8035 22.027C60.817 22.0127 60.8433 21.9908 60.8823 21.9741C60.9211 21.9575 60.9538 21.954 60.9708 21.954V23.454C61.3248 23.454 61.6488 23.3166 61.894 23.0569L60.8035 22.027ZM62.4818 25.845L62.0121 25.2602L61.7318 25.4854V25.845H62.4818ZM64.2728 24.342L64.7754 24.8987L64.7796 24.8948L64.2728 24.342ZM65.3618 23.109L64.7457 22.6812L64.7445 22.683L65.3618 23.109ZM65.5238 20.922L64.9426 21.396L64.9494 21.4044L64.9565 21.4126L65.5238 20.922ZM63.6608 20.967L63.0988 20.4703L63.098 20.4712L63.6608 20.967ZM63.3008 21.984V22.734H64.0198L64.0501 22.0156L63.3008 21.984ZM62.5088 21.984L61.7593 21.9572L61.7315 22.734H62.5088V21.984ZM63.1208 20.427L63.6382 20.9699V20.9699L63.1208 20.427ZM66.0728 20.391L65.5562 20.9347L65.5607 20.9389L66.0728 20.391ZM66.1718 23.262L65.538 22.8609L65.5367 22.863L66.1718 23.262ZM65.1638 24.504L65.6765 25.0514L65.681 25.0471L65.1638 24.504ZM63.7148 25.746L63.2441 25.162L61.5894 26.496H63.7148V25.746ZM66.8108 25.746H67.5608V24.996H66.8108V25.746ZM66.8108 26.43V27.18H67.5608V26.43H66.8108ZM62.4818 26.43H61.7318V27.18H62.4818V26.43ZM62.9514 26.4297C63.7182 25.8138 64.3279 25.3026 64.7754 24.8987L63.7702 23.7853C63.3536 24.1613 62.7693 24.6521 62.0121 25.2602L62.9514 26.4297ZM64.7796 24.8948C65.2477 24.4657 65.6492 24.0129 65.979 23.535L64.7445 22.683C64.4863 23.057 64.1619 23.4262 63.766 23.7891L64.7796 24.8948ZM65.9778 23.5367C66.3414 23.0131 66.5618 22.4436 66.5618 21.84H65.0618C65.0618 22.0643 64.9821 22.3408 64.7457 22.6812L65.9778 23.5367ZM66.5618 21.84C66.5618 21.3298 66.435 20.829 66.091 20.4313L64.9565 21.4126C64.9966 21.4589 65.0618 21.5702 65.0618 21.84H66.5618ZM66.1049 20.4479C65.7233 19.9801 65.1598 19.83 64.6148 19.83V21.33C64.76 21.33 64.8468 21.3501 64.8929 21.3674C64.9332 21.3826 64.9416 21.3947 64.9426 21.396L66.1049 20.4479ZM64.6148 19.83C64.0354 19.83 63.4957 20.0212 63.0988 20.4703L64.2228 21.4636C64.2819 21.3967 64.3782 21.33 64.6148 21.33V19.83ZM63.098 20.4712C62.7349 20.8834 62.5747 21.4019 62.5514 21.9523L64.0501 22.0156C64.0628 21.714 64.1427 21.5545 64.2235 21.4627L63.098 20.4712ZM63.3008 21.234H62.5088V22.734H63.3008V21.234ZM63.2583 22.0107C63.2773 21.4796 63.4313 21.1671 63.6382 20.9699L62.6033 19.8841C62.0422 20.4189 61.7883 21.1443 61.7593 21.9572L63.2583 22.0107ZM63.6382 20.9699C63.8627 20.7559 64.1629 20.628 64.6058 20.628V19.128C63.8367 19.128 63.1468 19.366 62.6033 19.8841L63.6382 20.9699ZM64.6058 20.628C65.0809 20.628 65.3677 20.7556 65.5562 20.9347L66.5893 19.8472C66.0579 19.3423 65.3667 19.128 64.6058 19.128V20.628ZM65.5607 20.9389C65.7452 21.1114 65.8718 21.3672 65.8718 21.804H67.3718C67.3718 21.0407 67.1323 20.3545 66.5848 19.843L65.5607 20.9389ZM65.8718 21.804C65.8718 22.1425 65.772 22.4912 65.538 22.8609L66.8055 23.6631C67.1716 23.0847 67.3718 22.4614 67.3718 21.804H65.8718ZM65.5367 22.863C65.2739 23.2813 64.9768 23.6463 64.6465 23.9608L65.681 25.0471C66.1067 24.6416 66.4817 24.1786 66.8069 23.6609L65.5367 22.863ZM64.6511 23.9565C64.2912 24.2936 63.8235 24.6949 63.2441 25.162L64.1855 26.3299C64.782 25.849 65.2803 25.4223 65.6764 25.0514L64.6511 23.9565ZM63.7148 26.496H66.8108V24.996H63.7148V26.496ZM66.0608 25.746V26.43H67.5608V25.746H66.0608ZM66.8108 25.68H62.4818V27.18H66.8108V25.68ZM63.2318 26.43V25.845H61.7318V26.43H63.2318ZM71.4745 21.543L70.7388 21.6888L70.8586 22.293H71.4745V21.543ZM69.0445 21.165L69.6742 21.5724L69.6769 21.5682L69.0445 21.165ZM68.6575 23.19L67.9075 23.1947L69.3434 23.4933L68.6575 23.19ZM69.3415 22.461L69.7015 23.1189L69.7058 23.1166L69.3415 22.461ZM71.8975 22.767L71.3546 23.2844L71.3589 23.2888L71.8975 22.767ZM72.2125 25.458L71.5416 25.1225L71.5368 25.1326L72.2125 25.458ZM71.4925 26.232L71.1102 25.5867L71.1049 25.5899L71.4925 26.232ZM68.8825 26.106L68.4165 26.6936L68.8825 26.106ZM68.1535 24.963L67.4321 25.1678L68.1535 24.963ZM71.6365 20.337L72.1521 19.7922L71.6365 20.337ZM72.2305 21.543V22.293H73.0788L72.9749 21.4511L72.2305 21.543ZM69.5215 23.046L69.8278 23.7306L69.8352 23.7272L69.8426 23.7238L69.5215 23.046ZM68.9635 23.523L68.3395 23.1069L68.3368 23.1111L68.9635 23.523ZM69.1525 25.413L68.5996 25.9198L68.605 25.9255L69.1525 25.413ZM71.2855 25.449L70.743 24.9311L70.7427 24.9314L71.2855 25.449ZM71.3035 23.289L70.7429 23.7873L70.7486 23.7935L71.3035 23.289ZM72.2102 21.3971C72.12 20.9419 71.9159 20.516 71.5394 20.211C71.1644 19.9071 70.7056 19.794 70.2415 19.794V21.294C70.4675 21.294 70.5592 21.3473 70.5951 21.3764C70.6297 21.4044 70.6971 21.478 70.7388 21.6888L72.2102 21.3971ZM70.2415 19.794C69.4781 19.794 68.8277 20.1101 68.4122 20.7617L69.6769 21.5682C69.7894 21.3918 69.9369 21.294 70.2415 21.294V19.794ZM68.4149 20.7575C68.0262 21.3582 67.9013 22.2215 67.9075 23.1947L69.4075 23.1852C69.4017 22.2744 69.5349 21.7877 69.6742 21.5724L68.4149 20.7575ZM69.3434 23.4933C69.4104 23.3419 69.5185 23.219 69.7015 23.1189L68.9815 21.803C68.5285 22.0509 68.1807 22.414 67.9716 22.8866L69.3434 23.4933ZM69.7058 23.1166C69.9107 23.0027 70.144 22.941 70.4215 22.941V21.441C69.9071 21.441 69.4203 21.5592 68.9773 21.8053L69.7058 23.1166ZM70.4215 22.941C70.8712 22.941 71.1537 23.0736 71.3546 23.2844L72.4404 22.2495C71.9093 21.6923 71.2078 21.441 70.4215 21.441V22.941ZM71.3589 23.2888C71.5615 23.498 71.7055 23.8221 71.7055 24.36H73.2055C73.2055 23.5418 72.9775 22.8039 72.4362 22.2451L71.3589 23.2888ZM71.7055 24.36C71.7055 24.6664 71.6454 24.9152 71.5417 25.1225L72.8834 25.7934C73.1037 25.3527 73.2055 24.8696 73.2055 24.36H71.7055ZM71.5368 25.1326C71.448 25.3169 71.3133 25.4663 71.1102 25.5867L71.8749 26.8772C72.3197 26.6136 72.665 26.247 72.8883 25.7833L71.5368 25.1326ZM71.1049 25.5899C70.9278 25.6968 70.6819 25.77 70.3315 25.77V27.27C70.8931 27.27 71.4212 27.1511 71.8802 26.874L71.1049 25.5899ZM70.3315 25.77C69.8175 25.77 69.5206 25.6548 69.3486 25.5183L68.4165 26.6936C68.9404 27.1091 69.6095 27.27 70.3315 27.27V25.77ZM69.3486 25.5183C69.1402 25.3531 68.9762 25.1145 68.875 24.7581L67.4321 25.1678C67.6068 25.7834 67.9288 26.3068 68.4165 26.6936L69.3486 25.5183ZM68.875 24.7581C68.7619 24.3599 68.6965 23.8338 68.6965 23.163H67.1965C67.1965 23.9201 67.2691 24.594 67.4321 25.1678L68.875 24.7581ZM68.6965 23.163C68.6965 22.1261 68.8815 21.482 69.1377 21.1148C69.3595 20.7967 69.6868 20.61 70.2505 20.61V19.11C69.2782 19.11 68.4535 19.4737 67.9074 20.2566C67.3955 20.9904 67.1965 21.9978 67.1965 23.163H68.6965ZM70.2505 20.61C70.7009 20.61 70.9592 20.7285 71.121 20.8817L72.1521 19.7922C71.6419 19.3094 70.9762 19.11 70.2505 19.11V20.61ZM71.121 20.8817C71.3227 21.0725 71.4462 21.3109 71.4862 21.6348L72.9749 21.4511C72.8949 20.803 72.6224 20.2374 72.1521 19.7922L71.121 20.8817ZM72.2305 20.793H71.4745V22.293H72.2305V20.793ZM70.2505 22.134C69.8841 22.134 69.5311 22.2115 69.2005 22.3681L69.8426 23.7238C69.9679 23.6644 70.101 23.634 70.2505 23.634V22.134ZM69.2153 22.3613C68.8529 22.5235 68.5587 22.7781 68.3395 23.1069L69.5876 23.939C69.6563 23.8358 69.7342 23.7725 69.8278 23.7306L69.2153 22.3613ZM68.3368 23.1111C68.1024 23.4678 68.0065 23.8767 68.0065 24.297H69.5065C69.5065 24.1052 69.5487 23.9982 69.5903 23.9348L68.3368 23.1111ZM68.0065 24.297C68.0065 24.9072 68.188 25.4706 68.5997 25.9197L69.7054 24.9062C69.5891 24.7793 69.5065 24.5987 69.5065 24.297H68.0065ZM68.605 25.9255C69.0473 26.398 69.6473 26.586 70.2865 26.586V25.086C69.9418 25.086 69.7858 24.9919 69.7 24.9004L68.605 25.9255ZM70.2865 26.586C70.872 26.586 71.4156 26.3994 71.8283 25.9665L70.7427 24.9314C70.6635 25.0145 70.5411 25.086 70.2865 25.086V26.586ZM71.828 25.9668C72.2409 25.5343 72.4135 24.9796 72.4135 24.387H70.9135C70.9135 24.6823 70.8342 24.8356 70.743 24.9311L71.828 25.9668ZM72.4135 24.387C72.4135 23.792 72.259 23.225 71.8585 22.7844L70.7486 23.7935C70.8281 23.8809 70.9135 24.046 70.9135 24.387H72.4135ZM71.8641 22.7907C71.4442 22.3184 70.8629 22.134 70.2505 22.134V23.634C70.5621 23.634 70.6828 23.7196 70.743 23.7872L71.8641 22.7907ZM79.3348 18.024L80.0631 18.2034L80.2921 17.274H79.3348V18.024ZM76.8688 28.032V28.782H77.4565L77.5971 28.2114L76.8688 28.032ZM76.0588 28.032L75.3305 27.8531L75.1024 28.782H76.0588V28.032ZM78.5158 18.024V17.274H77.9277L77.7875 17.8451L78.5158 18.024ZM78.6066 17.8445L76.1406 27.8525L77.5971 28.2114L80.0631 18.2034L78.6066 17.8445ZM76.8688 27.282H76.0588V28.782H76.8688V27.282ZM76.7872 28.2108L79.2442 18.2028L77.7875 17.8451L75.3305 27.8531L76.7872 28.2108ZM78.5158 18.774H79.3348V17.274H78.5158V18.774ZM84.1875 23.118L84.3966 23.8382L86.5101 23.2246L84.4618 22.4199L84.1875 23.118ZM83.4135 22.542L82.8032 22.9779L83.4135 22.542ZM83.3865 20.751L84.0217 21.1498L84.0258 21.1432L83.3865 20.751ZM84.1065 20.13L84.4265 20.8083L84.4319 20.8057L84.1065 20.13ZM86.4375 20.13L86.1072 20.8033L86.1148 20.807L86.1224 20.8106L86.4375 20.13ZM87.1665 20.751L86.5273 21.1432L86.5325 21.1518L86.538 21.1602L87.1665 20.751ZM87.1395 22.542L87.7479 22.9806L87.7526 22.9739L87.1395 22.542ZM86.3745 23.118L86.1027 22.4189L84.0891 23.202L86.1548 23.835L86.3745 23.118ZM87.2565 23.721L86.6565 24.171L86.6618 24.178L86.6672 24.1849L87.2565 23.721ZM87.3015 25.773L87.9256 26.189L87.9295 26.183L87.3015 25.773ZM86.4825 26.448L86.7893 27.1324L86.7946 27.1299L86.4825 26.448ZM84.0705 26.448L83.7495 27.1258L83.7566 27.1291L83.7637 27.1323L84.0705 26.448ZM83.2695 25.773L82.6415 26.1831L82.6455 26.189L83.2695 25.773ZM83.3055 23.712L83.9055 24.162V24.162L83.3055 23.712ZM86.2665 20.877L85.7892 21.4555L85.7892 21.4555L86.2665 20.877ZM84.2955 20.877L84.7728 21.4555V21.4555L84.2955 20.877ZM84.3045 22.542L83.8257 23.1193L83.8326 23.1249L84.3045 22.542ZM86.2485 22.542L86.7273 23.1193L86.7287 23.1181L86.2485 22.542ZM84.1875 23.793L84.6272 24.4007L84.6355 24.3945L84.1875 23.793ZM84.1695 25.647L83.6783 26.2138L83.6845 26.219L84.1695 25.647ZM86.3745 25.647L85.8833 25.0802L86.3745 25.647ZM86.3655 23.802L85.9032 24.3926L85.9114 24.3988L86.3655 23.802ZM84.4618 22.4199C84.2379 22.332 84.1063 22.2215 84.0238 22.106L82.8032 22.9779C83.0808 23.3664 83.4651 23.64 83.9133 23.816L84.4618 22.4199ZM84.0238 22.106C83.9488 22.001 83.8935 21.8539 83.8935 21.624H82.3935C82.3935 22.114 82.5182 22.5789 82.8032 22.9779L84.0238 22.106ZM83.8935 21.624C83.8935 21.4317 83.9396 21.2806 84.0217 21.1498L82.7514 20.3521C82.5095 20.7373 82.3935 21.1682 82.3935 21.624H83.8935ZM84.0258 21.1432C84.1015 21.0199 84.2221 20.9047 84.4265 20.8083L83.7866 19.4516C83.3549 19.6552 82.9956 19.954 82.7473 20.3587L84.0258 21.1432ZM84.4319 20.8057C84.6309 20.7099 84.9039 20.646 85.2765 20.646V19.146C84.7372 19.146 84.2301 19.238 83.7812 19.4542L84.4319 20.8057ZM85.2765 20.646C85.6498 20.646 85.9172 20.7101 86.1072 20.8033L86.7678 19.4566C86.3219 19.2378 85.8152 19.146 85.2765 19.146V20.646ZM86.1224 20.8106C86.3334 20.9082 86.4539 21.0236 86.5273 21.1432L87.8058 20.3587C87.5552 19.9503 87.1897 19.6517 86.7526 19.4494L86.1224 20.8106ZM86.538 21.1602C86.6225 21.2899 86.6685 21.4373 86.6685 21.624H88.1685C88.1685 21.1626 88.0466 20.728 87.795 20.3417L86.538 21.1602ZM86.6685 21.624C86.6685 21.8299 86.6163 21.9824 86.5264 22.11L87.7526 22.9739C88.0347 22.5735 88.1685 22.114 88.1685 21.624H86.6685ZM86.5311 22.1034C86.4377 22.233 86.3048 22.3404 86.1027 22.4189L86.6464 23.817C87.0923 23.6435 87.4694 23.3669 87.7479 22.9806L86.5311 22.1034ZM86.1548 23.835C86.3879 23.9065 86.5436 24.0204 86.6565 24.171L87.8565 23.271C87.5374 22.8455 87.1051 22.5574 86.5943 22.4009L86.1548 23.835ZM86.6672 24.1849C86.7726 24.3188 86.8395 24.4919 86.8395 24.747H88.3395C88.3395 24.198 88.1844 23.6871 87.8458 23.257L86.6672 24.1849ZM86.8395 24.747C86.8395 25.008 86.7773 25.2041 86.6736 25.3629L87.9295 26.183C88.2098 25.7538 88.3395 25.2659 88.3395 24.747H86.8395ZM86.6775 25.3569C86.5721 25.515 86.414 25.6545 86.1704 25.766L86.7946 27.1299C87.2591 26.9174 87.647 26.6069 87.9256 26.189L86.6775 25.3569ZM86.1757 25.7636C85.9412 25.8687 85.6471 25.932 85.2765 25.932V27.432C85.8179 27.432 86.3278 27.3392 86.7893 27.1323L86.1757 25.7636ZM85.2765 25.932C84.9059 25.932 84.6118 25.8687 84.3773 25.7636L83.7637 27.1323C84.2252 27.3392 84.7351 27.432 85.2765 27.432V25.932ZM84.3916 25.7702C84.1606 25.6607 84.0032 25.5214 83.8936 25.3569L82.6455 26.189C82.9198 26.6005 83.2964 26.9112 83.7495 27.1258L84.3916 25.7702ZM83.8975 25.3629C83.7938 25.2041 83.7315 25.008 83.7315 24.747H82.2315C82.2315 25.2659 82.3613 25.7538 82.6416 26.183L83.8975 25.3629ZM83.7315 24.747C83.7315 24.4873 83.7982 24.3051 83.9055 24.162L82.7055 23.262C82.3809 23.6948 82.2315 24.2026 82.2315 24.747H83.7315ZM83.9055 24.162C84.0164 24.0142 84.1682 23.9045 84.3966 23.8382L83.9784 22.3977C83.4629 22.5474 83.0267 22.8338 82.7055 23.262L83.9055 24.162ZM87.3765 21.723C87.3765 21.177 87.1877 20.6647 86.7438 20.2984L85.7892 21.4555C85.8253 21.4852 85.8765 21.5369 85.8765 21.723H87.3765ZM86.7438 20.2984C86.3289 19.9561 85.8097 19.83 85.2765 19.83V21.33C85.5833 21.33 85.7241 21.4018 85.7892 21.4555L86.7438 20.2984ZM85.2765 19.83C84.7463 19.83 84.2314 19.9576 83.8182 20.2984L84.7728 21.4555C84.8397 21.4003 84.9788 21.33 85.2765 21.33V19.83ZM83.8182 20.2984C83.3713 20.6671 83.1855 21.1845 83.1855 21.732H84.6855C84.6855 21.5354 84.7397 21.4828 84.7728 21.4555L83.8182 20.2984ZM83.1855 21.732C83.1855 22.278 83.3981 22.7646 83.8258 23.1193L84.7833 21.9646C84.719 21.9113 84.6855 21.8579 84.6855 21.732H83.1855ZM83.8326 23.1249C84.2458 23.4593 84.748 23.598 85.2765 23.598V22.098C85.013 22.098 84.8673 22.0326 84.7764 21.959L83.8326 23.1249ZM85.2765 23.598C85.8071 23.598 86.3149 23.4612 86.7273 23.1193L85.7698 21.9646C85.6901 22.0307 85.5499 22.098 85.2765 22.098V23.598ZM86.7287 23.1181C87.1564 22.7617 87.3765 22.2753 87.3765 21.723H85.8765C85.8765 21.8426 85.8447 21.9022 85.7684 21.9658L86.7287 23.1181ZM85.2765 22.728C84.714 22.728 84.1816 22.8622 83.7396 23.1914L84.6355 24.3945C84.7574 24.3037 84.9511 24.228 85.2765 24.228V22.728ZM83.7479 23.1853C83.2325 23.5581 83.0145 24.1171 83.0145 24.72H84.5145C84.5145 24.4948 84.5785 24.4358 84.6271 24.4006L83.7479 23.1853ZM83.0145 24.72C83.0145 25.3031 83.2305 25.8256 83.6783 26.2137L84.6607 25.0802C84.5685 25.0003 84.5145 24.9049 84.5145 24.72H83.0145ZM83.6845 26.219C84.13 26.5967 84.6872 26.748 85.2765 26.748V25.248C84.9418 25.248 84.761 25.1652 84.6545 25.0749L83.6845 26.219ZM85.2765 26.748C85.8649 26.748 86.4234 26.5971 86.8657 26.2137L85.8833 25.0802C85.7856 25.1648 85.6122 25.248 85.2765 25.248V26.748ZM86.8657 26.2137C87.3135 25.8256 87.5295 25.3031 87.5295 24.72H86.0295C86.0295 24.9049 85.9755 25.0003 85.8833 25.0802L86.8657 26.2137ZM87.5295 24.72C87.5295 24.126 87.3133 23.5807 86.8197 23.2051L85.9114 24.3988C85.9697 24.4432 86.0295 24.5099 86.0295 24.72H87.5295ZM86.8278 23.2113C86.3863 22.8659 85.846 22.728 85.2765 22.728V24.228C85.6071 24.228 85.7927 24.306 85.9033 24.3926L86.8278 23.2113ZM88.7673 26.394L88.2369 26.9243L88.7673 26.394ZM88.7673 25.602L89.2976 26.1323L88.7673 25.602ZM89.5413 25.602L88.996 26.1169L89.0034 26.1247L89.0109 26.1323L89.5413 25.602ZM89.5413 26.394L89.0109 25.8636L89.0034 25.8712L88.996 25.879L89.5413 26.394ZM88.7673 22.542L88.2369 23.0723L88.7673 22.542ZM88.7673 21.75L89.2976 22.2803V22.2803L88.7673 21.75ZM89.5413 21.75L88.996 22.2649L89.0034 22.2727L89.0109 22.2803L89.5413 21.75ZM89.5413 22.542L89.0109 22.0116L89.0034 22.0192L88.996 22.027L89.5413 22.542ZM89.1633 25.806C89.1735 25.806 89.199 25.8081 89.2312 25.8213C89.2638 25.8346 89.2862 25.8523 89.2976 25.8636L88.2369 26.9243C88.4889 27.1763 88.8131 27.306 89.1633 27.306V25.806ZM89.2976 25.8636C89.309 25.875 89.3266 25.8974 89.3399 25.93C89.3531 25.9622 89.3553 25.9877 89.3553 25.998H87.8553C87.8553 26.3481 87.9849 26.6723 88.2369 26.9243L89.2976 25.8636ZM89.3553 25.998C89.3553 26.0082 89.3531 26.0337 89.3399 26.0659C89.3266 26.0985 89.309 26.1209 89.2976 26.1323L88.2369 25.0716C87.9849 25.3236 87.8553 25.6478 87.8553 25.998H89.3553ZM89.2976 26.1323C89.2862 26.1437 89.2638 26.1613 89.2312 26.1746C89.199 26.1878 89.1735 26.19 89.1633 26.19V24.69C88.8131 24.69 88.4889 24.8196 88.2369 25.0716L89.2976 26.1323ZM89.1633 26.19C89.1463 26.19 89.1136 26.1865 89.0748 26.1698C89.0358 26.1531 89.0095 26.1312 88.996 26.1169L90.0865 25.087C89.8413 24.8273 89.5173 24.69 89.1633 24.69V26.19ZM89.0109 26.1323C88.9996 26.1209 88.9819 26.0985 88.9686 26.0659C88.9554 26.0337 88.9533 26.0082 88.9533 25.998H90.4533C90.4533 25.6478 90.3236 25.3236 90.0716 25.0716L89.0109 26.1323ZM88.9533 25.998C88.9533 25.9877 88.9554 25.9622 88.9686 25.93C88.9819 25.8974 88.9996 25.875 89.0109 25.8636L90.0716 26.9243C90.3236 26.6723 90.4533 26.3481 90.4533 25.998H88.9533ZM88.996 25.879C89.0095 25.8647 89.0358 25.8428 89.0748 25.8261C89.1136 25.8095 89.1463 25.806 89.1633 25.806V27.306C89.5173 27.306 89.8413 27.1686 90.0865 26.9089L88.996 25.879ZM89.1633 21.954C89.1735 21.954 89.199 21.9561 89.2312 21.9693C89.2638 21.9826 89.2862 22.0003 89.2976 22.0116L88.2369 23.0723C88.4889 23.3243 88.8131 23.454 89.1633 23.454V21.954ZM89.2976 22.0116C89.309 22.023 89.3266 22.0454 89.3399 22.078C89.3531 22.1102 89.3553 22.1357 89.3553 22.146H87.8553C87.8553 22.4961 87.9849 22.8203 88.2369 23.0723L89.2976 22.0116ZM89.3553 22.146C89.3553 22.1562 89.3531 22.1817 89.3399 22.2139C89.3266 22.2465 89.309 22.2689 89.2976 22.2803L88.2369 21.2196C87.9849 21.4716 87.8553 21.7958 87.8553 22.146H89.3553ZM89.2976 22.2803C89.2862 22.2917 89.2638 22.3093 89.2312 22.3226C89.199 22.3358 89.1735 22.338 89.1633 22.338V20.838C88.8131 20.838 88.4889 20.9676 88.2369 21.2196L89.2976 22.2803ZM89.1633 22.338C89.1463 22.338 89.1136 22.3345 89.0748 22.3178C89.0358 22.3011 89.0095 22.2792 88.996 22.2649L90.0865 21.235C89.8413 20.9753 89.5173 20.838 89.1633 20.838V22.338ZM89.0109 22.2803C88.9996 22.2689 88.9819 22.2465 88.9686 22.2139C88.9554 22.1817 88.9533 22.1562 88.9533 22.146H90.4533C90.4533 21.7958 90.3236 21.4716 90.0716 21.2196L89.0109 22.2803ZM88.9533 22.146C88.9533 22.1357 88.9554 22.1102 88.9686 22.078C88.9819 22.0454 88.9996 22.023 89.0109 22.0116L90.0716 23.0723C90.3236 22.8203 90.4533 22.4961 90.4533 22.146H88.9533ZM88.996 22.027C89.0095 22.0127 89.0358 21.9908 89.0748 21.9741C89.1136 21.9575 89.1463 21.954 89.1633 21.954V23.454C89.5173 23.454 89.8413 23.3166 90.0865 23.0569L88.996 22.027ZM91.2773 20.769L91.9251 21.1469L91.9268 21.1439L91.2773 20.769ZM94.7963 20.769L94.1467 21.1439L94.1484 21.1469L94.7963 20.769ZM91.2773 25.629L91.9268 25.254L91.2773 25.629ZM94.3823 21.858L93.6442 21.9911L93.6454 21.9981L93.6468 22.005L94.3823 21.858ZM93.9593 20.976L93.4144 21.4914L93.4217 21.499L93.9593 20.976ZM92.1053 20.976L91.5677 20.4529L91.5604 20.4606L92.1053 20.976ZM91.6823 21.858L90.9463 21.7132L90.9446 21.7227L91.6823 21.858ZM91.6823 24.54L90.9441 24.6731L90.9464 24.6847L91.6823 24.54ZM92.1053 25.422L91.5604 25.9374L91.5677 25.945L92.1053 25.422ZM93.9593 25.422L93.4217 24.8989L93.4144 24.9066L93.9593 25.422ZM94.3823 24.54L93.6463 24.3952L93.6442 24.4069L94.3823 24.54ZM91.5233 23.181C91.5233 22.2152 91.683 21.5618 91.9251 21.1469L90.6294 20.391C90.1995 21.1281 90.0233 22.0827 90.0233 23.181H91.5233ZM91.9268 21.1439C92.0939 20.8545 92.3912 20.646 93.0413 20.646V19.146C92.0113 19.146 91.1326 19.5195 90.6277 20.394L91.9268 21.1439ZM93.0413 20.646C93.6827 20.646 93.9786 20.8526 94.1467 21.1439L95.4458 20.394C94.942 19.5213 94.0678 19.146 93.0413 19.146V20.646ZM94.1484 21.1469C94.3905 21.5618 94.5503 22.2152 94.5503 23.181H96.0503C96.0503 22.0827 95.874 21.1281 95.4441 20.391L94.1484 21.1469ZM94.5503 23.181C94.5503 24.1668 94.3899 24.8328 94.1467 25.254L95.4458 26.0039C95.8747 25.2611 96.0503 24.2952 96.0503 23.181H94.5503ZM94.1467 25.254C93.9786 25.5453 93.6827 25.752 93.0413 25.752V27.252C94.0678 27.252 94.942 26.8766 95.4458 26.0039L94.1467 25.254ZM93.0413 25.752C92.3912 25.752 92.0939 25.5435 91.9268 25.254L90.6277 26.0039C91.1326 26.8785 92.0113 27.252 93.0413 27.252V25.752ZM91.9268 25.254C91.6837 24.8328 91.5233 24.1668 91.5233 23.181H90.0233C90.0233 24.2952 90.1989 25.2611 90.6277 26.0039L91.9268 25.254ZM95.2403 23.181C95.2403 22.6284 95.2025 22.1348 95.1177 21.7109L93.6468 22.005C93.7061 22.3011 93.7403 22.6895 93.7403 23.181H95.2403ZM95.1204 21.7249C95.0333 21.2418 94.8364 20.802 94.4968 20.4529L93.4217 21.499C93.5141 21.5939 93.5993 21.7421 93.6442 21.9911L95.1204 21.7249ZM94.5041 20.4606C94.1116 20.0456 93.5813 19.893 93.0413 19.893V21.393C93.3052 21.393 93.3869 21.4623 93.4144 21.4914L94.5041 20.4606ZM93.0413 19.893C92.4977 19.893 91.9656 20.044 91.5677 20.4529L92.6428 21.499C92.6769 21.4639 92.7688 21.393 93.0413 21.393V19.893ZM91.5604 20.4606C91.2334 20.8062 91.0397 21.2389 90.9464 21.7132L92.4182 22.0027C92.4689 21.745 92.5571 21.5897 92.6501 21.4914L91.5604 20.4606ZM90.9446 21.7227C90.8678 22.1417 90.8333 22.631 90.8333 23.181H92.3333C92.3333 22.6869 92.3648 22.2942 92.42 21.9932L90.9446 21.7227ZM90.8333 23.181C90.8333 23.7475 90.8676 24.2483 90.9442 24.6731L92.4204 24.4069C92.365 24.0996 92.3333 23.6944 92.3333 23.181H90.8333ZM90.9464 24.6847C91.0397 25.159 91.2334 25.5917 91.5604 25.9374L92.6501 24.9066C92.5571 24.8082 92.4689 24.6529 92.4182 24.3952L90.9464 24.6847ZM91.5677 25.945C91.9656 26.3539 92.4977 26.505 93.0413 26.505V25.005C92.7688 25.005 92.6769 24.934 92.6428 24.8989L91.5677 25.945ZM93.0413 26.505C93.5813 26.505 94.1116 26.3523 94.5041 25.9374L93.4144 24.9066C93.3869 24.9356 93.3052 25.005 93.0413 25.005V26.505ZM94.4968 25.945C94.8364 25.5959 95.0333 25.1561 95.1204 24.6731L93.6442 24.4069C93.5993 24.6558 93.5141 24.804 93.4217 24.8989L94.4968 25.945ZM95.1182 24.6847C95.2027 24.2551 95.2403 23.75 95.2403 23.181H93.7403C93.7403 23.6919 93.7059 24.0928 93.6464 24.3952L95.1182 24.6847ZM96.3166 25.053H95.5666V25.803H96.3166V25.053ZM96.3166 24.432L95.7086 23.9928L95.5666 24.1894V24.432H96.3166ZM99.4756 20.058V19.308H99.0922L98.8676 19.6188L99.4756 20.058ZM100.457 20.058H101.207V19.308H100.457V20.058ZM100.457 24.342H99.7066V25.092H100.457V24.342ZM101.357 24.342H102.107V23.592H101.357V24.342ZM101.357 25.053V25.803H102.107V25.053H101.357ZM100.457 25.053V24.303H99.7066V25.053H100.457ZM100.457 26.502V27.252H101.207V26.502H100.457ZM99.6466 26.502H98.8966V27.252H99.6466V26.502ZM99.6466 25.053H100.397V24.303H99.6466V25.053ZM99.6826 20.913H100.433V18.5503L99.07 20.4804L99.6826 20.913ZM97.2616 24.342L96.649 23.9094L95.814 25.092H97.2616V24.342ZM99.6826 24.342V25.092H100.433V24.342H99.6826ZM97.0666 25.053V24.432H95.5666V25.053H97.0666ZM96.9247 24.8711L100.084 20.4971L98.8676 19.6188L95.7086 23.9928L96.9247 24.8711ZM99.4756 20.808H100.457V19.308H99.4756V20.808ZM99.7066 20.058V24.342H101.207V20.058H99.7066ZM100.457 25.092H101.357V23.592H100.457V25.092ZM100.607 24.342V25.053H102.107V24.342H100.607ZM101.357 24.303H100.457V25.803H101.357V24.303ZM99.7066 25.053V26.502H101.207V25.053H99.7066ZM100.457 25.752H99.6466V27.252H100.457V25.752ZM100.397 26.502V25.053H98.8966V26.502H100.397ZM99.6466 24.303H96.3166V25.803H99.6466V24.303ZM99.07 20.4804L96.649 23.9094L97.8743 24.7745L100.295 21.3455L99.07 20.4804ZM97.2616 25.092H99.6826V23.592H97.2616V25.092ZM100.433 24.342V20.913H98.9326V24.342H100.433Z" fill="black" fill-opacity="0.1" mask="url(#path-10-outside-1_1222_1769)"/>
</svg>
